<?xml version="1.0" encoding="UTF-8"?>
<svg version="1.1" xmlns="http://www.w3.org/2000/svg" width="2245" height="1587">
<path d="M0 0 C740.85 0 1481.7 0 2245 0 C2245 523.71 2245 1047.42 2245 1587 C1504.15 1587 763.3 1587 0 1587 C0 1063.29 0 539.58 0 0 Z " fill="#FEFEFE" transform="translate(0,0)"/>
<path d="M0 0 C48.1371208 -0.34358656 96.27411143 -0.60777265 144.41221744 -0.76597994 C150.09968342 -0.78473978 155.78714699 -0.80415469 161.47460938 -0.82397461 C162.60684602 -0.82790927 163.73908267 -0.83184392 164.90562952 -0.83589781 C183.22133263 -0.90110801 201.53632711 -1.01934243 219.8516103 -1.15729194 C238.65504968 -1.29773344 257.45811881 -1.38091685 276.26206112 -1.41132742 C287.8587821 -1.43187552 299.45349997 -1.49668672 311.04960406 -1.618747 C319.00945639 -1.6982469 326.96827844 -1.72195551 334.92849863 -1.70252066 C339.51705668 -1.69294298 344.10212427 -1.70725692 348.69005585 -1.78808212 C379.0559293 -2.29706088 379.0559293 -2.29706088 387.95043468 5.24415821 C390.43056128 7.75709994 392.61996061 10.357387 394.68161583 13.22188175 C396.54841483 15.73965271 398.76973057 17.81117892 401.0625 19.9375 C404.88535022 23.81122465 408.47326202 27.85693888 412 32 C412.48984375 32.56203125 412.9796875 33.1240625 413.484375 33.703125 C417.14882207 37.91920926 420.63627819 42.26611375 424.109375 46.640625 C425.6477455 48.56040968 427.21338522 50.44365502 428.8125 52.3125 C430.83534597 54.79771077 432.36268891 57.25485652 434 60 C435.08813838 61.61508191 436.19277973 63.21915093 437.3125 64.8125 C438.23289062 66.12347656 438.23289062 66.12347656 439.171875 67.4609375 C440.75651552 69.66182711 442.39242126 71.8015572 444.0625 73.9375 C447.62567606 78.63785991 450.25926524 83.79334671 453 89 C453.86996302 90.58610649 454.74463195 92.16964512 455.625 93.75 C456.02847656 94.47574219 456.43195313 95.20148438 456.84765625 95.94921875 C457.90420357 97.82951482 458.98022388 99.69694233 460.0625 101.5625 C461.80586551 104.65556785 463.42499825 107.7693862 464.9921875 110.953125 C466.01971125 113.0400337 467.07226313 115.11321847 468.125 117.1875 C472 124.96801181 472 124.96801181 472 129 C472.66 129 473.32 129 474 129 C474.83919398 131.26882087 475.67151724 133.53977027 476.5 135.8125 C476.73847656 136.45509766 476.97695313 137.09769531 477.22265625 137.75976562 C478.27068746 140.64933739 479 142.90076061 479 146 C479.66 146 480.32 146 481 146 C485.72652414 159.94487108 490.26785788 173.91576836 494.40722656 188.04638672 C494.92013019 189.73677174 495.49014977 191.40962781 496.0703125 193.078125 C497.1748411 196.5495006 497.86323221 200.04577668 498.5 203.625 C498.62890625 204.33156738 498.7578125 205.03813477 498.890625 205.76611328 C499.79614456 210.76344934 500.66004717 215.76729245 501.46875 220.78125 C501.86505387 223.18238519 502.28267126 225.57485943 502.71875 227.96875 C506.27428177 247.78899851 507.35880021 267.51124044 507.25 287.625 C507.24656586 288.67137634 507.24313171 289.71775269 507.23959351 290.7958374 C507.06041226 337.52790663 499.56561391 382.59970531 485 427 C484.34 427 483.68 427 483 427 C482.855625 428.258125 482.71125 429.51625 482.5625 430.8125 C482.26251314 433.42667123 481.84186703 435.47439892 481 438 C480.34 438 479.68 438 479 438 C478.87044922 439.46953125 478.87044922 439.46953125 478.73828125 440.96875 C478.07934429 445.55707461 476.22154517 449.37284483 474.1875 453.5 C473.84396484 454.22058594 473.50042969 454.94117188 473.14648438 455.68359375 C471.48536597 459.13049236 469.74539223 462.48877896 467.80859375 465.7890625 C466.40111357 468.28787181 465.47016739 470.12709947 464.875 472.875 C464.58625 473.90625 464.2975 474.9375 464 476 C463.34 476.33 462.68 476.66 462 477 C460.95981846 478.86305495 459.99114326 480.76641357 459.0625 482.6875 C458.55847656 483.72261719 458.05445313 484.75773437 457.53515625 485.82421875 C457.02855469 486.87222656 456.52195312 487.92023438 456 489 C453.98862972 493.15282917 451.88843442 496.41133905 449 500 C448.03425894 501.67395118 447.07009062 503.34900982 446.1328125 505.0390625 C442.86678824 510.69266311 439.09087705 515.92166987 435 521 C434.54625 521.763125 434.0925 522.52625 433.625 523.3125 C429.52266391 530.09713277 424.30453171 536.13205682 419.265625 542.23046875 C417.25732133 544.68544686 415.31474297 547.17848464 413.375 549.6875 C404.4065348 560.9477058 394.07612892 572.06820081 383.125 581.4375 C380.28346073 583.88635054 377.47548207 586.36531917 374.6875 588.875 C366.89407978 595.79951402 358.8280742 602.25807549 350.3125 608.2734375 C348.34073371 609.74560084 346.72863908 611.26646393 345 613 C343.36495451 613.93431171 341.72789174 614.86537262 340.078125 615.7734375 C337.68346603 617.18682644 335.45060599 618.75951239 333.1875 620.375 C328.92875757 623.407642 324.5573426 626.12431954 320.03125 628.73828125 C317.88136652 629.96692798 317.88136652 629.96692798 316 632 C314.43477932 632.66087095 312.86825681 633.31875908 311.296875 633.96484375 C308.42932902 635.25719015 305.69915289 636.74456239 302.9375 638.25 C297.06590111 641.44961552 291.13177548 644.4801516 285.13671875 647.44140625 C283.35839928 648.3250295 281.5854753 649.22033295 279.83203125 650.15234375 C274.73622227 652.85779457 269.41027122 654.7029054 263.953125 656.55859375 C260.68822202 657.70135336 257.53039504 659.04333403 254.3515625 660.40625 C248.0566362 663.05253413 241.66312688 665.10889203 235.125 667.0625 C234.05636719 667.38798828 232.98773438 667.71347656 231.88671875 668.04882812 C228.5951789 669.04656379 225.29793331 670.0236318 222 671 C220.90913086 671.33362549 219.81826172 671.66725098 218.69433594 672.01098633 C184.61255351 682.19084456 148.95199846 685.23514556 113.5625 685.3125 C112.46669617 685.31635712 111.37089233 685.32021423 110.24188232 685.32418823 C73.77447582 685.38742019 35.85070209 681.25146839 1 670 C0 669 0 669 -0.12467116 667.11540338 C-0.12451518 666.28075106 -0.1243592 665.44609874 -0.1241985 664.58615392 C-0.12644579 663.62495052 -0.12869308 662.66374712 -0.13100848 661.67341635 C-0.12838146 660.60273626 -0.12575445 659.53205617 -0.12304783 658.42893124 C-0.12420167 657.2982554 -0.12535552 656.16757956 -0.12654433 655.00264081 C-0.12875031 651.83621459 -0.12642204 648.66982737 -0.12226619 645.50340423 C-0.11884867 642.06922018 -0.12119959 638.63503953 -0.12284368 635.20085484 C-0.12492331 629.17278087 -0.12326365 623.14471674 -0.11920547 617.11664391 C-0.11318775 608.15302211 -0.11286806 599.18940656 -0.11374746 590.22578311 C-0.11506358 575.14991938 -0.11171157 560.07406002 -0.10573006 544.99819756 C-0.09981986 530.06391821 -0.09596549 515.12964069 -0.09487724 500.19536018 C-0.0948085 499.26796293 -0.09473976 498.34056567 -0.09466894 497.38506547 C-0.09433062 492.67558438 -0.09402923 487.96610329 -0.09374207 483.2566222 C-0.09163977 449.87005484 -0.08489715 416.48348985 -0.07543945 383.09692383 C-0.06626008 350.65551771 -0.05917399 318.21411224 -0.05493164 285.77270508 C-0.05480011 284.7733132 -0.05466859 283.77392132 -0.05453308 282.74424484 C-0.05321459 272.70824991 -0.05193878 262.67225499 -0.05069422 252.63626005 C-0.04815777 232.19045446 -0.04533652 211.74464891 -0.04234314 191.29884338 C-0.04220585 190.35870858 -0.04206856 189.41857378 -0.04192711 188.44995005 C-0.0327212 125.63329904 -0.01687539 62.81664936 0 0 Z " fill="#010101" transform="translate(0,0)"/>
<path d="M0 0 C0.96942032 0.00066971 1.93884064 0.00133942 2.93763733 0.00202942 C5.30982607 0.00376514 7.6820119 0.00619785 10.05419922 0.00927734 C10.07752454 28.415675 10.09517659 56.82207123 10.10601139 85.22847652 C10.11117513 98.41705075 10.1182193 111.60561904 10.12963867 124.79418945 C10.13958314 136.28479455 10.14605208 147.77539534 10.14828771 159.26600462 C10.14959523 165.35428719 10.15268362 171.44255746 10.15992928 177.53083611 C10.16668575 183.25411368 10.16881694 188.9773738 10.1673069 194.70065498 C10.1675834 196.8078483 10.16959072 198.91504217 10.17340469 201.02223206 C10.17833612 203.88580984 10.17719955 206.74932064 10.17445374 209.61289978 C10.178823 210.88087061 10.178823 210.88087061 10.18328053 212.17445701 C10.16832043 217.89515613 10.16832043 217.89515613 9.05419922 219.00927734 C7.66968413 219.13037087 6.27958427 219.18889121 4.89013672 219.22021484 C4.02251709 219.24647949 3.15489746 219.27274414 2.26098633 219.29980469 C1.32649658 219.32768066 0.39200684 219.35555664 -0.57080078 219.38427734 C-9.67714792 219.73727836 -18.07204704 220.86122415 -26.94580078 223.00927734 C-27.90873047 223.21294922 -28.87166016 223.41662109 -29.86376953 223.62646484 C-48.82373014 227.86303535 -69.02176032 235.8781267 -84.94580078 247.00927734 C-85.49478027 247.38455566 -86.04375977 247.75983398 -86.609375 248.14648438 C-93.74065126 253.02329371 -100.44442255 258.08427821 -106.77392578 263.98974609 C-108.67784683 265.76011872 -110.62471229 267.42313502 -112.63330078 269.07177734 C-116.49508427 272.36512074 -119.70875428 276.11218232 -122.94580078 280.00927734 C-123.55037109 280.71439453 -124.15494141 281.41951172 -124.77783203 282.14599609 C-138.73739212 298.89178202 -149.71651556 318.34566159 -156.33007812 339.10009766 C-156.87693995 340.79575962 -157.46512733 342.47796928 -158.05908203 344.15771484 C-166.55556025 369.15507547 -166.92620546 396.11137451 -162.94580078 422.00927734 C-162.76275391 423.31251953 -162.57970703 424.61576172 -162.39111328 425.95849609 C-155.43553921 469.1088167 -127.87666021 510.46288572 -92.77685547 535.96606445 C-73.56590999 549.60893584 -50.7054754 562.50825896 -26.94580078 565.00927734 C-26.94580078 565.66927734 -26.94580078 566.32927734 -26.94580078 567.00927734 C-26.19041016 567.05826172 -25.43501953 567.10724609 -24.65673828 567.15771484 C-13.3934466 567.92266908 -2.20051511 568.9861215 9.05419922 570.00927734 C9.05419922 641.94927734 9.05419922 713.88927734 9.05419922 788.00927734 C-42.36949805 788.00927734 -42.36949805 788.00927734 -65.94580078 783.00927734 C-67.18990723 782.74695312 -68.43401367 782.48462891 -69.71582031 782.21435547 C-90.24769759 777.77301565 -110.51070438 772.0268313 -129.94580078 764.00927734 C-130.66904541 763.71625732 -131.39229004 763.4232373 -132.13745117 763.12133789 C-159.91684216 751.84102881 -186.35426709 738.22690976 -210.94580078 721.00927734 C-211.81374268 720.40720459 -211.81374268 720.40720459 -212.69921875 719.79296875 C-225.43041658 710.94455848 -237.52760653 701.50600328 -248.94580078 691.00927734 C-250.27502459 689.8379307 -251.60818485 688.67103142 -252.94580078 687.50927734 C-253.59291016 686.94208984 -254.24001953 686.37490234 -254.90673828 685.79052734 C-256.32222539 684.55400987 -257.74462159 683.32537462 -259.17236328 682.10302734 C-266.41132217 675.78367561 -272.88288508 668.83458426 -279.35498047 661.74853516 C-280.71349034 660.26326439 -282.08249123 658.7876007 -283.45361328 657.31396484 C-289.14475525 651.13326228 -294.30136887 644.58587658 -299.43041992 637.94018555 C-300.5343499 636.53355075 -301.65578339 635.1406005 -302.78735352 633.75610352 C-307.87865352 627.51629662 -312.45261441 621.04395595 -316.88330078 614.32177734 C-317.58422852 613.261604 -318.28515625 612.20143066 -319.00732422 611.10913086 C-329.02317558 595.88684772 -337.72771138 580.27866313 -345.94580078 564.00927734 C-346.36394043 563.18379395 -346.78208008 562.35831055 -347.21289062 561.5078125 C-360.57323258 534.90301756 -370.7795375 505.65994315 -376.47021484 476.43115234 C-377.03258213 473.56735177 -377.62594785 470.71057893 -378.21923828 467.85302734 C-382.89463267 445.17027038 -385.12807926 423.30567909 -385.07617188 400.15698242 C-385.07084045 397.34271782 -385.07613743 394.52861509 -385.08251953 391.71435547 C-385.09060495 374.86232032 -385.00706972 357.91458882 -382.19580078 341.25927734 C-382.02097168 340.18202393 -381.84614258 339.10477051 -381.66601562 337.99487305 C-378.51863433 318.99867223 -374.64184306 300.40979398 -368.94580078 282.00927734 C-368.65382813 281.05794922 -368.36185547 280.10662109 -368.06103516 279.12646484 C-367.15610835 276.18884378 -366.24139406 273.2545245 -365.32080078 270.32177734 C-365.04381348 269.43723877 -364.76682617 268.5527002 -364.48144531 267.64135742 C-362.56599711 261.64608394 -360.35615177 255.82197113 -357.94580078 250.00927734 C-357.61596191 249.2069165 -357.28612305 248.40455566 -356.94628906 247.57788086 C-342.9459403 213.75669936 -324.97146262 181.56580515 -301.94580078 153.00927734 C-301.19943359 152.07083984 -300.45306641 151.13240234 -299.68408203 150.16552734 C-295.14840262 144.52956968 -290.40918109 139.12367724 -285.50048828 133.81005859 C-283.55411323 131.6761887 -281.6629573 129.51946362 -279.78173828 127.32958984 C-275.30219573 122.19690655 -270.50959418 117.3890439 -265.69580078 112.57177734 C-264.81794922 111.68167969 -263.94009766 110.79158203 -263.03564453 109.87451172 C-256.98594817 103.81152906 -250.62890217 98.35696093 -243.94580078 93.00927734 C-242.85608248 92.0857695 -241.77145119 91.15616439 -240.69580078 90.21630859 C-223.77556505 75.48320561 -205.19370709 63.03444459 -185.94580078 51.57177734 C-184.94105713 50.96994629 -184.94105713 50.96994629 -183.91601562 50.35595703 C-177.25273073 46.44881154 -170.3368863 43.2834575 -162.94580078 41.00927734 C-162.94580078 40.34927734 -162.94580078 39.68927734 -162.94580078 39.00927734 C-162.13755859 38.68314453 -161.32931641 38.35701172 -160.49658203 38.02099609 C-159.42794922 37.58400391 -158.35931641 37.14701172 -157.25830078 36.69677734 C-156.20255859 36.26751953 -155.14681641 35.83826172 -154.05908203 35.39599609 C-150.99204617 34.10947078 -150.99204617 34.10947078 -148.48486328 32.50927734 C-145.42579977 30.70207674 -142.34534644 29.54384338 -139.00830078 28.32177734 C-138.32445313 28.07121582 -137.64060547 27.8206543 -136.93603516 27.5625 C-135.42711127 27.01018574 -133.91747218 26.4598226 -132.40722656 25.91113281 C-129.78736994 24.95122899 -127.17705159 23.96788963 -124.56689453 22.98193359 C-114.88711684 19.35487042 -105.36766466 16.09135583 -95.25830078 13.89599609 C-91.94588601 13.14308603 -91.94588601 13.14308603 -89.18164062 11.53613281 C-85.66948354 9.87889497 -82.6941927 9.26352537 -78.85986328 8.69287109 C-78.19924896 8.59087906 -77.53863464 8.48888702 -76.85800171 8.38380432 C-74.76358268 8.06192711 -72.66747469 7.75358998 -70.57080078 7.44677734 C-62.60637627 6.25506756 -54.74309416 5.05298898 -46.94580078 3.00927734 C-39.31375536 1.34181543 -31.87018471 0.62425839 -24.07080078 0.38427734 C-23.10400391 0.34560547 -22.13720703 0.30693359 -21.14111328 0.26708984 C-14.09262039 0.01535795 -7.05228077 -0.0093129 0 0 Z " fill="#020202" transform="translate(2234.94580078125,564.99072265625)"/>
<path d="M0 0 C1.01601288 -0.00033234 1.01601288 -0.00033234 2.05255127 -0.00067139 C15.55836044 0.0466193 28.67860581 1.71053109 41.8125 4.8125 C43.21072998 5.13577271 43.21072998 5.13577271 44.63720703 5.46557617 C51.76142284 7.14378792 58.75018577 9.09452029 65.6875 11.4375 C65.6875 12.0975 65.6875 12.7575 65.6875 13.4375 C66.863125 13.6025 68.03875 13.7675 69.25 13.9375 C74.06728461 14.99439233 78.12227664 17.00316682 82.4375 19.3125 C83.07502197 19.65216797 83.71254395 19.99183594 84.36938477 20.34179688 C88.12149294 22.40474416 91.37465798 24.70454887 94.6875 27.4375 C96.39380447 28.40333272 98.10046596 29.36857906 99.8125 30.32421875 C106.22047216 34.12895222 111.69749938 39.13195112 117.171875 44.14453125 C119.54053148 46.30353956 121.95197063 48.4025137 124.375 50.5 C127.87028245 53.60213996 130.98461982 56.86314554 133.99609375 60.43359375 C135.15069791 61.80151969 136.33191492 63.14731009 137.53515625 64.47265625 C141.27417868 68.59272555 144.02112186 72.56446409 146.6875 77.4375 C147.32558594 78.21738281 147.96367187 78.99726563 148.62109375 79.80078125 C152.10737891 84.24925475 154.26627781 89.35413799 156.6875 94.4375 C157.18507813 95.46359375 157.68265625 96.4896875 158.1953125 97.546875 C164.78505707 111.41638975 169.80772831 125.3451848 172.6875 140.4375 C172.83848145 141.22721191 172.98946289 142.01692383 173.14501953 142.83056641 C179.3734682 176.82163635 174.48833378 209.94459866 163.6875 242.4375 C163.0275 242.4375 162.3675 242.4375 161.6875 242.4375 C161.378125 244.355625 161.378125 244.355625 161.0625 246.3125 C159.99686289 251.089237 158.01434711 254.66307739 155.39453125 258.76171875 C153.5562877 261.64317603 151.87385302 264.58988215 150.1875 267.5625 C147.72014369 271.8148685 145.10888385 275.77638039 142.046875 279.62109375 C140.59390919 281.48514345 140.59390919 281.48514345 139.2890625 283.8828125 C137.56059684 286.63992602 135.65971442 288.62792271 133.3125 290.875 C130.77113965 293.35088246 128.31712511 295.77184243 126.125 298.5625 C119.81465172 306.0054749 111.66874293 311.8116977 103.75 317.4375 C103.15509766 317.86289062 102.56019531 318.28828125 101.94726562 318.7265625 C94.46688835 324.05684226 86.95326941 328.42898451 78.6875 332.4375 C77.016875 333.29408203 77.016875 333.29408203 75.3125 334.16796875 C60.70796648 341.42219428 44.70781787 345.58170421 28.6875 348.4375 C27.76557861 348.60668945 26.84365723 348.77587891 25.89379883 348.95019531 C17.67412715 350.35454253 9.70480826 350.75175868 1.375 350.6875 C0.09971436 350.68073242 -1.17557129 350.67396484 -2.48950195 350.66699219 C-39.72193153 350.25886155 -78.03536513 337.78880196 -107.3125 314.4375 C-108.32643326 313.801432 -109.34036652 313.165364 -110.38502502 312.51002121 C-112.41300055 310.7968915 -113.21408088 309.82245008 -113.87716484 307.22890711 C-114.10093037 304.37908025 -114.13112184 301.58111583 -114.10131836 298.72247314 C-114.11350057 297.63015908 -114.12568277 296.53784502 -114.13823414 295.41243052 C-114.17158576 291.74491096 -114.16193057 288.07877325 -114.15234375 284.41113281 C-114.16701945 281.78462272 -114.18419025 279.15812555 -114.20367432 276.53164673 C-114.24578495 270.13302839 -114.2548639 263.73477247 -114.25129855 257.33603194 C-114.24868283 252.13357075 -114.25629388 246.93122258 -114.27114868 241.72878265 C-114.27534712 240.2299413 -114.27954232 238.73109993 -114.28373432 237.23225856 C-114.28582138 236.48621807 -114.28790843 235.74017759 -114.29005873 234.97152981 C-114.3278658 220.86086539 -114.3257631 206.7504089 -114.31212008 192.63971481 C-114.30097438 179.73859905 -114.34259599 166.83827827 -114.40884101 153.93734828 C-114.47635907 140.68542265 -114.50664597 127.43387756 -114.49740696 114.18177676 C-114.49292115 106.74380788 -114.50334788 99.3065733 -114.55319214 91.86875153 C-114.59527772 85.53478534 -114.60234794 79.20195569 -114.56459296 72.86794236 C-114.54630655 69.63763897 -114.54933347 66.40988612 -114.58530426 63.17966843 C-114.79674755 42.7826839 -114.79674755 42.7826839 -111.13809204 37.95058441 C-108.61747815 35.61840085 -106.35381287 34.00441002 -103.3125 32.4375 C-102.64272629 32.02787647 -101.97295258 31.61825294 -101.28288269 31.19621658 C-99.6586322 30.22031162 -97.98717436 29.32409231 -96.3125 28.4375 C-95.53261719 27.80070312 -94.75273438 27.16390625 -93.94921875 26.5078125 C-89.50003725 23.0143811 -84.39508895 20.87133402 -79.3125 18.4375 C-78.17425781 17.86644531 -77.03601563 17.29539063 -75.86328125 16.70703125 C-52.23258129 5.00022761 -26.2713987 -0.03977672 0 0 Z " fill="#FEFEFE" transform="translate(113.3125,116.5625)"/>
<path d="M0 0 C5.62707168 4.56963539 9.23562112 9.33852114 12 16 C12.53625 17.134375 13.0725 18.26875 13.625 19.4375 C18.25745809 31.43977778 18.49500632 43.88302643 14 56 C8.40064325 68.49087274 -2.67228818 75.2463045 -15 80 C-29.97854435 85.22888635 -47.35072415 86.97270337 -62 80 C-62.79664063 79.62230469 -63.59328125 79.24460937 -64.4140625 78.85546875 C-73.20988494 73.85303365 -79.76187989 63.80299538 -82.5625 54.1953125 C-83.73969924 48.28829488 -84.18209823 42.56387077 -84.1875 36.5625 C-84.19974609 35.85029297 -84.21199219 35.13808594 -84.22460938 34.40429688 C-84.25395985 23.63267254 -80.78811902 15.73078704 -73.4375 7.9375 C-55.25980915 -9.49932427 -21.19332984 -14.51421983 0 0 Z " fill="#F8F8F8" transform="translate(432,191)"/>
<path d="M0 0 C5.32593942 3.69274769 10.15313908 7.49950915 13.75390625 12.93359375 C14.23859375 13.66449219 14.72328125 14.39539062 15.22265625 15.1484375 C18.58483568 21.20969985 19.21291808 26.75984586 19.25390625 33.55859375 C19.26333252 34.73953613 19.26333252 34.73953613 19.27294922 35.94433594 C18.92914955 51.94604111 9.31507196 66.5116207 -1.24609375 77.93359375 C-12.71861377 88.70575644 -21.95972856 91.44143919 -37.30859375 91.20703125 C-47.48285031 90.82245044 -54.31378851 85.91836168 -62.24609375 79.93359375 C-63.13296875 79.33546875 -64.01984375 78.73734375 -64.93359375 78.12109375 C-72.8143307 70.66634258 -78.2217559 61.03293826 -78.71728516 50.13916016 C-78.97797993 31.31169527 -69.0141919 14.88154646 -56.23828125 1.703125 C-38.73569951 -15.160655 -18.82847278 -11.98587497 0 0 Z " fill="#F9F9F9" transform="translate(2092.24609375,1157.06640625)"/>
<path d="M0 0 C39.6 0 79.2 0 120 0 C119.01 2.31 118.02 4.62 117 7 C116.62691369 8.32276056 116.26953585 9.65232077 116 11 C116.71285156 11.38671875 117.42570312 11.7734375 118.16015625 12.171875 C123.47273812 15.0605467 128.78001147 17.94679916 134 21 C134.72703125 21.36609375 135.4540625 21.7321875 136.203125 22.109375 C138.35501497 23.26808498 140.18515318 24.36254423 142 26 C143.00173079 29.79226657 142.64306259 31.76167001 140.84375 35.2265625 C138.54103387 38.69288518 137.11653979 40.72086505 133 41.75 C129.32508969 40.83127242 127.09445702 39.1843226 124 37 C121.77331047 35.93967165 119.51572132 34.98012104 117.24609375 34.015625 C115.10576721 33.04782518 113.13716572 31.95815024 111.125 30.75 C108.16068652 28.75569832 108.16068652 28.75569832 105 29 C104.13375 30.7634375 104.13375 30.7634375 103.25 32.5625 C101.86424883 35.33891636 100.42579102 38.0623509 98.875 40.75 C97.49478384 43.14237467 96.19385481 45.51280247 95 48 C95.825 48.2475 96.65 48.495 97.5 48.75 C107.6547591 52.37669968 116.80027679 58.46671127 126 64 C125.88637738 65.4800841 125.75877092 66.95910074 125.625 68.4375 C125.52058594 69.67306641 125.52058594 69.67306641 125.4140625 70.93359375 C125.27742188 71.61550781 125.14078125 72.29742187 125 73 C124.01 73.495 124.01 73.495 123 74 C121.9590934 75.64142963 120.95495674 77.30712215 120 79 C111.85239852 78.32103321 111.85239852 78.32103321 108 75 C106.34302621 74.30959426 104.6744239 73.6469365 103 73 C97.97796734 70.57866283 93.04712532 67.99276207 88.125 65.375 C87.01382813 64.78460938 85.90265625 64.19421875 84.7578125 63.5859375 C82 62 82 62 80 60 C78.88625 59.54625 77.7725 59.0925 76.625 58.625 C71.09836066 56.14754098 71.09836066 56.14754098 69 53 C69.25 49.4375 69.25 49.4375 70 46 C70 45.01 70 44.02 70 43 C68.948125 43.680625 68.948125 43.680625 67.875 44.375 C62.40439855 47.46707908 57.35625358 48.3893859 51.125 48.375 C50.38902588 48.37338867 49.65305176 48.37177734 48.89477539 48.37011719 C34.36223737 48.05395661 20.37117697 43.37460828 9.375 33.6875 C0.34405302 23.46827053 0 13.55934025 0 0 Z " fill="#030303" transform="translate(117,0)"/>
<path d="M0 0 C6.76958272 5.67771454 10.67368631 10.75081216 11.49609375 19.6328125 C11.69716897 27.09493749 11.08434658 33.21386654 8.1640625 40.046875 C7.26469195 42.3996926 6.3690434 44.75393536 5.4765625 47.109375 C4.70771954 49.08931571 3.93757775 51.06875496 3.1640625 53.046875 C4.411875 53.44648437 5.6596875 53.84609375 6.9453125 54.2578125 C12.62057235 56.15030707 18.13505177 58.39262856 23.6640625 60.671875 C24.664375 61.07921875 25.6646875 61.4865625 26.6953125 61.90625 C34.03517425 64.91798675 34.03517425 64.91798675 35.1640625 66.046875 C35.6197258 70.98684383 34.52514323 74.01640952 32.2265625 78.359375 C31.68128906 79.40738281 31.13601563 80.45539063 30.57421875 81.53515625 C29.1640625 84.046875 29.1640625 84.046875 28.1640625 85.046875 C21.25461547 84.73978847 15.42259998 81.7873908 9.1640625 79.046875 C7.16582601 78.2093218 5.16584318 77.37592178 3.1640625 76.546875 C1.68679688 75.93005859 1.68679688 75.93005859 0.1796875 75.30078125 C-1.86995517 74.44853346 -3.92214619 73.60239408 -5.9765625 72.76171875 C-14.64623162 69.20018382 -14.64623162 69.20018382 -18.5859375 67.109375 C-23.18502179 64.72787852 -28.05902536 63.04628489 -32.90991211 61.26025391 C-37.98720745 59.38495804 -42.92549651 57.32482326 -47.8359375 55.046875 C-48.79757812 54.62277344 -49.75921875 54.19867187 -50.75 53.76171875 C-51.74773437 53.31957031 -52.74546875 52.87742187 -53.7734375 52.421875 C-54.68996094 52.01710938 -55.60648438 51.61234375 -56.55078125 51.1953125 C-58.8359375 50.046875 -58.8359375 50.046875 -60.8359375 48.046875 C-61.26702416 43.53300362 -60.45138105 40.44115532 -58.60546875 36.34375 C-58.13173828 35.28027344 -57.65800781 34.21679688 -57.16992188 33.12109375 C-56.66783203 32.02410156 -56.16574219 30.92710937 -55.6484375 29.796875 C-55.16568359 28.71535156 -54.68292969 27.63382813 -54.18554688 26.51953125 C-45.47029929 7.1237185 -45.47029929 7.1237185 -40.7734375 2.109375 C-40.12246094 1.39910156 -39.47148438 0.68882812 -38.80078125 -0.04296875 C-28.67511809 -9.8868043 -11.03466811 -7.59963369 0 0 Z " fill="#F9F9F9" transform="translate(1961.8359375,808.953125)"/>
<path d="M0 0 C0.95003906 -0.01417969 1.90007812 -0.02835938 2.87890625 -0.04296875 C5.4375 0.1875 5.4375 0.1875 8.4375 2.1875 C7.72908456 7.83105121 6.56573005 13.28754966 5.2578125 18.8203125 C5.04438202 19.73400604 4.83095154 20.64769958 4.61105347 21.58908081 C3.93101799 24.49755503 3.24686358 27.40504148 2.5625 30.3125 C2.1103968 32.24212185 1.65857138 34.17180881 1.20703125 36.1015625 C0.54904086 38.91313347 -0.10938618 41.72459655 -0.76960754 44.53564453 C-1.94588079 49.54392914 -3.10805151 54.5549861 -4.25390625 59.5703125 C-5.28585333 64.05592992 -6.40686745 68.49896034 -7.625 72.9375 C-8.71023638 76.94547527 -9.76523985 80.93763331 -10.625 85 C-11.3250414 88.20801581 -12.08426905 91.39140101 -12.9375 94.5625 C-13.15148437 95.37460937 -13.36546875 96.18671875 -13.5859375 97.0234375 C-14.79991819 99.71361871 -16.03562082 100.69919134 -18.5625 102.1875 C-21.31261845 102.70023395 -23.79343447 103.01717084 -26.5625 103.1875 C-27.34753906 103.26355469 -28.13257813 103.33960938 -28.94140625 103.41796875 C-30.11509766 103.48951172 -30.11509766 103.48951172 -31.3125 103.5625 C-32.02921875 103.61148438 -32.7459375 103.66046875 -33.484375 103.7109375 C-36.77794692 102.8813536 -37.73572628 100.97788755 -39.5625 98.1875 C-40.6315309 95.77056057 -41.59624068 93.41175193 -42.5 90.9375 C-44.45915561 85.79580495 -46.61332176 81.05413027 -49.40625 76.30078125 C-51.08875866 73.22565562 -52.32535689 70.01432747 -53.5703125 66.7421875 C-56.16764924 60.05455668 -59.24919308 53.63973498 -62.375 47.1875 C-66.02828561 39.60645053 -69.36469324 32.0037169 -72.30859375 24.12109375 C-73.41714478 21.20080207 -73.41714478 21.20080207 -75.1796875 19.05078125 C-77.45893484 15.97959204 -77.24992136 12.93844368 -77.5625 9.1875 C-73.86166112 6.72027408 -70.91470162 6.7845634 -66.625 6.75 C-65.90892578 6.71712891 -65.19285156 6.68425781 -64.45507812 6.65039062 C-60.75487509 6.61266844 -58.97652932 6.80190486 -56.23046875 9.359375 C-54.5829105 12.15289297 -53.12370493 14.90860119 -51.8125 17.875 C-51.38453125 18.82761719 -50.9565625 19.78023437 -50.515625 20.76171875 C-49.5625 23.1875 -49.5625 23.1875 -49.5625 25.1875 C-45.66610437 24.78155385 -41.77004613 24.37252045 -37.87426758 23.96069336 C-35.90137397 23.75277943 -33.92822725 23.5472718 -31.95507812 23.34179688 C-30.08432617 23.14360352 -30.08432617 23.14360352 -28.17578125 22.94140625 C-27.02891846 22.82095947 -25.88205566 22.7005127 -24.70043945 22.57641602 C-21.94625417 22.23506247 -19.27313626 21.77580353 -16.5625 21.1875 C-16.18158203 19.39892578 -16.18158203 19.39892578 -15.79296875 17.57421875 C-15.44589218 16.00768396 -15.09820393 14.44128459 -14.75 12.875 C-14.58435547 12.08931641 -14.41871094 11.30363281 -14.24804688 10.49414062 C-13.9918457 9.3581543 -13.9918457 9.3581543 -13.73046875 8.19921875 C-13.50266724 7.15447388 -13.50266724 7.15447388 -13.27026367 6.08862305 C-12.42954662 3.8303741 -11.39840146 2.72516921 -9.5625 1.1875 C-6.41901805 0.03288773 -3.32734612 0.02263501 0 0 Z " fill="#F8F8F8" transform="translate(175.5625,517.8125)"/>
<path d="M0 0 C3.52285694 3.31890206 4.89484196 6.89729893 6.375 11.4375 C8.50167112 17.68664129 10.95141067 23.70469842 13.59375 29.7578125 C15.13574603 33.31297002 16.58057367 36.89699525 17.99609375 40.50390625 C18.73258808 42.335112 19.50017273 44.15389393 20.28515625 45.96484375 C22.87853698 51.96061902 24.821196 57.57015999 26 64 C26.66 64 27.32 64 28 64 C32.4921875 75.23046875 32.4921875 75.23046875 33.27416992 77.19116211 C33.89593595 78.74066245 34.53066343 80.28495092 35.16796875 81.828125 C36.19265208 84.50288524 36.50882925 86.16509417 36 89 C32.06957094 92.83159816 27.9717453 94.30101866 22.875 95.9375 C17.76268077 97.64980711 12.81534984 99.4307979 7.9375 101.75 C0.74535095 105.0884453 -5.22629411 106.17929036 -13.125 106.3125 C-13.80651123 106.33030518 -14.48802246 106.34811035 -15.19018555 106.36645508 C-21.30924111 106.35676949 -25.13518238 104.86779181 -29.44921875 100.546875 C-38.46554443 89.28040172 -41.03675983 80.42315877 -40 66 C-39.23685135 62.77208746 -38.0296194 60.60551691 -36 58 C-35.45988281 57.27554688 -34.91976562 56.55109375 -34.36328125 55.8046875 C-27.85322393 48.25864856 -18.39062996 44.00257276 -9 41 C-8.01 41 -7.02 41 -6 41 C-6.3853894 40.10075806 -6.3853894 40.10075806 -6.77856445 39.18334961 C-12.73828125 25.27734375 -12.73828125 25.27734375 -13.91015625 22.53027344 C-14.57736724 20.98121997 -15.25467764 19.43640782 -15.94921875 17.89941406 C-17.71226341 13.9766397 -18.75558834 11.12353342 -18.03515625 6.8671875 C-16.09004269 3.35864304 -12.523857 2.29583109 -8.95703125 0.8125 C-5.68726967 -0.08592854 -3.3649285 -0.50997563 0 0 Z " fill="#F9F9F9" transform="translate(235,496)"/>
<path d="M0 0 C1.57926107 0.22812572 3.15860796 0.45565807 4.73803711 0.68261719 C39.44674403 5.71141468 39.44674403 5.71141468 45.5625 7.75 C45.88056054 15.4776932 45.88520836 21.68924474 42.5625 28.75 C34.37986272 28.35712503 26.34702728 27.52614669 18.25 26.3125 C17.42725586 26.19028076 16.60451172 26.06806152 15.75683594 25.94213867 C11.01342787 25.20949064 6.3548516 24.28204702 1.67700195 23.21166992 C-8.58990995 20.97004304 -22.12263479 18.02807534 -32.0625 22.3125 C-36.52527145 26.89271281 -38.55143314 33.04914928 -38.8125 39.375 C-38.7392967 44.93031694 -37.26783078 49.6334467 -33.4375 53.75 C-26.90895119 57.26857709 -20.00818697 57.91889239 -12.734375 58.90625 C-11.40617916 59.09534949 -10.07815776 59.28567791 -8.75030518 59.47717285 C-3.85191133 60.18124711 1.04907219 60.86641407 5.95080566 61.54681396 C10.10872555 62.12411134 14.26501347 62.71113783 18.41951752 63.31254578 C20.36303875 63.58981446 22.3086295 63.85244927 24.25421143 64.11486816 C25.43263611 64.28514526 26.61106079 64.45542236 27.82519531 64.63085938 C28.8633136 64.77503296 29.90143188 64.91920654 30.9710083 65.06774902 C33.77508586 65.80596657 34.87122566 66.42337827 36.5625 68.75 C36.92578125 71.4921875 36.92578125 71.4921875 36.875 74.625 C36.87113281 75.65367187 36.86726563 76.68234375 36.86328125 77.7421875 C36.4443158 81.93184199 35.55607981 84.75642019 32.5625 87.75 C22.16830155 88.09675606 11.39762882 85.54280242 1.1875 83.8125 C-1.9864446 83.27931089 -5.1610154 82.74999111 -8.3359375 82.22265625 C-9.10533157 82.09381546 -9.87472565 81.96497467 -10.66743469 81.83222961 C-16.81697838 80.81604837 -22.97797586 80.01314428 -29.17016602 79.30566406 C-37.16542523 77.94593829 -44.8148033 74.65383154 -50.4375 68.75 C-58.57143929 57.12210053 -60.42810876 43.27894243 -58.0390625 29.44238281 C-55.24340907 17.41569679 -50.20361757 7.37215135 -39.5859375 0.5625 C-28.08898947 -5.63810118 -12.34640805 -1.84183769 0 0 Z " fill="#F9F9F9" transform="translate(408.4375,289.25)"/>
<path d="M0 0 C2.01725623 1.2327677 3.68999898 2.59487511 5.4609375 4.16015625 C6.25628906 4.74152344 7.05164062 5.32289062 7.87109375 5.921875 C18.5395065 13.8547973 29.12307348 26.57827958 31.4609375 40.16015625 C32.22729625 48.02475587 31.08428287 54.15502187 27.4609375 61.16015625 C27.15671875 61.7634375 26.8525 62.36671875 26.5390625 62.98828125 C22.54922691 69.55616445 15.55373949 73.70738276 9.4609375 78.16015625 C7.99154786 79.24653121 6.52282673 80.33381081 5.0546875 81.421875 C1.04319714 84.39026864 -2.97779363 87.34551005 -7.00146484 90.29736328 C-11.33057166 93.47526255 -15.6533337 96.6617679 -19.9765625 99.84765625 C-20.77529785 100.43579102 -21.5740332 101.02392578 -22.39697266 101.62988281 C-23.51724854 102.45504395 -23.51724854 102.45504395 -24.66015625 103.296875 C-25.3142749 103.77858154 -25.96839355 104.26028809 -26.64233398 104.7565918 C-27.99201538 105.7553456 -29.31711045 106.78769656 -30.62402344 107.84179688 C-32.5390625 109.16015625 -32.5390625 109.16015625 -35.05859375 109.1171875 C-38.16750016 107.91768818 -39.27564514 106.52633154 -41.2265625 103.84765625 C-41.80792969 103.06777344 -42.38929687 102.28789063 -42.98828125 101.484375 C-46.61508214 96.04874142 -46.61508214 96.04874142 -46.36328125 93.10546875 C-43.36367939 86.0258397 -33.7281553 81.35895613 -27.6015625 77.04296875 C-22.93244328 73.74616052 -18.32804478 70.36296088 -13.7265625 66.97265625 C-12.95078857 66.40281006 -12.17501465 65.83296387 -11.37573242 65.24584961 C1.23533723 57.04306897 1.23533723 57.04306897 9.4609375 45.16015625 C10.05440631 39.10677442 8.68706441 35.15172069 5.4609375 30.16015625 C1.17877263 25.08917154 -2.80614931 22.4204337 -9.4765625 21.78515625 C-17.34428653 21.68493047 -23.34283845 27.05902362 -29.1015625 31.72265625 C-30.69748437 32.99046757 -32.29515884 34.25607566 -33.89453125 35.51953125 C-34.68005371 36.14021484 -35.46557617 36.76089844 -36.27490234 37.40039062 C-39.96924314 40.27173076 -43.77644271 42.97153783 -47.60473633 45.65991211 C-52.57638667 49.15680273 -57.40159922 52.82666189 -62.2109375 56.54296875 C-64.5390625 58.16015625 -64.5390625 58.16015625 -66.5390625 58.16015625 C-66.5390625 58.82015625 -66.5390625 59.48015625 -66.5390625 60.16015625 C-69.1640625 60.59765625 -69.1640625 60.59765625 -72.5390625 60.16015625 C-74.94523648 58.11750496 -76.7218512 55.72783829 -78.5390625 53.16015625 C-79.1578125 52.29390625 -79.7765625 51.42765625 -80.4140625 50.53515625 C-81.72814933 47.76097295 -81.87936933 46.19993976 -81.5390625 43.16015625 C-80.10888672 41.46606445 -80.10888672 41.46606445 -78.09375 39.9609375 C-77.35390869 39.39697266 -76.61406738 38.83300781 -75.85180664 38.25195312 C-75.04735107 37.66478516 -74.24289551 37.07761719 -73.4140625 36.47265625 C-72.59091553 35.85326172 -71.76776855 35.23386719 -70.91967773 34.59570312 C-68.47332985 32.76408585 -66.01095716 30.95710278 -63.5390625 29.16015625 C-62.90532715 28.69915527 -62.2715918 28.2381543 -61.61865234 27.76318359 C-58.84721911 25.75779931 -56.05926005 23.77733828 -53.26171875 21.80859375 C-47.81111955 17.95774165 -42.4666462 13.95988228 -37.10961914 9.98046875 C-25.78321011 1.59141882 -14.45737518 -4.78205487 0 0 Z " fill="#F8F8F8" transform="translate(2009.5390625,1079.83984375)"/>
<path d="M0 0 C4.26910152 0.85714021 8.34883023 2.22348551 12.42578125 3.734375 C13.16594482 4.00169434 13.9061084 4.26901367 14.66870117 4.54443359 C19.96776653 6.47940491 25.16611414 8.6146131 30.3515625 10.8359375 C34.23012173 12.41311096 38.19320414 13.66708448 42.17578125 14.953125 C46.26441473 16.35859276 50.20151717 18.06828305 54.17578125 19.765625 C57.14578779 20.97219016 60.12577038 21.99947566 63.17578125 22.984375 C68.3309137 24.6533996 73.29267595 26.61657719 78.265625 28.765625 C80.19316224 29.57286207 82.14513256 30.32422725 84.1171875 31.015625 C85.02339844 31.3353125 85.92960937 31.655 86.86328125 31.984375 C87.67152344 32.2525 88.47976562 32.520625 89.3125 32.796875 C91.17578125 33.984375 91.17578125 33.984375 92.1484375 36.3203125 C92.18428455 39.81283922 91.15784413 40.96900793 88.92578125 43.609375 C88.301875 44.36476563 87.67796875 45.12015625 87.03515625 45.8984375 C86.4215625 46.58679688 85.80796875 47.27515625 85.17578125 47.984375 C84.68722656 48.57089844 84.19867187 49.15742187 83.6953125 49.76171875 C82.17578125 50.984375 82.17578125 50.984375 80.265625 51.19921875 C74.83924377 50.49999358 70.37311518 49.00531356 65.4375 46.62890625 C63.21211405 45.75261555 63.21211405 45.75261555 61.24365234 46.70825195 C58.91363146 48.14615268 57.54674365 49.63101242 55.828125 51.7578125 C55.22291016 52.5003125 54.61769531 53.2428125 53.99414062 54.0078125 C53.06311523 55.17183594 53.06311523 55.17183594 52.11328125 56.359375 C51.48873047 57.12765625 50.86417969 57.8959375 50.22070312 58.6875 C48.52680569 60.77730302 46.84057508 62.87131742 45.17578125 64.984375 C44.31581543 66.02489014 44.31581543 66.02489014 43.43847656 67.08642578 C43.02178711 67.71274902 42.60509766 68.33907227 42.17578125 68.984375 C43.3920562 74.01273319 46.88358146 78.08648673 49.8125 82.265625 C51.17578125 84.984375 51.17578125 84.984375 51.09765625 87.53515625 C50.0278177 90.37748156 48.65749691 92.32173358 46.73828125 94.671875 C46.12082031 95.43886719 45.50335937 96.20585938 44.8671875 96.99609375 C41.51585281 100.93565347 41.51585281 100.93565347 38.71679688 101.33666992 C36.17578125 100.984375 36.17578125 100.984375 34.71289062 99.48168945 C34.31908203 98.7774585 33.92527344 98.07322754 33.51953125 97.34765625 C33.0615918 96.55407715 32.60365234 95.76049805 32.13183594 94.94287109 C31.65133789 94.06969238 31.17083984 93.19651367 30.67578125 92.296875 C29.60976003 90.44043644 28.5419973 88.58499701 27.47265625 86.73046875 C26.92673828 85.77253418 26.38082031 84.81459961 25.81835938 83.82763672 C23.28551924 79.44335369 20.60914907 75.15259759 17.92578125 70.859375 C16.84059057 69.11362629 15.75597055 67.36752274 14.671875 65.62109375 C14.11097168 64.71794434 13.55006836 63.81479492 12.97216797 62.88427734 C11.02468624 59.74046272 9.08551988 56.59163882 7.1484375 53.44140625 C6.46225342 52.32564209 5.77606934 51.20987793 5.0690918 50.06030273 C3.69194872 47.81773923 2.31707605 45.57377977 0.94458008 43.32836914 C-2.00409102 38.51373366 -4.96703484 33.72228092 -8.09765625 29.0234375 C-8.57565674 28.29680908 -9.05365723 27.57018066 -9.54614258 26.8215332 C-10.40450657 25.52515502 -11.27809316 24.2386511 -12.1706543 22.96557617 C-14.15965283 19.9426261 -14.82336717 18.08113612 -14.85546875 14.43359375 C-13.64637297 10.38953477 -12.06209998 8.13106291 -9.26171875 4.984375 C-8.43542969 4.015 -7.60914063 3.045625 -6.7578125 2.046875 C-3.82421875 -0.015625 -3.82421875 -0.015625 0 0 Z " fill="#F9F9F9" transform="translate(1970.82421875,739.015625)"/>
<path d="M0 0 C2.5473239 3.73450263 3.82502386 7.95014319 4.5625 12.375 C4 15 4 15 1.9140625 16.5390625 C-1.41187798 18.20649111 -4.57764866 19.10221314 -8.1875 20 C-13.49680269 21.34208996 -18.73959873 22.79282308 -23.94921875 24.484375 C-26 25 -26 25 -30 25 C-29.79503906 25.70125 -29.59007813 26.4025 -29.37890625 27.125 C-27.77632603 32.76853609 -26.55105987 38.15876543 -26 44 C-19.96560683 44.56415028 -15.01721717 42.50575538 -9.4375 40.5 C-7.58454821 39.83667655 -5.72913712 39.18017463 -3.87109375 38.53125 C-3.05568115 38.23798828 -2.24026855 37.94472656 -1.40014648 37.64257812 C1.22214025 36.9405276 3.2988017 36.72223021 6 37 C9.57658489 40.67593447 11.12908901 43.90310505 11.3125 49 C11.36857422 50.0209375 11.36857422 50.0209375 11.42578125 51.0625 C11 53 11 53 9.5625 54.5859375 C5.7894257 56.66803033 1.85249639 57.59093193 -2.3125 58.625 C-3.14201172 58.8415625 -3.97152344 59.058125 -4.82617188 59.28125 C-9.59029826 60.49954278 -14.08215031 61.29745004 -19 62 C-17.02 68.93 -15.04 75.86 -13 83 C-6.44481724 82.18060215 -1.13530774 81.0491222 5.046875 78.98046875 C11.27137421 76.95105253 16.44530657 75.4859064 23 76 C23.68620031 77.32338632 24.34786461 78.65949948 25 80 C25.556875 81.11375 25.556875 81.11375 26.125 82.25 C27.30641152 85.96300763 27.1318343 89.11088818 27 93 C25.96488281 93.25652344 24.92976563 93.51304687 23.86328125 93.77734375 C12.09509266 96.75819006 0.52151748 100.25543264 -11.03393555 103.96459961 C-12.81924683 104.53126343 -12.81924683 104.53126343 -14.640625 105.109375 C-15.69797852 105.44936523 -16.75533203 105.78935547 -17.84472656 106.13964844 C-21.2182071 107.05949875 -24.53245152 107.57324159 -28 108 C-30.82539751 102.00783992 -33.05193345 96.05191556 -34.875 89.6875 C-35.39443827 87.91794145 -35.91397219 86.14841098 -36.43359375 84.37890625 C-36.69382324 83.48445801 -36.95405273 82.59000977 -37.22216797 81.66845703 C-38.44251773 77.48188364 -39.68748913 73.30279932 -40.9375 69.125 C-41.18081055 68.30966797 -41.42412109 67.49433594 -41.67480469 66.65429688 C-43.58018893 60.30631972 -45.59421113 53.99628881 -47.625 47.6875 C-49.65709388 41.33887046 -51.66291558 34.98859687 -53.4375 28.5625 C-53.74558594 27.45003906 -54.05367187 26.33757813 -54.37109375 25.19140625 C-55.0620911 21.68491661 -55.25213623 18.56468469 -55 15 C-49.99315865 10.60004851 -42.49561423 9.83216482 -36.11328125 8.5625 C-33.87576882 7.96693292 -32.05091138 7.06282047 -30 6 C-25.42011513 4.56317337 -20.81533274 3.49789923 -16.11328125 2.5625 C-13.87903825 1.96780316 -12.05320524 1.04960187 -10 0 C-6.35381855 -0.83558325 -3.51653761 -1.40661504 0 0 Z " fill="#F9F9F9" transform="translate(2154,632)"/>
<path d="M0 0 C10.68495809 8.31428593 19.96749108 18.17392077 22 32 C22.75086322 40.83910909 22.75086322 40.83910909 20.85546875 43.76953125 C18.20421726 45.52772961 16.15470271 45.39819634 13 45.375 C11.948125 45.38273437 10.89625 45.39046875 9.8125 45.3984375 C7 45 7 45 5.1875 43.81640625 C3.61998294 41.41872391 3.36890265 39.39459636 3 36.5625 C2.45476826 32.38806951 1.571894 30.29174476 -1 27 C-1 26.01 -1 25.02 -1 24 C-1.639375 23.690625 -2.27875 23.38125 -2.9375 23.0625 C-5 22 -5 22 -6 21 C-10.04801273 20.58680634 -10.04801273 20.58680634 -14 21 C-16.61809836 23.49706224 -16.9912621 24.88837039 -17.27709961 28.54003906 C-17.24966286 29.94891433 -17.20717709 31.35754986 -17.15234375 32.765625 C-17.1241302 34.31119394 -17.09614262 35.85676702 -17.06835938 37.40234375 C-17.0064189 39.8226739 -16.93772754 42.24262768 -16.86303711 44.66259766 C-16.34350561 62.87785617 -16.34350561 62.87785617 -23.5 70.75 C-24.325 71.4925 -25.15 72.235 -26 73 C-26.91265625 73.99 -26.91265625 73.99 -27.84375 75 C-33.00064371 79.78320576 -40.19457484 81.25186851 -47.0625 81.5 C-54.46299617 81.21204295 -60.99722388 79.23544069 -66.4375 74.0625 C-68.64456493 71.42478826 -70.35058743 68.99893195 -72 66 C-72.94746094 64.63875 -72.94746094 64.63875 -73.9140625 63.25 C-79.90052413 53.92277889 -82.74669396 43.03328348 -81 32 C-79.87890625 29.625 -79.87890625 29.625 -78 28 C-74.93359375 27.5390625 -74.93359375 27.5390625 -71.4375 27.625 C-70.28121094 27.63789063 -69.12492187 27.65078125 -67.93359375 27.6640625 C-65 28 -65 28 -63 30 C-62.61074205 32.38456534 -62.31160314 34.78424778 -62.0625 37.1875 C-61.10644356 45.18266367 -59.77866569 51.2355291 -53.6796875 56.89453125 C-50.69921263 58.8560996 -48.40573019 58.63069078 -45 58 C-42.66093491 56.49657108 -42.66093491 56.49657108 -41 54 C-40.70982886 51.3546222 -40.64733396 49.1474288 -40.78515625 46.5234375 C-40.82116601 45.03255696 -40.85696645 43.54167135 -40.89257812 42.05078125 C-40.97292516 39.72047294 -41.06185293 37.39076587 -41.1574707 35.06103516 C-41.57585461 23.99920045 -41.04833008 15.90054015 -33.5703125 7.16015625 C-24.13988462 -0.9295239 -12.20333301 -6.37218374 0 0 Z " fill="#F8F8F8" transform="translate(398,110)"/>
<path d="M0 0 C5.31337005 0.45543172 8.83542042 3.32419646 12.9375 6.5 C13.288125 6.995 13.63875 7.49 14 8 C13.35684756 11.48928678 12.00483389 14.70762524 10.71875 18 C8.58608849 23.93436247 8.02468799 30.01310697 10 36.0625 C10.33 36.701875 10.66 37.34125 11 38 C14.3 38 17.6 38 21 38 C21 37.34 21 36.68 21 36 C21.73605469 35.27296875 22.47210937 34.5459375 23.23046875 33.796875 C26.13729671 30.86134775 28.19524114 27.75721871 30.3125 24.25 C40.50525378 7.97874391 40.50525378 7.97874391 50 5 C50.99 4.67 51.98 4.34 53 4 C62.43599984 2.90778749 71.62082653 5.36223637 79.4375 10.75 C84.09379335 14.56234018 87.10702789 19.32108367 89 25 C89.97578562 40.30863663 88.51330119 54.29974292 79 67 C75.50135525 70.91466294 75.50135525 70.91466294 72.0625 71.5 C67.24039777 70.712718 64.99069436 68.32092582 62.125 64.5 C60.79761203 61.55024896 60.95755914 60.9714938 62 58 C62.95329991 56.28568511 63.95745669 54.5990534 65 52.9375 C68.14221118 47.91449415 69.16955367 44.45302815 69.25 38.5 C69.27578125 37.3553125 69.3015625 36.210625 69.328125 35.03125 C69.25625516 32.03580614 69.25625516 32.03580614 67.671875 30.15625 C65.1786715 28.43197842 62.69745026 27.93599909 59.75 27.3125 C55.32462282 28.12381915 54.99036497 28.76765617 52.5 32.3125 C51.30660904 34.19162563 50.14078599 36.08848164 49 38 C43.39057977 47.2638489 37.51209738 56.77542844 27 61 C23.85548159 61.56750804 20.81438358 61.6207478 17.625 61.5625 C16.78300049 61.55154297 15.94100098 61.54058594 15.07348633 61.52929688 C7.51009878 61.26497113 2.67289229 59.68958726 -2.71875 54.2734375 C-9.4824854 46.21663504 -11.72306858 36.91372049 -11.3828125 26.55859375 C-10.33743061 16.84080903 -7.06130963 7.06130963 0 0 Z " fill="#F9F9F9" transform="translate(1898,886)"/>
<path d="M0 0 C3.76645929 2.41296719 7.63716764 4.91385006 9.90234375 8.859375 C10.33203125 11.796875 10.33203125 11.796875 9.90234375 14.859375 C8.109375 17.23046875 8.109375 17.23046875 5.71484375 19.296875 C4.93753906 19.99683594 4.16023438 20.69679688 3.359375 21.41796875 C0.90234375 22.859375 0.90234375 22.859375 -1.703125 22.75390625 C-4.18593701 21.82639573 -5.38233242 20.97860444 -7.22265625 19.109375 C-12.76543443 14.12087464 -19.56663084 10.6525749 -27.09765625 10.296875 C-29.87901807 10.4909235 -30.86664271 10.69136515 -33.16015625 12.359375 C-34.53192453 16.01742374 -35.03066521 19.07896093 -34.09765625 22.859375 C-30.40127323 29.04441193 -24.22811275 33.27194265 -18.6875 37.6953125 C-12.69322507 42.70410332 -7.7588731 48.33849698 -6.59375 56.3046875 C-6.42319046 67.0158265 -8.70398552 74.58697012 -15.59765625 82.859375 C-24.7345763 90.16891104 -32.73393462 90.83744391 -44.09765625 89.859375 C-53.7995694 88.02981164 -61.59456866 84.14802985 -68.72265625 77.359375 C-70.09765625 74.859375 -70.09765625 74.859375 -70.28515625 71.984375 C-68.59459655 67.53553367 -65.96743981 64.61287484 -62.09765625 61.859375 C-57.8364485 61.43325423 -55.1737623 64.21480023 -51.91015625 66.6484375 C-46.78948265 70.06957719 -40.10671014 70.80691044 -34.09765625 69.859375 C-31.84302376 68.4365486 -31.84302376 68.4365486 -31.09765625 65.859375 C-30.59150644 61.88248362 -30.48211773 59.74864378 -32.79296875 56.41015625 C-35.16758065 53.78198409 -37.62389241 51.66767085 -40.41015625 49.484375 C-49.78261699 41.90903057 -58.06252364 34.17556852 -59.47265625 21.484375 C-59.29859054 12.0326069 -54.65889055 3.24947917 -48.10546875 -3.328125 C-34.39691164 -15.70316489 -14.21989816 -8.06656041 0 0 Z " fill="#F8F8F8" transform="translate(2172.09765625,1193.140625)"/>
<path d="M0 0 C3.12991745 3.12991745 3.15156547 6.32723039 3.1875 10.625 C3.20167969 11.40101563 3.21585937 12.17703125 3.23046875 12.9765625 C3 15 3 15 1 17 C-1.00849212 17.47258638 -3.0326686 17.8796448 -5.0625 18.25 C-12.23413491 19.81457594 -17.75555925 22.45797072 -22.74609375 27.90625 C-24.25549819 30.42662626 -24.28461094 31.6731681 -23.9375 34.5625 C-23.86402344 35.32691406 -23.79054688 36.09132813 -23.71484375 36.87890625 C-22.75943459 39.71380884 -21.57994643 40.54137304 -19 42 C-13.07097316 43.25356567 -7.4394191 41.66360746 -1.75 40 C6.55488815 37.5747067 15.88689488 36.04098268 24.1875 39.3125 C26.59873115 40.75923869 28.13220108 41.96240118 30 44 C30.825 44.45375 31.65 44.9075 32.5 45.375 C35.48367442 47.31438837 36.38591543 48.84200845 38 52 C38.35320312 52.56589844 38.70640625 53.13179687 39.0703125 53.71484375 C42.3760199 59.36690989 42.91981229 64.54291769 42 71 C38.94389216 80.94794288 32.4208965 89.52244375 23.6875 95.125 C22.46192869 95.75702108 21.23237004 96.38134034 20 97 C19.21367187 97.44601562 18.42734375 97.89203125 17.6171875 98.3515625 C12.13092116 101.35474805 8.26746247 102.87964386 2 102 C-0.15918056 100.60698028 -0.73412664 99.65259826 -1.6875 97.3125 C-2.91014269 88.26494408 -2.91014269 88.26494408 -0.84765625 85.3984375 C1.55504227 83.57990458 3.98530334 82.72236067 6.8125 81.6875 C12.21663361 79.48654377 15.61120949 77.80078656 19 73 C19.7374284 69.92152906 19.5317889 68.24391227 19 65 C16.18632321 62.23058329 14.08710084 61.56849017 10.1875 61.5625 C5.38925337 61.67111544 1.22529627 62.66320243 -3.375 64 C-12.19050054 66.49697934 -20.59824268 67.87098429 -29.25 64.125 C-36.07853341 60.1816055 -42.14071449 54.1011894 -45.0625 46.6875 C-47.38712347 37.59742065 -46.93288327 28.87099696 -42.6171875 20.5078125 C-38.3421516 13.878409 -32.95320001 9.53981091 -26 6 C-24.85327338 5.29311373 -23.70744771 4.58476396 -22.5625 3.875 C-15.6235576 -0.03296313 -7.85289918 -0.89898509 0 0 Z " fill="#F9F9F9" transform="translate(292,464)"/>
<path d="M0 0 C1.5480493 2.6825403 1.44355726 4.79767501 1.39453125 7.875 C1.39066406 8.926875 1.38679688 9.97875 1.3828125 11.0625 C1.08203125 13.875 1.08203125 13.875 -0.91796875 16.875 C-2.984375 17.68359375 -2.984375 17.68359375 -5.48046875 18.3125 C-15.54913467 21.13752137 -24.37648647 24.89874866 -29.91796875 34.25 C-32.81424067 44.74898573 -29.42416439 52.49236231 -24.30859375 61.8046875 C-19.69767178 69.44020507 -13.77315375 78.0413408 -4.91796875 80.875 C2.88069934 81.79713981 9.27214214 80.78207179 15.5546875 75.98828125 C21.14635229 71.15566598 25.7932488 65.88213568 30.08203125 59.875 C35.78677146 60.22426981 40.15813175 61.49483312 44.08203125 65.875 C45.01953125 69 45.01953125 69 44.08203125 72.875 C39.59093249 80.93008062 33.51846281 86.58324463 26.08203125 91.875 C25.36273437 92.41898438 24.6434375 92.96296875 23.90234375 93.5234375 C12.83720869 101.50816866 1.4839267 104.40053491 -11.91796875 102.875 C-18.4854037 101.19561306 -23.81805108 97.22163642 -28.91796875 92.875 C-29.55347656 92.33488281 -30.18898438 91.79476562 -30.84375 91.23828125 C-44.07549602 79.01416319 -53.41296504 61.08265692 -54.29296875 43 C-53.99947152 31.86436985 -48.46060259 23.38723549 -40.78125 15.75 C-38.55607846 13.69958015 -36.27576674 11.77087845 -33.91796875 9.875 C-33.25410156 9.3284375 -32.59023437 8.781875 -31.90625 8.21875 C-27.21230832 4.71394021 -22.32205537 2.77039719 -16.79296875 1 C-16.12386475 0.78448486 -15.45476074 0.56896973 -14.76538086 0.34692383 C-9.95923404 -1.08289152 -4.57525504 -2.68365265 0 0 Z " fill="#F8F8F8" transform="translate(2074.91796875,664.125)"/>
<path d="M0 0 C0.78576416 0.20447754 1.57152832 0.40895508 2.38110352 0.61962891 C6.92333289 1.9295732 9.99819171 3.52828697 13.5625 6.75 C14.738125 7.3996875 14.738125 7.3996875 15.9375 8.0625 C24.32260081 13.45292195 27.85610411 20.1254946 30.17138672 29.75048828 C33.32166113 45.85582374 28.67439166 66.47732211 20.4375 80.4375 C14.99050874 88.45732542 8.2367906 95.23626471 -1.1875 98.16796875 C-17.88798518 101.15880083 -35.98879459 98.43016832 -50.125 88.8125 C-52.51271313 86.84113181 -53.45888508 85.70722984 -54.875 82.875 C-54.17431648 77.87011769 -51.21932067 74.9442071 -47.4375 71.75 C-44.5 70.4375 -44.5 70.4375 -41.4375 70.75 C-39.3761638 71.84206961 -37.48860107 73.09256562 -35.55859375 74.40234375 C-28.48056997 78.89943068 -20.66580121 79.63488714 -12.4375 78.75 C-6.26444138 76.6774246 -2.17442324 73.03171435 1.5625 67.75 C2.85339244 64.33241625 2.85339244 64.33241625 3.75 60.6875 C4.07355469 59.47964844 4.39710937 58.27179687 4.73046875 57.02734375 C5.00503906 55.94582031 5.27960938 54.86429688 5.5625 53.75 C5.74047119 53.10732178 5.91844238 52.46464355 6.10180664 51.80249023 C6.91191389 48.19328428 6.78868828 44.55986346 6.8125 40.875 C6.833125 40.08480469 6.85375 39.29460938 6.875 38.48046875 C6.91503785 32.46478151 5.69058598 28.42981197 1.875 23.625 C-4.87122678 18.15508639 -11.52769549 16.5759494 -20.0625 16.625 C-21.0834375 16.61919922 -21.0834375 16.61919922 -22.125 16.61328125 C-25.90707632 16.56594889 -25.90707632 16.56594889 -29.4375 17.75 C-32.375 18.0625 -32.375 18.0625 -35.4375 17.75 C-38.96401806 14.34508601 -39.30849304 10.95406492 -39.8125 6.25 C-39.4375 2.75 -39.4375 2.75 -37.1875 0.375 C-26.95005976 -5.6743965 -10.88693107 -2.86458836 0 0 Z " fill="#F9F9F9" transform="translate(67.4375,516.25)"/>
<path d="M0 0 C7.29739235 0.6486571 13.41283505 4.15740935 19.828125 7.43359375 C23.16873117 9.1256834 26.51184307 10.64183255 30 12 C32.67768041 13.31449765 35.34048656 14.64959489 38 16 C40.3946066 17.21084746 42.79040442 18.41910874 45.1875 19.625 C46.35667969 20.21539062 47.52585937 20.80578125 48.73046875 21.4140625 C50.62251309 22.33182833 52.53495664 23.21331081 54.48828125 23.9921875 C58.3887265 25.55721841 62.08851213 27.52383419 65.828125 29.43359375 C68.38069723 30.72652708 70.91425017 31.96590826 73.57421875 33.0234375 C76.45443242 34.18294381 79.09760841 35.62036129 81.8125 37.125 C82.78832031 37.66382813 83.76414062 38.20265625 84.76953125 38.7578125 C85.50558594 39.16773438 86.24164063 39.57765625 87 40 C86.50838854 46.88256039 85.01451741 52.98548259 80 58 C73.57221126 58.40006984 68.4559727 56.07240146 63 53 C61.75369491 52.36766415 60.50359768 51.74275226 59.25 51.125 C56.88625233 49.94776096 54.52979771 48.75903761 52.1796875 47.5546875 C46.67900826 44.75510906 41.19602744 42.22219922 35.44140625 39.99609375 C29.91927393 37.74306377 24.61802095 34.99392937 19.5 31.9375 C15.23224195 29.43006421 10.61830947 27.74696616 6 26 C5.89042969 26.60328125 5.78085937 27.2065625 5.66796875 27.828125 C5.43013672 29.02695312 5.43013672 29.02695312 5.1875 30.25 C5.03667969 31.03890625 4.88585937 31.8278125 4.73046875 32.640625 C3.91127564 35.28657494 2.68088776 36.81824164 1 39 C0.30383826 40.6040837 -0.34094397 42.23127052 -0.9375 43.875 C-2.58188452 48.06973184 -3.97958315 51.62423999 -7 55 C-12.24973434 56.19312144 -16.60427499 53.71267715 -21 51 C-21.66 50.34 -22.32 49.68 -23 49 C-22.74594481 43.66484101 -20.45279395 39.60110314 -18 35 C-16.99666621 33.00167037 -15.99705919 31.00146771 -15 29 C-14.13181641 27.28103516 -14.13181641 27.28103516 -13.24609375 25.52734375 C-12.64321328 24.33073717 -12.04034883 23.13412252 -11.4375 21.9375 C-11.13392578 21.33873047 -10.83035156 20.73996094 -10.51757812 20.12304688 C-8.84625938 16.79861548 -7.35417104 13.46388816 -6 10 C-5.35209406 8.59536018 -4.68641182 7.19873012 -4 5.8125 C-3.67 5.13832031 -3.34 4.46414063 -3 3.76953125 C-2 2 -2 2 0 0 Z " fill="#F8F8F8" transform="translate(342,369)"/>
<path d="M0 0 C2.52197266 -0.34057617 2.52197266 -0.34057617 5.6640625 -0.29296875 C6.78554687 -0.28330078 7.90703125 -0.27363281 9.0625 -0.26367188 C10.238125 -0.23853516 11.41375 -0.21339844 12.625 -0.1875 C13.80835938 -0.17396484 14.99171875 -0.16042969 16.2109375 -0.14648438 C19.14107539 -0.11103916 22.07031459 -0.06162769 25 0 C24.525625 1.0725 24.05125 2.145 23.5625 3.25 C22.46233668 5.80839865 21.54832997 8.25835017 21 11 C22.06927734 11.58007812 22.06927734 11.58007812 23.16015625 12.171875 C28.47273812 15.0605467 33.78001147 17.94679916 39 21 C39.72703125 21.36609375 40.4540625 21.7321875 41.203125 22.109375 C43.35501497 23.26808498 45.18515318 24.36254423 47 26 C48.00173079 29.79226657 47.64306259 31.76167001 45.84375 35.2265625 C43.54103387 38.69288518 42.11653979 40.72086505 38 41.75 C34.32508969 40.83127242 32.09445702 39.1843226 29 37 C26.77331047 35.93967165 24.51572132 34.98012104 22.24609375 34.015625 C20.10576721 33.04782518 18.13716572 31.95815024 16.125 30.75 C13.16068652 28.75569832 13.16068652 28.75569832 10 29 C9.13375 30.7634375 9.13375 30.7634375 8.25 32.5625 C6.86424883 35.33891636 5.42579102 38.0623509 3.875 40.75 C2.49478384 43.14237467 1.19385481 45.51280247 0 48 C0.825 48.2475 1.65 48.495 2.5 48.75 C12.6547591 52.37669968 21.80027679 58.46671127 31 64 C30.88637738 65.4800841 30.75877092 66.95910074 30.625 68.4375 C30.52058594 69.67306641 30.52058594 69.67306641 30.4140625 70.93359375 C30.27742188 71.61550781 30.14078125 72.29742187 30 73 C29.01 73.495 29.01 73.495 28 74 C26.9590934 75.64142963 25.95495674 77.30712215 25 79 C16.85239852 78.32103321 16.85239852 78.32103321 13 75 C11.34302621 74.30959426 9.6744239 73.6469365 8 73 C2.97796734 70.57866283 -1.95287468 67.99276207 -6.875 65.375 C-7.98617187 64.78460938 -9.09734375 64.19421875 -10.2421875 63.5859375 C-13 62 -13 62 -15 60 C-16.11375 59.54625 -17.2275 59.0925 -18.375 58.625 C-23.90163934 56.14754098 -23.90163934 56.14754098 -26 53 C-25.78571429 46.78571429 -25.78571429 46.78571429 -23 44 C-22.31653318 42.34015202 -21.65411685 40.67163195 -21 39 C-18.15674415 33.10287676 -15.05854286 27.35392364 -11.94140625 21.59765625 C-10.56245212 19.04911056 -9.1971962 16.4937096 -7.83984375 13.93359375 C-7.30182129 12.91954468 -7.30182129 12.91954468 -6.75292969 11.88500977 C-6.05575231 10.56973449 -5.35974162 9.25383996 -4.66503906 7.93725586 C-3.21049718 5.19620184 -1.7233438 2.58501569 0 0 Z " fill="#F8F8F8" transform="translate(212,0)"/>
<path d="M0 0 C2.83542577 5.45445973 5.19473347 10.86939621 7.234375 16.6640625 C7.51726379 17.45976654 7.80015259 18.25547058 8.09161377 19.07528687 C8.6824507 20.74323977 9.27053481 22.41217018 9.85595703 24.08203125 C10.75137854 26.62892106 11.66236283 29.16989247 12.57421875 31.7109375 C13.14939225 33.34080922 13.72364328 34.97100683 14.296875 36.6015625 C14.56868591 37.35482819 14.84049683 38.10809387 15.12054443 38.88418579 C16.57009611 43.07119591 17.30700765 46.50224924 17 51 C10.47366171 55.18698181 3.39884139 57.49576006 -3.90234375 59.9921875 C-5.26671643 60.46467322 -6.63085302 60.93784119 -7.99476624 61.41165161 C-11.57859289 62.65490484 -15.16512819 63.89013958 -18.75244141 65.12329102 C-24.4508302 67.0836641 -30.14502429 69.05620393 -35.83934402 71.02835846 C-37.88683617 71.73682164 -39.93501649 72.44326864 -41.98324585 73.14959717 C-50.1052452 75.9565232 -58.16327889 78.87841783 -66.13891602 82.07861328 C-68.95209111 82.98457137 -71.06899339 83.20049784 -74 83 C-74.64834654 81.730447 -75.29357815 80.45930294 -75.9375 79.1875 C-76.29714844 78.47980469 -76.65679688 77.77210937 -77.02734375 77.04296875 C-79.30148407 72.26636077 -79.07475589 68.15815666 -79 63 C-71.40860828 59.89226209 -63.73859223 57.04305661 -56.01953125 54.26953125 C-54.80730392 53.83364182 -53.5950766 53.39775238 -52.34611511 52.94865417 C-49.79939344 52.0336887 -47.252032 51.12052767 -44.7043457 50.20825195 C-41.45451322 49.04403074 -38.20761008 47.87185108 -34.96127796 46.69791126 C-31.83693744 45.57014891 -28.70926021 44.45175867 -25.58203125 43.33203125 C-24.42459915 42.91226517 -23.26716705 42.49249908 -22.07466125 42.06001282 C-16.69916004 40.14646361 -11.69899498 38.48145356 -6 38 C-6.45439453 36.76697144 -6.45439453 36.76697144 -6.91796875 35.5090332 C-8.0425763 32.44555898 -9.1599027 29.379628 -10.27246094 26.31176758 C-10.75461146 24.9868244 -11.23960534 23.66291223 -11.72753906 22.34008789 C-12.43011153 20.43382239 -13.12223162 18.52403118 -13.8125 16.61328125 C-14.44091797 14.89298706 -14.44091797 14.89298706 -15.08203125 13.13793945 C-15.94214691 10.19776218 -16.28107757 8.0334081 -16 5 C-14.30330134 2.3052433 -12.72048306 1.89979582 -9.6875 0.8125 C-6.30322173 0.06681157 -3.44633662 -0.16811398 0 0 Z " fill="#F9F9F9" transform="translate(1986,1009)"/>
<path d="M0 0 C2.69309835 -0.03091567 5.37105263 0.00078851 8.0625 0.08984375 C8.0625 0.74984375 8.0625 1.40984375 8.0625 2.08984375 C9.114375 2.43015625 9.114375 2.43015625 10.1875 2.77734375 C14.76566281 4.8673746 18.01385863 7.62174583 20.9375 11.71484375 C23.43659194 19.21211956 22.82802515 25.07635206 19.49926758 32.16870117 C13.90845233 43.27191371 7.56512416 51.803904 -2.6875 59.02734375 C-8.42090284 60.90172545 -14.73446958 61.62035582 -20.31640625 58.953125 C-25.20986793 55.4153472 -30.00323117 50.89265023 -31.9375 45.08984375 C-33.07363574 31.95873642 -29.05337605 21.63765638 -20.66845703 11.56542969 C-11.43821098 1.01181503 -11.43821098 1.01181503 -5.0625 0.1484375 C-3.37491618 0.10190486 -1.68743616 0.05161041 0 0 Z " fill="#030303" transform="translate(2067.9375,1167.91015625)"/>
<path d="M0 0 C1.95703125 1.69140625 1.95703125 1.69140625 3.625 3.5 C4.16511719 4.04527344 4.70523438 4.59054688 5.26171875 5.15234375 C9.49127447 10.44797927 9.34595032 16.45109524 9.10546875 22.99609375 C8.45207869 27.7610603 7.19621213 30.34191009 3.625 33.5 C2.67625 34.36625 1.7275 35.2325 0.75 36.125 C-8.38803243 42.0148239 -18.19433641 43.94783198 -28.875 44 C-30.1292981 44.00930542 -30.1292981 44.00930542 -31.40893555 44.01879883 C-37.73176694 43.88882987 -42.6483401 42.8797193 -47.5546875 38.59765625 C-48.39386719 37.59025391 -48.39386719 37.59025391 -49.25 36.5625 C-50.11238281 35.55896484 -50.11238281 35.55896484 -50.9921875 34.53515625 C-54.55635447 29.28958848 -53.77571186 22.58280606 -53.375 16.5 C-51.67395943 9.20982613 -46.44330693 5.40168355 -40.375 1.5 C-29.9878462 -3.39896557 -10.2428635 -6.38448755 0 0 Z " fill="#020202" transform="translate(420.375,208.5)"/>
<path d="M0 0 C7.99720265 -0.18555702 15.993503 -0.32759902 23.99232769 -0.41449738 C27.70684136 -0.45621076 31.41988022 -0.51275646 35.13354492 -0.60351562 C38.71928634 -0.69059759 42.30361202 -0.73830313 45.89032936 -0.75901794 C47.25684722 -0.77377372 48.62328947 -0.80259259 49.9892025 -0.84584045 C60.67564486 -1.17066548 60.67564486 -1.17066548 63.92837524 1.70458984 C65.26229372 3.77789122 66.17591995 5.68122049 67 8 C67.474375 9.216875 67.94875 10.43375 68.4375 11.6875 C68.65921875 12.3371875 68.8809375 12.986875 69.109375 13.65625 C70.71444174 17.88010985 72.79874252 21.89768858 74.79296875 25.94921875 C75.9851577 28.96248597 76.5195152 30.81028838 76 34 C72.37528832 36.41647446 69.28088878 36.66011192 65.0625 37 C64.34642578 37.08894531 63.63035156 37.17789063 62.89257812 37.26953125 C60.78515625 37.4375 60.78515625 37.4375 57 37 C54.00753393 33.62236503 52.38973134 29.94736668 50.8125 25.75 C49.51927322 22.32524528 49.51927322 22.32524528 48 19 C41.5354313 18.76912255 35.32784827 19.36652934 28.9375 20.28857422 C24.23051699 20.9421924 19.73762785 21.08450618 15 21 C15.12375 22.36125 15.12375 22.36125 15.25 23.75 C15.27324954 29.41126313 13.15004945 34.82889567 11 40 C8.0616424 42.9383576 5.23383585 42.94197729 1.17578125 43.1328125 C0.23089844 43.13023438 -0.71398438 43.12765625 -1.6875 43.125 C-3.11642578 43.12886719 -3.11642578 43.12886719 -4.57421875 43.1328125 C-7 43 -7 43 -9 42 C-9.49899078 34.92056833 -7.65781689 28.40659539 -6 21.5625 C-5.71382812 20.35400391 -5.42765625 19.14550781 -5.1328125 17.90039062 C-4.42881435 14.93186508 -3.71768918 11.96523973 -3 9 C-2.34 9 -1.68 9 -1 9 C-0.67 6.03 -0.34 3.06 0 0 Z " fill="#F7F7F7" transform="translate(40,0)"/>
<path d="M0 0 C7.26 0 14.52 0 22 0 C22.268125 2.000625 22.53625 4.00125 22.8125 6.0625 C23.96338934 13.37263158 24.92361663 19.25327463 31.23046875 23.9440918 C39.58378449 28.92865176 48.26334492 28.20401781 57.64453125 27.79492188 C58.67707031 27.76849609 59.70960938 27.74207031 60.7734375 27.71484375 C62.17215088 27.65478149 62.17215088 27.65478149 63.59912109 27.59350586 C66 28 66 28 67.78369141 29.90454102 C70.22621969 34.11253385 70.52765394 38.16317219 70 43 C64.71951856 47.50394005 57.85567922 48.39053891 51.125 48.375 C50.38902588 48.37338867 49.65305176 48.37177734 48.89477539 48.37011719 C34.36223737 48.05395661 20.37117697 43.37460828 9.375 33.6875 C0.35483699 23.48047344 -0.12213406 13.06834442 0 0 Z " fill="#F9F9F9" transform="translate(117,0)"/>
<path d="M0 0 C7.62187674 2.17767907 7.62187674 2.17767907 11 5 C12.40062628 5.83984922 13.8181599 6.65204815 15.25 7.4375 C16.02859375 7.870625 16.8071875 8.30375 17.609375 8.75 C19.96111142 10.01822899 19.96111142 10.01822899 22.328125 11 C23.40320312 11.4640625 23.40320312 11.4640625 24.5 11.9375 C25.1496875 12.19402344 25.799375 12.45054687 26.46875 12.71484375 C28 14 28 14 28.98046875 16.6015625 C29.0078815 21.37138169 27.15267568 24.37184917 24.8125 28.4375 C24.21211914 29.52514648 24.21211914 29.52514648 23.59960938 30.63476562 C22.04809513 33.43352632 20.4552998 36.20759292 18.86108398 38.98217773 C17.3067764 41.68964675 15.81234967 44.38280667 14.4375 47.1875 C13 50 13 50 11.4375 52.0625 C9.79036079 54.2825572 8.98285612 56.42000269 8 59 C5.86695054 63.46001251 3.47867212 67.72642738 1 72 C0.67 72 0.34 72 0 72 C0 48.24 0 24.48 0 0 Z " fill="#F8F8F8" transform="translate(0,492)"/>
<path d="M0 0 C7.31664212 1.97496318 7.31664212 1.97496318 10 6 C11.39563727 14.56480557 8.71566224 21.39616264 5 29 C-2.91909556 26.54234965 -10.41985296 23.33181427 -18 20 C-16.87657583 13.16176593 -13.79446445 7.36113744 -9.625 1.875 C-6.09720021 -0.644857 -4.27114321 -0.57913806 0 0 Z " fill="#0C0C0C" transform="translate(1943,825)"/>
<path d="M0 0 C1.32 0 2.64 0 4 0 C4.48919922 1.39412109 4.48919922 1.39412109 4.98828125 2.81640625 C5.64376953 4.67072266 5.64376953 4.67072266 6.3125 6.5625 C6.5388916 7.20421143 6.7652832 7.84592285 6.99853516 8.50708008 C8.17129289 11.79840836 9.40085066 15.01979305 10.875 18.1875 C12 21 12 21 11 24 C4.91607404 26.63636792 -2.35266223 29.24637583 -9 28 C-13.28690315 24.665742 -15.48139703 21.4410008 -16.2890625 16.08203125 C-16.56109192 12.26646066 -16.3253053 10.47711444 -14.125 7.25 C-10.60056463 4.71240654 -7.17586645 3.26466185 -3.109375 1.796875 C-1.04524698 1.18244255 -1.04524698 1.18244255 0 0 Z " fill="#080808" transform="translate(233,554)"/>
<path d="M0 0 C1.15242187 0.00902344 2.30484375 0.01804687 3.4921875 0.02734375 C4.36101562 0.03894531 5.22984375 0.05054688 6.125 0.0625 C5.66898957 7.24466429 4.32657477 13.94858978 2.58496094 20.90795898 C1.49794956 25.28495761 0.6881702 29.58647015 0.125 34.0625 C-2.13886444 31.79863556 -2.45335469 30.06382514 -3.25 27.0390625 C-3.89994796 24.98360207 -4.74608044 23.21837854 -5.75 21.3125 C-9.07271303 14.92841092 -11.6098789 8.15484558 -12.875 1.0625 C-8.52167264 0.22226812 -4.43057481 -0.04520995 0 0 Z " fill="#0C0C0C" transform="translate(147.875,559.9375)"/>
<path d="M0 0 C2.475 0.495 2.475 0.495 5 1 C5 1.66 5 2.32 5 3 C5.53874756 3.17378174 6.07749512 3.34756348 6.63256836 3.52661133 C12.35297509 5.398957 17.9637378 7.48025136 23.5625 9.6875 C24.38041016 10.00783203 25.19832031 10.32816406 26.04101562 10.65820312 C28.02813622 11.43678254 30.01418427 12.21809845 32 13 C30.17447238 16.8657006 27.7314985 19.98781036 25 23.25 C24.54882812 23.80429687 24.09765625 24.35859375 23.6328125 24.9296875 C22.46926971 26.32731582 21.23905262 27.66885563 20 29 C19.34 29 18.68 29 18 29 C16.76660156 27.30688477 16.76660156 27.30688477 15.390625 24.94140625 C14.88273437 24.07966797 14.37484375 23.21792969 13.8515625 22.33007812 C13.05878906 20.96012695 13.05878906 20.96012695 12.25 19.5625 C8.35817072 12.89847574 4.35832369 6.37098121 0 0 Z " fill="#0A0A0A" transform="translate(1982,763)"/>
<path d="M0 0 C5.94 0 11.88 0 18 0 C15.19232429 8.42302714 11.26301955 12.61473046 3.734375 17.15234375 C2 18 2 18 0 18 C0 12.06 0 6.12 0 0 Z " fill="#F9F9F9" transform="translate(0,0)"/>
<path d="M0 0 C8.25 0 16.5 0 25 0 C22 7 22 7 20 9 C15.76945924 9.55740233 13.50656211 8.41522337 10 6.125 C6.73765332 4.01466949 3.65154036 2.3432452 0 1 C0 0.67 0 0.34 0 0 Z " fill="#F1F1F1" transform="translate(254,0)"/>
<path d="M0 0 C0.66 0.33 1.32 0.66 2 1 C-4.93 7.93 -11.86 14.86 -19 22 C-19.66 21.67 -20.32 21.34 -21 21 C-7.04255319 5.65957447 -7.04255319 5.65957447 0 0 Z " fill="#D5D5D5" transform="translate(2132,824)"/>
<path d="M0 0 C0.66 0.33 1.32 0.66 2 1 C-1.63 4.63 -5.26 8.26 -9 12 C-9 8.26071501 -8.08040398 7.59097747 -5.625 4.875 C-4.99851562 4.17117188 -4.37203125 3.46734375 -3.7265625 2.7421875 C-2 1 -2 1 0 0 Z " fill="#BEBEBE" transform="translate(367,291)"/>
<path d="M0 0 C0.66 0.33 1.32 0.66 2 1 C1.16855469 1.81404297 1.16855469 1.81404297 0.3203125 2.64453125 C-0.76636719 3.71767578 -0.76636719 3.71767578 -1.875 4.8125 C-2.59429687 5.52019531 -3.31359375 6.22789062 -4.0546875 6.95703125 C-6.15358937 9.04399194 -6.15358937 9.04399194 -8 12 C-7.92303847 8.76761586 -7.62561345 6.66772205 -5.375 4.265625 C-3.62229929 2.78148327 -1.84920638 1.36155666 0 0 Z " fill="#393939" transform="translate(275,486)"/>
<path d="M0 0 C1.65 0 3.3 0 5 0 C4.67 0.66 4.34 1.32 4 2 C3.93049459 3.54023996 3.91547643 5.08334988 3.9375 6.625 C3.94652344 7.44226563 3.95554687 8.25953125 3.96484375 9.1015625 C3.97644531 9.72804688 3.98804688 10.35453125 4 11 C3.34 10.67 2.68 10.34 2 10 C1.375 6.9375 1.375 6.9375 1 4 C0.01 4.66 -0.98 5.32 -2 6 C-1.34 4.02 -0.68 2.04 0 0 Z " fill="#353535" transform="translate(25,517)"/>
<path d="M0 0 C0.66 0.33 1.32 0.66 2 1 C-1.3 4.3 -4.6 7.6 -8 11 C-8 7.0234755 -6.61988497 5.9109833 -4 3 C-1.75 1.1875 -1.75 1.1875 0 0 Z " fill="#303030" transform="translate(377,212)"/>
<path d="M0 0 C1.21816406 0.03480469 1.21816406 0.03480469 2.4609375 0.0703125 C3.68683594 0.09738281 3.68683594 0.09738281 4.9375 0.125 C5.87722656 0.15980469 5.87722656 0.15980469 6.8359375 0.1953125 C6.8359375 0.5253125 6.8359375 0.8553125 6.8359375 1.1953125 C4.1959375 1.1953125 1.5559375 1.1953125 -1.1640625 1.1953125 C-1.4321875 1.8140625 -1.7003125 2.4328125 -1.9765625 3.0703125 C-3.1640625 5.1953125 -3.1640625 5.1953125 -6.1640625 7.1953125 C-3.63399175 0.32797759 -3.63399175 0.32797759 0 0 Z " fill="#565656" transform="translate(2143.1640625,1202.8046875)"/>
<path d="M0 0 C0.66 0.33 1.32 0.66 2 1 C-0.64 3.64 -3.28 6.28 -6 9 C-6 6 -6 6 -3.5625 3.375 C-2.716875 2.59125 -1.87125 1.8075 -1 1 C-0.67 0.67 -0.34 0.34 0 0 Z " fill="#3B3B3B" transform="translate(378,310)"/>
<path d="M0 0 C-1.66666667 3.33333333 -3.33333333 6.66666667 -5 10 C-5.33 10 -5.66 10 -6 10 C-5.38909774 3.52443609 -5.38909774 3.52443609 -3.5625 1.0625 C-2 0 -2 0 0 0 Z " fill="#3E3E3E" transform="translate(386,130)"/>
<path d="M0 0 C-1.49097658 3.7952131 -3.75700849 5.61042731 -7 8 C-4.18918919 0 -4.18918919 0 0 0 Z " fill="#3C3C3C" transform="translate(1956,913)"/>
</svg>
