<?xml version="1.0" standalone="no"?>
<!DOCTYPE svg PUBLIC "-//W3C//DTD SVG 20010904//EN"
 "http://www.w3.org/TR/2001/REC-SVG-20010904/DTD/svg10.dtd">
<svg version="1.0" xmlns="http://www.w3.org/2000/svg"
 width="2245.000000pt" height="1587.000000pt" viewBox="0 0 2245.000000 1587.000000"
 preserveAspectRatio="xMidYMid meet">

<g transform="translate(0.000000,1587.000000) scale(0.100000,-0.100000)"
fill="#000000" stroke="none">
<path d="M1120 13929 c-357 -15 -760 -93 -1050 -202 l-65 -24 -3 -415 -2 -416
33 -6 c48 -9 104 -60 140 -130 26 -51 31 -72 31 -131 0 -49 -5 -80 -18 -104
-25 -46 -96 -116 -145 -141 l-41 -20 0 -523 1 -522 20 25 c214 265 414 415
699 525 257 100 555 127 850 79 202 -33 470 -143 643 -264 700 -486 881 -1452
410 -2180 -246 -378 -633 -626 -1088 -695 -143 -21 -367 -19 -507 5 -378 64
-739 272 -969 557 l-59 74 0 -52 0 -52 23 19 22 19 -22 -26 c-23 -25 -23 -29
-23 -320 l0 -295 150 -103 c149 -101 172 -123 162 -150 -3 -8 -74 -115 -159
-238 l-153 -224 2 -492 3 -492 140 -47 c382 -128 723 -182 1145 -183 399 0
719 45 1066 151 925 280 1684 915 2119 1774 194 383 309 758 371 1210 21 158
30 571 15 740 -68 783 -358 1479 -851 2045 -461 529 -1064 907 -1751 1099
-209 58 -518 110 -724 121 -208 11 -254 12 -415 4z m164 -369 c14 -15 286
-827 286 -855 0 -33 -77 -45 -151 -25 -35 10 -38 14 -63 95 l-27 86 -151 -3
-150 -3 -28 -79 c-15 -43 -34 -82 -41 -87 -19 -12 -126 -11 -150 1 -10 6 -19
16 -19 24 0 7 65 197 145 422 104 291 152 414 167 427 19 16 36 18 95 15 47
-2 78 -9 87 -18z m-707 -91 c67 -21 119 -84 147 -179 54 -182 -31 -308 -250
-370 -37 -11 -69 -22 -72 -25 -3 -2 14 -71 37 -151 49 -171 49 -171 -50 -198
-72 -21 -96 -15 -107 27 -5 18 -58 202 -117 410 -96 336 -106 380 -93 393 19
19 264 93 343 103 64 8 111 5 162 -10z m1586 -56 c114 -34 247 -122 247 -164
0 -21 -63 -85 -92 -95 -14 -4 -35 5 -66 27 -93 67 -200 94 -269 68 -73 -27
-139 -131 -169 -267 -43 -193 40 -289 260 -301 95 -6 101 -7 113 -31 17 -33
16 -92 -1 -116 -13 -17 -27 -19 -118 -19 -111 1 -166 14 -271 67 -76 38 -127
85 -162 150 -60 110 -42 298 46 477 62 126 145 198 252 221 53 11 163 3 230
-17z m731 -384 c153 -105 196 -139 196 -156 0 -26 -60 -107 -83 -111 -9 -2
-73 35 -141 82 -69 47 -127 86 -130 86 -4 0 -76 -100 -99 -137 -5 -8 19 -30
70 -64 119 -79 153 -109 153 -131 0 -31 -58 -108 -82 -108 -11 0 -69 34 -129
75 -59 41 -110 75 -113 75 -4 0 -116 -158 -116 -164 0 -2 58 -43 130 -92 99
-68 130 -94 130 -111 0 -26 -60 -107 -82 -111 -9 -2 -107 58 -217 133 -163
111 -201 141 -201 159 0 21 411 636 464 694 11 13 28 21 37 19 10 -3 105 -65
213 -138z m1166 -442 c0 -2 -10 -12 -22 -23 l-23 -19 19 23 c18 21 26 27 26
19z m-50 -40 c0 -2 -10 -12 -22 -23 l-23 -19 19 23 c18 21 26 27 26 19z m-60
-51 c0 -2 -8 -10 -17 -17 -16 -13 -17 -12 -4 4 13 16 21 21 21 13z m-50 -40
c0 -2 -8 -10 -17 -17 -16 -13 -17 -12 -4 4 13 16 21 21 21 13z m-50 -40 c0 -2
-8 -10 -17 -17 -16 -13 -17 -12 -4 4 13 16 21 21 21 13z m-50 -40 c0 -2 -8
-10 -17 -17 -16 -13 -17 -12 -4 4 13 16 21 21 21 13z m-50 -39 c0 -2 -10 -12
-22 -23 l-23 -19 19 23 c18 21 26 27 26 19z m-50 -40 c0 -2 -10 -12 -22 -23
l-23 -19 19 23 c18 21 26 27 26 19z m-60 -51 c0 -2 -8 -10 -17 -17 -16 -13
-17 -12 -4 4 13 16 21 21 21 13z m-50 -40 c0 -2 -8 -10 -17 -17 -16 -13 -17
-12 -4 4 13 16 21 21 21 13z m-50 -40 c0 -2 -8 -10 -17 -17 -16 -13 -17 -12
-4 4 13 16 21 21 21 13z m-50 -40 c0 -2 -8 -10 -17 -17 -16 -13 -17 -12 -4 4
13 16 21 21 21 13z m-50 -39 c0 -2 -10 -12 -22 -23 l-23 -19 19 23 c18 21 26
27 26 19z m-50 -40 c0 -2 -10 -12 -22 -23 l-23 -19 19 23 c18 21 26 27 26 19z
m-60 -51 c0 -2 -8 -10 -17 -17 -16 -13 -17 -12 -4 4 13 16 21 21 21 13z m-50
-40 c0 -2 -8 -10 -17 -17 -16 -13 -17 -12 -4 4 13 16 21 21 21 13z m-50 -40
c0 -2 -8 -10 -17 -17 -16 -13 -17 -12 -4 4 13 16 21 21 21 13z m-50 -40 c0 -2
-8 -10 -17 -17 -16 -13 -17 -12 -4 4 13 16 21 21 21 13z m-50 -39 c0 -2 -10
-12 -22 -23 l-23 -19 19 23 c18 21 26 27 26 19z m-50 -40 c0 -2 -10 -12 -22
-23 l-23 -19 19 23 c18 21 26 27 26 19z m896 -48 c117 -30 226 -198 228 -352
1 -51 -2 -62 -24 -79 -20 -16 -34 -19 -69 -14 -58 8 -71 20 -71 70 0 61 -27
132 -62 161 -37 31 -59 32 -94 2 -26 -23 -28 -30 -35 -143 -12 -180 -26 -230
-81 -281 -70 -66 -210 -93 -294 -58 -113 47 -204 219 -204 384 0 53 4 66 25
87 23 22 31 25 68 19 74 -13 77 -16 77 -103 0 -129 58 -223 129 -207 56 12 65
33 72 179 11 211 56 285 204 332 51 16 76 17 131 3z m-956 -3 c0 -2 -8 -10
-17 -17 -16 -13 -17 -12 -4 4 13 16 21 21 21 13z m-50 -40 c0 -2 -8 -10 -17
-17 -16 -13 -17 -12 -4 4 13 16 21 21 21 13z m-50 -40 c0 -2 -8 -10 -17 -17
-16 -13 -17 -12 -4 4 13 16 21 21 21 13z m-50 -40 c0 -2 -8 -10 -17 -17 -16
-13 -17 -12 -4 4 13 16 21 21 21 13z m-50 -39 c0 -2 -10 -12 -22 -23 l-23 -19
19 23 c18 21 26 27 26 19z m-50 -40 c0 -2 -10 -12 -22 -23 l-23 -19 19 23 c18
21 26 27 26 19z m-50 -40 c0 -2 -10 -12 -22 -23 l-23 -19 19 23 c18 21 26 27
26 19z m-60 -51 c0 -2 -8 -10 -17 -17 -16 -13 -17 -12 -4 4 13 16 21 21 21 13z
m-50 -40 c0 -2 -8 -10 -17 -17 -16 -13 -17 -12 -4 4 13 16 21 21 21 13z m1480
-372 c126 -29 215 -106 262 -223 19 -47 22 -76 23 -181 0 -124 0 -126 -34
-188 -77 -141 -231 -213 -453 -213 -194 0 -331 80 -390 230 -19 47 -22 76 -23
181 0 114 2 130 26 180 52 109 160 184 309 213 99 20 200 20 280 1z m-25 -981
c186 -48 284 -79 293 -90 20 -27 -9 -147 -40 -167 -12 -7 -92 10 -291 62 -151
40 -292 72 -314 72 -31 0 -49 -8 -81 -36 -86 -73 -91 -223 -8 -277 13 -9 149
-50 301 -90 152 -41 283 -81 292 -89 13 -13 13 -24 3 -72 -6 -31 -21 -68 -34
-82 l-22 -26 -289 77 c-159 42 -310 87 -336 100 -127 65 -178 214 -133 394 52
208 179 322 339 303 22 -3 166 -38 320 -79z m-408 -840 c195 -120 358 -225
363 -234 16 -29 -60 -159 -93 -159 -5 0 -141 81 -302 180 -161 99 -296 180
-301 180 -5 0 -40 -53 -79 -116 -38 -64 -77 -120 -86 -124 -22 -12 -123 48
-127 75 -1 11 45 98 108 199 111 181 136 216 153 216 5 0 169 -98 364 -217z
m-914 -601 c11 -10 17 -30 17 -59 0 -67 -11 -80 -77 -87 -69 -8 -155 -47 -183
-83 -28 -36 -26 -78 6 -110 25 -25 29 -25 102 -19 43 3 100 9 128 12 72 9 156
-11 207 -50 58 -44 107 -140 107 -210 0 -131 -122 -255 -293 -300 -90 -23
-127 0 -127 81 0 51 7 58 65 72 116 28 186 102 150 157 -29 44 -53 49 -188 35
-156 -16 -207 -6 -271 50 -84 74 -120 185 -92 283 31 105 170 210 319 240 68
14 104 11 130 -12z m-2187 -222 c165 -42 283 -131 320 -242 36 -110 12 -281
-61 -434 -111 -230 -317 -290 -580 -170 -71 33 -155 101 -155 126 0 18 87 100
106 100 8 0 32 -13 52 -30 54 -43 128 -72 196 -77 54 -4 66 -1 102 22 108 72
184 302 139 421 -32 85 -134 134 -276 134 -88 0 -93 4 -105 79 -7 44 4 67 41
81 36 15 140 10 221 -10z m1637 -14 c13 -13 237 -779 237 -811 0 -25 -39 -42
-190 -85 -277 -78 -398 -47 -460 117 -47 124 -35 214 38 295 43 47 90 73 198
107 l81 26 -38 135 c-22 74 -39 145 -39 157 0 24 22 39 85 59 53 17 71 17 88
0z m-1092 -142 c4 -2 20 -43 36 -89 l27 -85 151 0 151 0 24 77 c14 42 31 82
38 90 16 15 108 18 146 3 14 -5 26 -17 26 -26 0 -32 -292 -839 -307 -851 -22
-17 -141 -17 -172 0 -20 10 -44 72 -162 432 -76 231 -138 427 -136 435 1 8 16
18 32 22 30 7 131 2 146 -8z"/>
<path d="M1140 13191 c-25 -75 -46 -142 -48 -148 -3 -10 20 -13 87 -13 50 0
91 4 91 8 0 6 -75 264 -83 283 -1 3 -22 -56 -47 -130z"/>
<path d="M350 13293 c-30 -9 -57 -17 -58 -19 -3 -2 38 -156 53 -201 3 -9 21
-7 70 6 114 32 149 88 107 171 -30 60 -73 71 -172 43z"/>
<path d="M3865 10849 c-129 -19 -214 -87 -223 -179 -7 -74 5 -117 45 -161 42
-46 107 -69 198 -69 164 0 280 53 314 143 17 45 13 117 -10 165 -27 54 -76 87
-153 101 -67 12 -86 12 -171 0z"/>
<path d="M2070 7849 c-71 -22 -120 -64 -120 -102 0 -41 43 -110 74 -120 34
-11 176 18 176 35 0 19 -55 208 -60 207 -3 0 -34 -9 -70 -20z"/>
<path d="M1220 7895 c0 -3 18 -65 40 -136 22 -72 40 -138 41 -147 0 -16 99
263 99 280 0 5 -40 8 -90 8 -49 0 -90 -2 -90 -5z"/>
<path d="M3 12595 c0 -22 2 -30 4 -17 2 12 2 30 0 40 -3 9 -5 -1 -4 -23z"/>
<path d="M21891 11500 c-587 -69 -1100 -261 -1609 -602 -345 -231 -718 -604
-964 -963 -273 -398 -451 -820 -557 -1320 -77 -362 -87 -862 -25 -1225 44
-260 99 -462 190 -705 219 -580 595 -1106 1080 -1509 241 -200 448 -333 739
-476 459 -226 903 -337 1415 -355 97 -3 201 -3 233 1 l57 7 0 996 0 996 -97
-5 c-389 -20 -795 120 -1085 373 -151 132 -266 264 -341 392 -117 200 -182
372 -217 580 -19 111 -22 154 -17 290 9 258 54 439 163 657 86 172 163 278
304 418 236 236 497 380 822 452 86 19 132 23 285 23 l183 0 0 998 0 997 -202
-1 c-126 -1 -261 -8 -357 -19z m-384 -568 c15 -9 43 -86 43 -117 0 -12 -6 -27
-12 -33 -7 -5 -76 -27 -153 -48 -77 -21 -142 -39 -144 -40 -8 -6 43 -174 53
-174 6 0 68 16 139 37 149 42 150 42 169 -51 16 -73 17 -72 -142 -116 -67 -18
-123 -36 -125 -40 -7 -11 49 -190 59 -190 6 0 74 18 151 40 77 22 147 37 157
34 11 -3 24 -26 33 -56 20 -69 19 -87 -7 -98 -31 -14 -445 -130 -462 -130 -25
0 -36 26 -96 241 -161 576 -164 589 -147 606 8 9 116 44 239 79 258 72 230 66
245 56z m-718 -286 c18 -21 23 -98 9 -125 -9 -18 -27 -28 -63 -36 -109 -24
-204 -98 -225 -173 -23 -88 32 -224 135 -329 89 -91 151 -102 258 -45 46 25
100 75 143 136 18 24 25 27 52 21 39 -8 92 -56 92 -83 0 -56 -121 -178 -239
-241 -167 -89 -306 -73 -438 51 -105 99 -183 243 -204 374 -10 68 -9 87 4 134
22 75 69 144 136 197 124 98 305 162 340 119z m-548 -817 c222 -89 410 -166
417 -172 22 -17 13 -41 -34 -95 -52 -59 -68 -63 -141 -31 -99 43 -82 50 -188
-71 -52 -60 -95 -114 -95 -119 0 -6 18 -40 40 -76 22 -36 40 -74 40 -86 0 -25
-87 -119 -110 -119 -12 0 -37 33 -75 98 -278 472 -395 677 -395 693 0 20 106
139 124 139 7 0 195 -73 417 -161z m-584 -441 c75 -28 147 -96 169 -160 25
-77 16 -163 -30 -267 -20 -46 -35 -85 -34 -86 2 -1 57 -25 123 -54 145 -64
165 -76 165 -101 0 -31 -46 -127 -66 -138 -21 -12 -40 -5 -274 101 -91 41
-239 107 -330 147 -161 70 -200 93 -200 113 0 6 33 83 72 171 61 134 82 170
128 219 82 87 152 101 277 55z m-435 -754 c20 -15 40 -34 43 -44 3 -9 -6 -41
-19 -71 -14 -30 -28 -76 -31 -104 -6 -42 -3 -54 15 -77 23 -30 64 -37 100 -18
11 6 51 58 91 115 104 154 175 196 295 174 184 -34 266 -169 223 -371 -23
-107 -101 -238 -142 -238 -22 0 -95 57 -102 80 -5 15 3 37 29 75 64 96 72 193
19 235 -55 43 -93 22 -168 -94 -101 -156 -150 -191 -270 -191 -69 1 -87 5
-132 29 -61 34 -101 86 -120 158 -17 67 -16 108 2 186 18 74 38 117 73 155 32
34 46 34 94 1z m705 -1116 c15 -19 143 -409 143 -436 0 -17 -10 -27 -37 -39
-63 -26 -759 -253 -777 -253 -21 0 -66 93 -66 136 0 17 6 36 13 41 6 6 157 59
335 117 177 59 322 111 322 115 0 4 -18 61 -40 126 -50 149 -49 164 10 187 54
20 84 22 97 6z m211 -658 c68 -31 172 -143 218 -236 36 -72 39 -84 39 -163 0
-75 -3 -92 -27 -131 -14 -25 -39 -57 -55 -72 -27 -26 -468 -339 -504 -358 -38
-21 -137 109 -113 147 6 10 105 84 220 165 259 182 280 202 289 261 9 60 -8
109 -53 157 -45 46 -107 68 -155 53 -18 -5 -140 -85 -271 -177 -268 -189 -258
-186 -314 -104 -43 63 -46 81 -20 104 21 19 315 227 443 315 105 71 202 84
303 39z m639 -651 c102 -49 182 -124 221 -206 22 -48 27 -72 27 -138 0 -95
-20 -165 -72 -255 -49 -84 -173 -209 -238 -240 -69 -32 -183 -39 -256 -15
-122 41 -234 132 -286 235 -24 48 -27 66 -27 140 1 142 62 269 188 396 141
141 272 165 443 83z m628 -314 c33 -9 88 -29 121 -45 66 -32 144 -107 144
-138 0 -26 -35 -69 -72 -88 -29 -15 -31 -15 -79 26 -126 106 -259 108 -259 3
0 -34 9 -46 103 -138 139 -136 167 -201 133 -317 -35 -121 -121 -188 -242
-188 -113 0 -278 69 -309 131 -15 28 -15 32 4 62 11 18 33 40 48 49 29 17 30
16 74 -13 56 -37 138 -64 173 -55 14 3 33 17 42 31 27 41 10 80 -64 149 -146
135 -173 177 -173 269 0 55 30 148 59 182 73 86 170 112 297 80z"/>
<path d="M19954 9736 c13 -17 49 -76 81 -131 32 -55 60 -102 62 -105 5 -5 97
95 113 122 9 15 5 20 -22 33 -18 8 -83 36 -145 63 l-112 49 23 -31z"/>
<path d="M19488 9187 c-27 -22 -78 -114 -78 -140 0 -11 171 -97 193 -97 2 0
16 26 31 59 45 102 31 161 -47 190 -43 16 -69 13 -99 -12z"/>
<path d="M20540 6037 c-37 -21 -72 -55 -108 -102 -68 -91 -95 -162 -90 -236 5
-68 31 -108 96 -146 56 -33 129 -36 182 -8 55 29 134 118 174 198 58 115 52
201 -21 268 -73 69 -149 77 -233 26z"/>
<path d="M0 8436 c0 -42 2 -76 5 -76 5 0 65 86 65 93 0 3 -16 17 -35 31 l-35
27 0 -75z"/>
</g>
</svg>
