<?xml version="1.0" encoding="UTF-8"?>
<svg version="1.1" xmlns="http://www.w3.org/2000/svg" width="1024" height="1024">
<path d="M0 0 C2.52148488 -0.00299733 5.0429693 -0.00640117 7.56445312 -0.01017761 C13.66571345 -0.01805089 19.76695959 -0.02122948 25.86822452 -0.02178999 C30.83149183 -0.0222678 35.79475599 -0.02433563 40.75802231 -0.02749062 C54.86965658 -0.03627679 68.98128329 -0.04091273 83.09292032 -0.04016014 C84.22980074 -0.04010021 84.22980074 -0.04010021 85.38964844 -0.04003906 C86.14850668 -0.03999818 86.90736492 -0.0399573 87.68921886 -0.03991518 C99.99748978 -0.0395084 112.30573015 -0.04909143 124.61399223 -0.06317743 C137.29104765 -0.07756975 149.96808818 -0.08444617 162.64515197 -0.08358365 C169.74692891 -0.08325286 176.84867374 -0.08594847 183.95044327 -0.0967617 C190.62691339 -0.10686362 197.30330468 -0.1065024 203.9797821 -0.09924507 C206.4217781 -0.09820303 208.86377838 -0.10053942 211.30576706 -0.10660553 C242.04371974 -0.17798561 242.04371974 -0.17798561 255.31982422 5.24291992 C257.71470968 6.23115372 257.71470968 6.23115372 260.34326172 6.57885742 C263.14023174 7.24480266 263.82074406 8.04882193 265.72216797 10.14526367 C267.49768734 11.45903807 269.29120241 12.74866601 271.09716797 14.02026367 C274.99457936 16.83477701 278.49096734 19.56474406 281.72216797 23.14526367 C282.31255859 23.73178711 282.90294922 24.31831055 283.51123047 24.92260742 C296.47320229 38.36001837 302.89594822 56.65750495 302.85588074 75.16412354 C302.85927907 76.33139091 302.85927907 76.33139091 302.86274606 77.52223945 C302.86904615 80.11436964 302.86825927 82.70644701 302.86743164 85.29858398 C302.87042565 87.16351895 302.87382873 89.0284533 302.87760925 90.89338684 C302.88642943 95.94933811 302.88878655 101.00527244 302.88942504 106.06123066 C302.89013673 109.22343687 302.89227332 112.38563879 302.89492226 115.54784393 C302.9041695 126.58959729 302.90825797 137.6313386 302.9074707 148.6730957 C302.90687025 158.9494064 302.91741726 169.22566454 302.93321437 179.50196195 C302.94631097 188.33787318 302.9516537 197.17376728 302.95101529 206.00968814 C302.95076091 211.2810671 302.95357926 216.55239936 302.96419334 221.82376862 C302.97390989 226.78469403 302.97392919 231.74552842 302.96667671 236.70645714 C302.96563525 238.52080863 302.96796757 240.33516589 302.97403717 242.14950752 C303.0482415 265.87959938 297.83520043 285.98897608 281.20751953 303.65112305 C268.03839663 316.89816975 248.59402661 325.01040608 229.95825195 325.36645508 C228.8452623 325.38962799 227.73227264 325.4128009 226.58555603 325.43667603 C224.79499535 325.46645035 224.79499535 325.46645035 222.96826172 325.49682617 C221.09135399 325.53155533 221.09135399 325.53155533 219.17652893 325.56698608 C216.52288816 325.61457846 213.86929314 325.6602386 211.21557617 325.70288086 C207.22603092 325.76748742 203.23684171 325.8473465 199.24755859 325.92651367 C196.65447226 325.97151766 194.06137344 326.01580931 191.46826172 326.05932617 C190.30491806 326.08322418 189.1415744 326.10712219 187.94297791 326.13174438 C177.17903391 326.28823576 166.46729663 325.73628172 155.72216797 325.14526367 C155.72585514 325.98310143 155.72954231 326.82093918 155.73334122 327.68416595 C155.82172764 348.08260474 155.88789483 368.48101046 155.92941666 388.87960052 C155.95003068 398.74426659 155.97812913 408.60880472 156.02392578 418.47338867 C156.06382903 427.07264369 156.08960922 435.67180604 156.09852195 444.27115107 C156.10373079 448.82331471 156.11594927 453.37521329 156.1450882 457.92729187 C156.17231244 462.21514811 156.18059886 466.50263103 156.17459869 470.79056549 C156.1756958 472.36108176 156.18360802 473.93161098 156.19898987 475.50205231 C156.33760864 490.38947465 156.33760864 490.38947465 151.72216797 497.14526367 C147.18672692 500.90871475 143.81642095 501.36620923 137.96826172 501.74291992 C136.79835693 501.8216333 135.62845215 501.90034668 134.4230957 501.98144531 C133.53178955 502.03550537 132.6404834 502.08956543 131.72216797 502.14526367 C131.71852234 503.21886642 131.71487671 504.29246918 131.71112061 505.39860535 C131.67402601 515.56358957 131.61609666 525.7282749 131.53826523 535.89303112 C131.49891643 541.11766421 131.46666649 546.34213192 131.45117188 551.56689453 C131.43592192 556.61809691 131.40133 561.66884426 131.35385895 566.71984291 C131.33913064 568.63769873 131.33113192 570.55561954 131.33028412 572.47353172 C131.31622788 588.3412957 130.03484321 602.1232245 118.72216797 614.29760742 C109.04211903 623.58008292 97.08033885 627.48373051 83.86364746 627.38577271 C82.57932603 627.38833598 82.57932603 627.38833598 81.2690587 627.39095104 C78.4193571 627.3942276 75.56989451 627.38327261 72.72021484 627.37231445 C70.66979986 627.37174994 68.61938447 627.37206768 66.56896973 627.37319946 C61.01586596 627.37377242 55.46284889 627.36202726 49.90976524 627.34805155 C44.10150977 627.33553474 38.29325223 627.33437294 32.48498535 627.33200073 C21.49211639 627.32578877 10.49928729 627.30938175 -0.49356413 627.28930175 C-13.01103917 627.26693396 -25.52851614 627.2559471 -38.0460062 627.24591088 C-63.78997023 627.2250153 -89.53389889 627.1898448 -115.27783203 627.14526367 C-115.25426636 628.22626343 -115.25426636 628.22626343 -115.23022461 629.32910156 C-115.16752717 632.62190782 -115.12873108 635.91458805 -115.09033203 639.20776367 C-115.06519531 640.34149414 -115.04005859 641.47522461 -115.01416016 642.64331055 C-114.94483177 650.56985599 -115.40632323 655.74479272 -120.65283203 661.95776367 C-124.94515329 665.53469806 -128.3906926 666.52801082 -134.01000977 666.46484375 C-138.37488037 665.84974895 -141.90554089 663.54316956 -145.65283203 661.33276367 C-146.94036377 660.60029419 -146.94036377 660.60029419 -148.25390625 659.85302734 C-155.16525201 655.8894839 -161.97654423 651.74719362 -168.71679688 647.49951172 C-172.22733941 645.03306948 -172.22733941 645.03306948 -176.27783203 644.14526367 C-176.27783203 643.48526367 -176.27783203 642.82526367 -176.27783203 642.14526367 C-178.69525756 643.56064753 -181.11188044 644.97736687 -183.52783203 646.39526367 C-184.27838867 646.83547852 -185.02894531 647.27569336 -185.80224609 647.72924805 C-190.11247686 650.26343047 -194.40719197 652.8207893 -198.68408203 655.41088867 C-199.57450195 655.94939453 -200.46492187 656.48790039 -201.38232422 657.04272461 C-203.1192727 658.09489606 -204.85436487 659.15013932 -206.58740234 660.20874023 C-212.90584675 664.03339667 -217.65947514 666.81354059 -225.27783203 666.14526367 C-230.21132418 664.3692065 -233.6065918 661.64767212 -236.27783203 657.14526367 C-239.05418978 650.74570545 -239.48245655 645.93496549 -238.27783203 639.14526367 C-238.24929692 637.72888442 -238.24908641 636.31163867 -238.27783203 634.89526367 C-238.27783203 631.90698084 -238.06900277 629.93908534 -237.27783203 627.14526367 C-238.5091687 627.16097412 -238.5091687 627.16097412 -239.76538086 627.17700195 C-242.86481656 627.21146194 -245.96415333 627.23634397 -249.0637207 627.25512695 C-251.04336099 627.26991285 -253.02291266 627.29534959 -255.00244141 627.32104492 C-277.22525711 627.43356551 -295.43661059 620.23069603 -312.02001953 605.55541992 C-313.27783203 604.14526367 -313.27783203 604.14526367 -313.27783203 602.14526367 C-313.93783203 602.14526367 -314.59783203 602.14526367 -315.27783203 602.14526367 C-316.97963188 600.05491129 -318.54740035 597.97400821 -320.09033203 595.77026367 C-320.54102051 595.12903564 -320.99170898 594.48780762 -321.45605469 593.82714844 C-329.88785127 581.63110245 -335.50717574 567.78619704 -335.34033203 552.77026367 C-335.33130859 551.7106543 -335.32228516 550.65104492 -335.31298828 549.55932617 C-335.30138672 548.76268555 -335.28978516 547.96604492 -335.27783203 547.14526367 C-335.93783203 546.81526367 -336.59783203 546.48526367 -337.27783203 546.14526367 C-336.94783203 545.81526367 -336.61783203 545.48526367 -336.27783203 545.14526367 C-336.17835117 543.0391791 -336.14983566 540.92972135 -336.1484375 538.82128906 C-336.14668518 538.16111282 -336.14493286 537.50093658 -336.14312744 536.820755 C-336.13870924 534.62811694 -336.14164712 532.43555888 -336.14501953 530.24291992 C-336.1443464 528.72456344 -336.1433763 527.20620706 -336.14212036 525.68785095 C-336.14064337 522.5008746 -336.14279769 519.31392623 -336.14746094 516.12695312 C-336.1531534 512.03661651 -336.14988231 507.94634558 -336.14388847 503.85601139 C-336.14027877 500.71882124 -336.14142342 497.58164672 -336.14401627 494.4444561 C-336.14468465 492.93613108 -336.14386018 491.42780466 -336.14153671 489.91948128 C-336.13900403 487.81249346 -336.14285971 485.70561264 -336.1484375 483.59863281 C-336.14923309 482.39807755 -336.15002869 481.19752228 -336.15084839 479.96058655 C-336.08456928 477.19307443 -336.08456928 477.19307443 -337.27783203 475.14526367 C-337.18720996 472.94455017 -337.03086999 470.7464997 -336.84814453 468.55151367 C-336.09848025 458.32911462 -336.1271211 448.1148911 -336.14746094 437.86987305 C-336.15286898 434.62308179 -336.14745848 431.37642601 -336.14111328 428.12963867 C-336.14177338 426.0410967 -336.14305311 423.95255482 -336.14501953 421.86401367 C-336.1429953 420.90555542 -336.14097107 419.94709717 -336.1388855 418.95959473 C-336.15329876 414.80433855 -336.26476579 410.78025845 -336.84863281 406.6628418 C-337.27783203 403.14526367 -337.27783203 403.14526367 -336.27783203 400.14526367 C-336.18668621 397.49885435 -336.15179858 394.87934523 -336.16430664 392.2331543 C-336.16416061 391.42798874 -336.16401459 390.62282318 -336.16386414 389.79325867 C-336.16456126 387.12931634 -336.17234611 384.4654438 -336.18017578 381.80151367 C-336.18204119 379.95210814 -336.18346451 378.10270211 -336.1844635 376.2532959 C-336.18828327 371.38167967 -336.1981063 366.51009322 -336.20916748 361.63848877 C-336.2193772 356.68111573 -336.22396443 351.72373794 -336.22900391 346.76635742 C-336.23858308 338.05650766 -336.25307402 329.34667691 -336.27110291 320.63684082 C-336.27724448 317.45012815 -336.27920899 314.26536545 -336.24267578 311.07885742 C-336.23365234 309.92514648 -336.22462891 308.77143555 -336.21533203 307.58276367 C-336.20373047 306.42647461 -336.19212891 305.27018555 -336.18017578 304.07885742 C-336.07145293 301.21034857 -336.07145293 301.21034857 -337.27783203 299.14526367 C-337.41349359 295.68589386 -337.33102838 292.47447784 -336.77832031 289.05395508 C-336.166372 284.27478799 -336.13457327 279.60599527 -336.14501953 274.79370117 C-336.14406281 273.81664215 -336.14310608 272.83958313 -336.14212036 271.83291626 C-336.14144266 269.77720068 -336.14326824 267.7214829 -336.14746094 265.66577148 C-336.15282656 262.52347004 -336.14749607 259.38131077 -336.14111328 256.23901367 C-336.14177391 254.23640919 -336.14305475 252.2338048 -336.14501953 250.23120117 C-336.1429953 249.29464691 -336.14097107 248.35809265 -336.1388855 247.39315796 C-336.15416411 243.13765002 -336.40675356 239.3202962 -337.27783203 235.14526367 C-336.94783203 234.15526367 -336.61783203 233.16526367 -336.27783203 232.14526367 C-336.19931877 230.31251351 -336.18080231 228.4769459 -336.19604492 226.64257812 C-336.20584129 224.94854607 -336.20584129 224.94854607 -336.21583557 223.22029114 C-336.22727097 221.99541489 -336.23870636 220.77053864 -336.25048828 219.50854492 C-336.26315166 216.90242654 -336.27551131 214.29630667 -336.28759766 211.69018555 C-336.31115535 207.59175078 -336.33954804 203.49337882 -336.3737793 199.39501953 C-336.60892046 170.21324529 -335.9611937 143.42450398 -314.27783203 121.14526367 C-294.05395855 102.60898125 -271.04324063 100.98102877 -244.80908203 101.01245117 C-242.80440255 101.01177547 -240.79972315 101.01080323 -238.79504395 101.009552 C-234.59577656 101.00808214 -230.39653051 101.01020303 -226.19726562 101.01489258 C-220.89814526 101.02053112 -215.59907579 101.01725833 -210.29995728 101.01144028 C-188.60678907 100.99135793 -166.94771509 101.01683162 -145.27783203 102.14526367 C-144.94783203 101.48526367 -144.61783203 100.82526367 -144.27783203 100.14526367 C-144.27783203 100.80526367 -144.27783203 101.46526367 -144.27783203 102.14526367 C-143.74303223 102.07380127 -143.20823242 102.00233887 -142.65722656 101.92871094 C-134.4915275 100.96621089 -126.35844192 101.0328214 -118.15283203 101.08276367 C-116.70491692 101.08779115 -115.25700011 101.09235184 -113.80908203 101.09643555 C-110.29862944 101.10733662 -106.78824196 101.12453165 -103.27783203 101.14526367 C-103.26381348 99.54424805 -103.26381348 99.54424805 -103.24951172 97.91088867 C-103.2089953 93.86980646 -103.14308266 89.82943752 -103.0703125 85.78881836 C-103.04245403 84.05518911 -103.02106907 82.32144113 -103.00683594 80.58764648 C-102.90429349 68.78842882 -101.54662892 58.49328507 -98.27783203 47.14526367 C-97.92403841 45.48282 -97.58166938 43.81755903 -97.27783203 42.14526367 C-96.61783203 42.14526367 -95.95783203 42.14526367 -95.27783203 42.14526367 C-94.88144531 41.05665039 -94.88144531 41.05665039 -94.47705078 39.94604492 C-92.44789668 35.20694559 -89.35040029 31.25884582 -86.27783203 27.14526367 C-85.76349609 26.44916992 -85.24916016 25.75307617 -84.71923828 25.03588867 C-74.44261526 12.22214426 -57.336273 3.58044002 -41.27783203 1.14526367 C-27.55654956 -0.19069931 -13.76978898 -0.00328653 0 0 Z M-60.27783203 45.14526367 C-68.96453823 55.56569918 -71.39431777 66.32136706 -71.4115448 79.73979187 C-71.41381036 80.47234548 -71.41607591 81.20489909 -71.41841012 81.95965129 C-71.42470526 84.39743362 -71.42392365 86.8351597 -71.4230957 89.27294922 C-71.42609005 91.0278887 -71.42949321 92.78282753 -71.43327332 94.5377655 C-71.44209076 99.2942069 -71.44445052 104.0506303 -71.4450891 108.80707908 C-71.44580103 111.78302239 -71.44793809 114.75896116 -71.45058632 117.73490334 C-71.45983317 128.12942418 -71.46392214 138.52393221 -71.46313477 148.91845703 C-71.46253456 158.58694939 -71.47307685 168.25538585 -71.48887843 177.92386407 C-71.50198382 186.24089942 -71.50731739 194.55791656 -71.50667936 202.87496215 C-71.5064252 207.83505934 -71.50923083 212.79510686 -71.51985741 217.75519371 C-71.52958864 222.42474862 -71.52958333 227.09420688 -71.52234077 231.76376534 C-71.52130107 233.46965553 -71.52362101 235.1755519 -71.52970123 236.88143158 C-71.75564713 254.27666065 -71.75564713 254.27666065 -66.40283203 270.58276367 C-65.91041016 271.53022461 -65.41798828 272.47768555 -64.91064453 273.45385742 C-59.22022368 282.83352242 -50.66852888 288.8076459 -40.27783203 292.14526367 C-26.92056612 295.07142976 -12.90476727 294.30914197 0.69067383 294.16015625 C27.01985216 293.89313069 27.01985216 293.89313069 32.72216797 299.14526367 C38.80708089 306.31583758 38.00403854 316.35651418 37.91748047 325.27807617 C37.91465057 326.39592499 37.91182068 327.5137738 37.90890503 328.66549683 C37.89780014 332.20053268 37.87271375 335.7353057 37.84716797 339.27026367 C37.83712564 341.68171832 37.82800199 344.09317698 37.81982422 346.50463867 C37.79789263 352.38493515 37.76451289 358.26508063 37.72216797 364.14526367 C41.8496114 364.14526367 42.7691138 362.52775871 45.72216797 359.70776367 C49.40843942 356.24230049 53.14106035 352.93166932 57.09716797 349.77026367 C61.93699019 345.87074977 66.47295084 341.72230835 70.99780273 337.46850586 C74.87707499 333.84839777 78.9037558 330.5581931 83.21044922 327.44995117 C83.70931641 327.0194043 84.20818359 326.58885742 84.72216797 326.14526367 C84.72216797 325.48526367 84.72216797 324.82526367 84.72216797 324.14526367 C85.27775391 323.90936523 85.83333984 323.6734668 86.40576172 323.43041992 C89.28592388 321.83248847 91.38585873 319.84025867 93.78466797 317.58276367 C98.42649254 313.29324803 103.16433991 309.20155266 108.10498047 305.25463867 C109.77688407 303.90713428 111.42131998 302.52432188 113.02685547 301.09838867 C123.42301521 292.14511231 136.82822786 293.90007821 149.79168129 294.02549934 C153.01830444 294.05596621 156.24474316 294.07255857 159.47148132 294.08555603 C168.63876243 294.12505443 177.8058195 294.19015394 186.97290039 294.26171875 C192.60064641 294.30470183 198.22831757 294.33263085 203.85619164 294.35201836 C205.9854216 294.36250315 208.11463199 294.37880489 210.24376869 294.40132332 C228.17552465 294.5906946 245.89523792 294.21987226 259.83544922 281.29760742 C267.26172139 272.82581453 271.03800608 263.32194409 270.98959351 252.10189819 C270.99639018 250.93062219 270.99639018 250.93062219 271.00332415 249.73568404 C271.01592536 247.13435645 271.01435055 244.53323938 271.01269531 241.93188477 C271.01868338 240.0603407 271.02548956 238.18879911 271.03305054 236.31726074 C271.05069286 231.24257081 271.05540527 226.16794836 271.05668211 221.09323072 C271.05810566 217.91827287 271.06237921 214.74333206 271.06767654 211.56837845 C271.08617341 200.4789242 271.09434789 189.38951799 271.09277344 178.30004883 C271.09157325 167.98508579 271.11265242 157.6703324 271.14426076 147.35542238 C271.17047393 138.48295469 271.18113857 129.61055524 271.17986262 120.73804915 C271.17935432 115.44642935 271.18496387 110.15499579 271.20621872 104.86341476 C271.22568523 99.88105587 271.22566832 94.89905922 271.21118546 89.91668701 C271.20910642 88.09672131 271.21374372 86.27673243 271.22590637 84.45680618 C271.31666329 69.92547988 270.07251537 56.35814003 259.72216797 45.14526367 C251.01093436 37.43608914 240.81954687 32.02707944 229.00184536 32.01662922 C227.61336333 32.01179255 227.61336333 32.01179255 226.19683117 32.00685817 C225.18847951 32.00840677 224.18012786 32.00995537 223.14122009 32.0115509 C221.52430003 32.00815257 221.52430003 32.00815257 219.87471491 32.00468558 C216.25606538 31.99834632 212.63745331 31.99917491 209.01879883 32 C206.4267268 31.99700839 203.83465522 31.99360586 201.24258423 31.98982239 C194.92725995 31.98151848 188.611945 31.97876763 182.29661571 31.97821001 C177.1600132 31.97773454 172.02341375 31.97567821 166.88681221 31.97250938 C152.31269432 31.96370196 137.73858379 31.95908991 123.16446321 31.95983986 C121.98610202 31.95989979 121.98610202 31.95989979 120.78393555 31.95996094 C119.99739787 31.96000182 119.21086018 31.9600427 118.40048803 31.96008482 C105.66660957 31.96049087 92.93276075 31.95093193 80.19889086 31.93682257 C67.11312891 31.92243822 54.0273814 31.91555358 40.94161135 31.91641635 C33.59940214 31.9167477 26.25722396 31.91402786 18.9150219 31.9032383 C12.00478548 31.89314848 5.09461545 31.89348972 -1.81562424 31.90075493 C-4.3471416 31.9017988 -6.87866308 31.89944963 -9.41017342 31.89339447 C-12.87619139 31.88564344 -16.34198529 31.89034009 -19.80799866 31.89802551 C-21.29710356 31.89031017 -21.29710356 31.89031017 -22.81629139 31.88243896 C-36.94310749 31.95126588 -50.2873277 34.40253313 -60.27783203 45.14526367 Z M-274.27783203 134.14526367 C-275.01259766 134.37342773 -275.74736328 134.6015918 -276.50439453 134.83666992 C-287.08908442 138.68094654 -294.94324894 145.21190205 -300.27783203 155.14526367 C-300.67873047 155.8697168 -301.07962891 156.59416992 -301.49267578 157.34057617 C-308.54069187 172.13890176 -305.42345841 193.2828158 -305.4085567 209.25014269 C-305.40626813 212.88674451 -305.40979909 216.52334176 -305.41253662 220.15994263 C-305.41695577 227.25902616 -305.41603539 234.35809906 -305.41312398 241.457183 C-305.41085595 247.22852675 -305.41056346 252.99986755 -305.4116478 258.77121162 C-305.41180103 259.59585408 -305.41195426 260.42049653 -305.41211214 261.27012815 C-305.41243189 262.94582776 -305.41275611 264.62152737 -305.41308473 266.29722697 C-305.4159279 281.96401944 -305.41267015 297.63080603 -305.40728436 313.29759753 C-305.40281154 326.72444295 -305.40359845 340.15127973 -305.40820312 353.578125 C-305.41355941 369.20372505 -305.41565943 384.82931998 -305.41259086 400.45492083 C-305.41227234 402.12195591 -305.41195796 403.78899099 -305.4116478 405.45602608 C-305.41149352 406.27607314 -305.41133925 407.09612019 -305.4111803 407.94101716 C-305.41031874 413.70534324 -305.4117701 419.46966605 -305.41412735 425.23399162 C-305.41693699 432.25824584 -305.41616228 439.28248888 -305.41084661 446.30674183 C-305.40822622 449.88675114 -305.40717636 453.46674186 -305.41049576 457.04675102 C-305.41404471 460.93315023 -305.40979521 464.81951924 -305.40481567 468.70591736 C-305.4070464 469.82858645 -305.40927712 470.95125554 -305.41157544 472.10794491 C-305.39567928 478.51433852 -305.05653544 484.78520171 -304.27783203 491.14526367 C-303.67946533 490.74629883 -303.08109863 490.34733398 -302.46459961 489.9362793 C-300.92745453 488.91163368 -299.38988393 487.88762632 -297.85205078 486.86401367 C-296.2055734 485.76469645 -294.562041 484.66094735 -292.92236328 483.55151367 C-292.17341797 483.04620117 -291.42447266 482.54088867 -290.65283203 482.02026367 C-289.97994141 481.56393555 -289.30705078 481.10760742 -288.61376953 480.63745117 C-275.61527844 472.33406723 -262.59936757 470.92773557 -247.37155151 470.53808594 C-246.00982542 470.49919024 -244.64809958 470.46028549 -243.28637397 470.42137241 C-227.78176919 470.0040782 -212.27519927 470.01625363 -196.76623845 470.0438571 C-192.44634395 470.05036897 -188.12644772 470.05081063 -183.80654907 470.05203247 C-176.36149732 470.0548874 -168.9164558 470.06127185 -161.47140884 470.07009888 C-150.70667627 470.08276837 -139.94194735 470.08875527 -129.17720853 470.09303224 C-111.70114386 470.10005959 -94.22508392 470.11083483 -76.74902344 470.12475586 C-75.70813867 470.12558367 -74.66725389 470.12641148 -73.59482716 470.12726438 C-66.19749537 470.1331713 -58.8001637 470.13921079 -51.40283203 470.14526367 C-42.90039071 470.15220783 -34.39794933 470.1590681 -25.89550781 470.16577148 C-24.84682121 470.16659961 -23.79813461 470.16742774 -22.71766962 470.16828096 C-5.26138317 470.18194365 12.19490337 470.19171164 29.65119374 470.19868183 C40.40080114 470.20316549 51.15039483 470.21121036 61.89999582 470.22382665 C69.23922404 470.23222157 76.57844909 470.23713595 83.9176818 470.23925185 C88.15488654 470.24060214 92.39207355 470.24364506 96.62927246 470.25101089 C100.50041299 470.25771579 104.37152774 470.25990531 108.24267353 470.25837529 C109.64889011 470.25864864 111.05510754 470.26064709 112.46131895 470.26446807 C114.35992749 470.26939141 116.25854991 470.26766405 118.15716362 470.26551819 C119.74443962 470.26690088 119.74443962 470.26690088 121.36378181 470.2683115 C123.67923355 470.41129923 123.67923355 470.41129923 124.72216797 469.14526367 C124.82282112 467.4036275 124.85293363 465.65788509 124.85588074 463.91334534 C124.86014572 462.7789502 124.86441071 461.64455505 124.86880493 460.4757843 C124.86812515 458.5923658 124.86812515 458.5923658 124.86743164 456.67089844 C124.87079025 455.35723297 124.87414886 454.0435675 124.87760925 452.69009399 C124.88646992 449.07649318 124.88878823 445.46291602 124.88942504 441.84930539 C124.89037245 438.83722333 124.8940488 435.82514683 124.89759713 432.8130669 C124.90574956 425.7091967 124.90818065 418.60533918 124.9074707 411.50146484 C124.90686971 404.16298009 124.91742403 396.8245688 124.93321437 389.48610264 C124.94627123 383.19480465 124.95165538 376.90353072 124.95101529 370.61221927 C124.95075976 366.85065599 124.95364142 363.08915795 124.96419334 359.32760811 C124.97563346 355.13469511 124.97113891 350.94194764 124.96508789 346.74902344 C124.9707074 345.49543533 124.9763269 344.24184723 124.9821167 342.95027161 C124.97792221 341.81305664 124.97372772 340.67584167 124.96940613 339.50416565 C124.9699509 338.51177163 124.97049566 337.51937761 124.97105694 336.49691105 C124.95124566 333.9551695 124.95124566 333.9551695 122.72216797 332.14526367 C121.01466817 333.42588852 119.34843201 334.76293924 117.72216797 336.14526367 C117.72216797 336.80526367 117.72216797 337.46526367 117.72216797 338.14526367 C117.12702393 338.42200928 116.53187988 338.69875488 115.91870117 338.98388672 C113.85229525 340.07646124 112.32300044 341.18846362 110.57763672 342.72729492 C109.99087158 343.24050293 109.40410645 343.75371094 108.79956055 344.2824707 C108.175896 344.83531738 107.55223145 345.38816406 106.90966797 345.95776367 C105.56346881 347.13892995 104.21711011 348.31991441 102.87060547 349.50073242 C101.8395166 350.40831299 101.8395166 350.40831299 100.78759766 351.33422852 C98.80849594 353.06956853 96.81902467 354.79186377 94.82373047 356.50854492 C88.95949323 361.55469136 83.14348273 366.63255042 77.47216797 371.89526367 C72.91241929 376.11272559 68.20723007 380.07133115 63.37060547 383.96557617 C60.74941678 386.12283766 58.23062516 388.35837368 55.72216797 390.64526367 C50.54774248 395.35078256 45.1858081 399.78111768 39.72216797 404.14526367 C39.09568359 404.68666992 38.46919922 405.22807617 37.82373047 405.78588867 C33.140981 409.61123331 28.61767601 410.45944435 22.72216797 410.14526367 C17.08663847 409.02601217 13.40979871 406.61511912 9.72216797 402.14526367 C8.02827816 397.06359423 8.3267603 391.71996216 8.15966797 386.39526367 C8.11648438 385.09661377 8.07330078 383.79796387 8.02880859 382.45996094 C7.62434355 369.28608256 7.66163553 356.11187045 7.7590332 342.93334961 C7.76329819 342.1198555 7.76756317 341.30636139 7.7719574 340.46821594 C7.78018059 338.94262198 7.7925664 337.41704233 7.80995178 335.89152527 C7.8276348 332.17554913 7.61719694 328.75753364 6.72216797 325.14526367 C4.86700562 325.1531189 4.86700562 325.1531189 2.97436523 325.16113281 C-1.59707928 325.17917928 -6.16852062 325.19069438 -10.73999023 325.20019531 C-12.72176645 325.20523634 -14.70353892 325.21206905 -16.68530273 325.22070312 C-19.52735312 325.23277882 -22.3693545 325.23849412 -25.21142578 325.24291992 C-26.54892128 325.25066185 -26.54892128 325.25066185 -27.91343689 325.25856018 C-30.03523804 325.25875544 -32.15693983 325.20736397 -34.27783203 325.14526367 C-34.60783203 324.81526367 -34.93783203 324.48526367 -35.27783203 324.14526367 C-38.17665951 323.60116198 -41.08766986 323.18006128 -44.00439453 322.74291992 C-62.56229711 319.35466325 -78.48231197 308.46462071 -89.27783203 293.14526367 C-96.01322932 283.26084947 -99.25025269 271.80384489 -101.27783203 260.14526367 C-101.4527417 259.16306854 -101.62765137 258.18087341 -101.80786133 257.16891479 C-102.53935496 251.94705904 -102.40052067 246.70462466 -102.37548828 241.44262695 C-102.37402802 240.28253616 -102.37256775 239.12244537 -102.37106323 237.92720032 C-102.36726739 235.41726376 -102.36116157 232.90732986 -102.35299683 230.39740372 C-102.34022125 226.4311852 -102.33357041 222.46498258 -102.32885742 218.49874878 C-102.31778701 210.08923861 -102.29821969 201.67975562 -102.27783203 193.27026367 C-102.25580924 184.1700398 -102.23525828 175.0698266 -102.22441387 165.96958148 C-102.21861658 161.38717531 -102.20503041 156.80482705 -102.19018555 152.22244263 C-102.18655569 149.83880658 -102.18320363 147.45517009 -102.18017578 145.0715332 C-102.1724263 143.42431526 -102.1724263 143.42431526 -102.16452026 141.74382019 C-102.16444977 140.75127731 -102.16437927 139.75873444 -102.16430664 138.7361145 C-102.16208603 137.8685811 -102.15986542 137.00104771 -102.15757751 136.10722542 C-102.06059854 134.14165624 -102.06059854 134.14165624 -103.27783203 133.14526367 C-105.4203925 133.04613695 -107.56628365 133.01893995 -109.71113586 133.01828003 C-110.39112127 133.01672004 -111.07110668 133.01516005 -111.7716977 133.01355278 C-114.0671397 133.0095406 -116.36251641 133.0127333 -118.65795898 133.01586914 C-120.29691609 133.01451516 -121.93587288 133.01273524 -123.5748291 133.01055908 C-128.03977964 133.00598331 -132.50470718 133.00777518 -136.96965814 133.01093817 C-141.63498006 133.01346231 -146.30029995 133.01112396 -150.96562195 133.009552 C-158.80496577 133.00772992 -166.64430018 133.01013705 -174.48364258 133.01489258 C-183.55116987 133.02032959 -192.61867465 133.01857678 -201.68620139 133.01306617 C-209.46201785 133.00852935 -217.23782752 133.00788746 -225.01364487 133.01050484 C-229.66168632 133.0120652 -234.30971718 133.01226806 -238.95775795 133.00896835 C-243.33006722 133.00608159 -247.70234749 133.00808021 -252.07465363 133.01386261 C-253.68069345 133.01518612 -255.28673572 133.01480301 -256.89277458 133.01259995 C-259.08307522 133.00987228 -261.27328259 133.0132895 -263.46357727 133.01828003 C-265.30337142 133.01884557 -265.30337142 133.01884557 -267.18033314 133.01942253 C-269.76730305 133.12452257 -271.82683004 133.37949754 -274.27783203 134.14526367 Z M-275.27783203 508.14526367 C-276.07447266 508.55389648 -276.87111328 508.9625293 -277.69189453 509.38354492 C-290.62245542 516.48934851 -298.87454853 527.05525364 -303.18408203 541.09838867 C-305.59495553 552.20109559 -303.87479133 563.73203535 -297.85595703 573.43823242 C-290.49765957 583.54640909 -280.28095235 592.49761891 -267.67138672 594.86547852 C-257.97992547 595.99832374 -248.01189905 595.4171942 -238.27783203 595.14526367 C-236.84675615 590.21679537 -237.09363726 585.30111665 -237.09033203 580.20776367 C-237.07808594 579.2184082 -237.06583984 578.22905273 -237.05322266 577.2097168 C-237.05128906 576.25129883 -237.04935547 575.29288086 -237.04736328 574.30541992 C-237.04325439 573.4353833 -237.03914551 572.56534668 -237.03491211 571.66894531 C-237.30529644 568.8599374 -238.1190194 566.70544447 -239.27783203 564.14526367 C-238.61783203 563.81526367 -237.95783203 563.48526367 -237.27783203 563.14526367 C-237.28830566 562.58129883 -237.2987793 562.01733398 -237.30957031 561.4362793 C-237.35157681 558.83932086 -237.37729805 556.24243428 -237.40283203 553.64526367 C-237.41958984 552.75838867 -237.43634766 551.87151367 -237.45361328 550.95776367 C-237.50291837 544.25227223 -237.16033706 538.17071819 -233.52783203 532.33276367 C-228.13982611 527.09442458 -222.94453049 526.7044647 -215.81933594 526.74121094 C-214.41815269 526.73091606 -214.41815269 526.73091606 -212.98866272 526.72041321 C-209.9104173 526.7021594 -206.83268231 526.70598116 -203.75439453 526.71166992 C-201.60736933 526.70710707 -199.46034559 526.70180119 -197.31332397 526.69578552 C-192.81608137 526.6868569 -188.31901636 526.68927436 -183.82177734 526.69921875 C-178.06951935 526.71070111 -172.3178759 526.6905065 -166.56569862 526.66130161 C-162.13205088 526.6429199 -157.69854981 526.64323616 -153.2648735 526.64893913 C-151.14466872 526.64909214 -149.02445386 526.64306472 -146.90428543 526.63064766 C-143.93417534 526.61570457 -140.96519295 526.62643991 -137.99511719 526.64355469 C-137.12628403 526.63388672 -136.25745087 526.62421875 -135.36228943 526.61425781 C-129.57689633 526.68376838 -125.09642383 527.84135312 -120.27783203 531.14526367 C-116.55020287 535.83486165 -116.16814046 540.83644965 -116.07250977 546.66992188 C-116.05256454 547.75066483 -116.03261932 548.83140778 -116.0120697 549.94490051 C-115.98700096 551.677967 -115.98700096 551.677967 -115.96142578 553.44604492 C-115.94064468 554.63755661 -115.91986359 555.8290683 -115.89845276 557.0566864 C-115.83315024 560.85698771 -115.77416185 564.65735719 -115.71533203 568.45776367 C-115.67212848 571.03654672 -115.6285136 573.61532291 -115.58447266 576.1940918 C-115.47748859 582.51107734 -115.37568648 588.82813047 -115.27783203 595.14526367 C-88.39204291 595.23867109 -61.50627808 595.30922533 -34.62035942 595.35251236 C-22.13698785 595.37314476 -9.65371705 595.40127846 2.82958984 595.44702148 C13.708999 595.48686831 24.58833518 595.51269155 35.46781528 595.52161765 C41.22937927 595.52683601 46.99073447 595.53911542 52.7522316 595.5681839 C58.17437326 595.59531878 63.59621997 595.60371247 69.01842308 595.5976944 C71.00903997 595.59879549 72.99966664 595.60676071 74.99022484 595.62208557 C77.70788611 595.64198322 80.42443338 595.63720365 83.14212036 595.62628174 C83.93006961 595.6379331 84.71801886 595.64958447 85.52984536 595.66158891 C90.69880719 595.60542779 93.59982564 594.52479597 97.72216797 591.14526367 C103.55191052 582.88574065 100.87017133 567.30790042 100.85498047 557.41479492 C100.85565583 555.84632858 100.85662779 554.27786235 100.85787964 552.70939636 C100.85934089 549.45290105 100.85725004 546.19643346 100.85253906 542.93994141 C100.84679012 538.76251222 100.85016295 534.58514657 100.85611153 530.40771961 C100.85971543 527.18305476 100.85858025 523.95840515 100.85598373 520.73373985 C100.85531668 519.19192179 100.85613515 517.65010235 100.85846329 516.1082859 C100.86099261 513.96668404 100.85714768 511.82518771 100.8515625 509.68359375 C100.85076691 508.46593826 100.84997131 507.24828278 100.84915161 505.99372864 C100.9180935 503.19800126 100.9180935 503.19800126 99.72216797 501.14526367 C55.26218134 501.07654396 10.80220034 501.02370768 -33.65782896 500.99206768 C-38.91096484 500.98831572 -44.16410061 500.98443274 -49.41723633 500.98046875 C-50.46300746 500.97968182 -51.50877859 500.97889489 -52.58623975 500.97808411 C-69.50225556 500.9650428 -86.41824067 500.94139599 -103.3342383 500.91380528 C-120.7014694 500.88571559 -138.06868446 500.86907988 -155.43593735 500.86299819 C-166.14585765 500.85888914 -176.85569118 500.84592759 -187.56558477 500.82151427 C-194.91736878 500.80561307 -202.26910815 500.80087321 -209.62090809 500.80475954 C-213.8576583 500.80667428 -218.09425723 500.80381272 -222.3309803 500.78764725 C-226.21958349 500.77291939 -230.1079354 500.77239366 -233.99655079 500.78256699 C-235.39385256 500.78382209 -236.79117079 500.78012634 -238.18844075 500.77061412 C-250.97420743 500.68872432 -263.87010659 501.93250613 -275.27783203 508.14526367 Z M-206.27783203 558.14526367 C-206.27783203 579.92526367 -206.27783203 601.70526367 -206.27783203 624.14526367 C-202.93449621 622.80792934 -200.28619653 621.67373346 -197.28173828 619.86791992 C-196.55792969 619.43672852 -195.83412109 619.00553711 -195.08837891 618.5612793 C-194.34652344 618.11461914 -193.60466797 617.66795898 -192.84033203 617.20776367 C-178.34866936 608.51276607 -178.34866936 608.51276607 -174.21533203 609.45776367 C-167.58559185 611.22267744 -161.95607697 615.43851841 -156.27783203 619.14526367 C-155.28783203 619.64026367 -155.28783203 619.64026367 -154.27783203 620.14526367 C-153.45283203 620.66088867 -152.62783203 621.17651367 -151.77783203 621.70776367 C-149.4694996 623.31142071 -149.4694996 623.31142071 -147.27783203 623.14526367 C-147.27783203 601.36526367 -147.27783203 579.58526367 -147.27783203 557.14526367 C-156.08470703 557.12463867 -164.89158203 557.10401367 -173.96533203 557.08276367 C-176.7389917 557.07365967 -179.51265137 557.06455566 -182.37036133 557.05517578 C-184.57259065 557.05225474 -186.77482052 557.04970662 -188.97705078 557.04760742 C-190.11742798 557.04249146 -191.25780518 557.03737549 -192.43273926 557.03210449 C-194.07635437 557.03192322 -194.07635437 557.03192322 -195.75317383 557.03173828 C-196.70137497 557.02951767 -197.64957611 557.02729706 -198.62651062 557.02500916 C-201.69304459 557.09701941 -201.69304459 557.09701941 -206.27783203 558.14526367 Z " fill="#000000" transform="translate(545.27783203125,181.854736328125)"/>
<path d="M0 0 C4.3278511 3.47186789 8.42386743 7.18516404 12.46875 10.98046875 C15.55894889 9.95040245 16.63553183 8.84318662 18.8359375 6.5703125 C30.17221588 -4.46764276 43.60443479 -11.12102136 59.46875 -12.01953125 C60.18675781 -12.06078125 60.90476562 -12.10203125 61.64453125 -12.14453125 C78.41204479 -12.62105028 93.8090614 -6.2118876 106.10595703 4.99511719 C113.1351069 11.72981763 117.44494088 19.18470509 121.46875 27.98046875 C121.83742188 28.73070312 122.20609375 29.4809375 122.5859375 30.25390625 C128.19125199 42.90590182 125.50743535 59.31629848 121.46875 72.10546875 C114.93041781 88.31361984 102.01534195 100.00186503 89.84375 112.06640625 C88.0460624 113.86170503 86.24911857 115.65774886 84.45288086 117.45449829 C80.71385148 121.19042065 76.96848959 124.91986256 73.21728516 128.64355469 C68.88069855 132.94845302 64.55489616 137.263957 60.23485565 141.5854553 C56.06005324 145.76147601 51.87947009 149.93166477 47.69586182 154.09886551 C45.92116268 155.86719006 44.14768129 157.6367376 42.37542725 159.40751266 C39.91283431 161.86579506 37.44378877 164.31739583 34.97265625 166.76708984 C34.23814743 167.50250504 33.50363861 168.23792023 32.74687195 168.99562073 C32.07702774 169.65693497 31.40718353 170.31824921 30.71704102 170.99960327 C29.84330589 171.86831086 29.84330589 171.86831086 28.95191956 172.7545681 C27.46875 173.98046875 27.46875 173.98046875 25.46875 173.98046875 C25.46875 174.64046875 25.46875 175.30046875 25.46875 175.98046875 C20.13253803 179.44179543 14.65542949 180.0465587 8.46875 178.98046875 C2.94000688 176.21837824 -1.03403253 172.89293129 -5.33691406 168.49951172 C-5.97685303 167.85840454 -6.61679199 167.21729736 -7.27612305 166.5567627 C-9.37344583 164.45229674 -11.46004693 162.33752477 -13.546875 160.22265625 C-15.00868825 158.75270032 -16.47124462 157.28348306 -17.93450928 155.81497192 C-21.77356611 151.95884319 -25.60395381 148.0942232 -29.43212891 144.22729492 C-35.57107379 138.02901499 -41.72287482 131.8434999 -47.87517548 125.6584816 C-50.02225834 123.49743303 -52.16548612 121.33261848 -54.3081665 119.16720581 C-55.61974997 117.84560101 -56.93141156 116.52407374 -58.24316406 115.20263672 C-58.83852966 114.59896271 -59.43389526 113.9952887 -60.04730225 113.37332153 C-62.44694226 110.96074806 -64.69019982 108.8745022 -67.53125 106.98046875 C-68.45937654 105.96746928 -69.35294259 104.92222286 -70.21875 103.85546875 C-74.35952896 98.90925148 -78.94886322 94.40562534 -83.6484375 89.9921875 C-85.50881453 88.00444025 -86.43368176 86.44655304 -87.53125 83.98046875 C-87.99402344 83.11292969 -88.45679688 82.24539063 -88.93359375 81.3515625 C-97.08822201 65.76854514 -99.86745514 49.22333262 -95.17675781 32.01855469 C-89.93037057 15.4539402 -79.104632 2.94243216 -63.94921875 -5.44921875 C-42.86220774 -15.8846649 -18.93130809 -13.92188728 0 0 Z M-60.53125 31.98046875 C-66.56315457 39.78805758 -66.54538903 48.5704287 -65.53125 57.98046875 C-62.52292452 71.53772503 -46.68498732 82.96008493 -37.21484375 92.39453125 C-35.74775086 93.85975521 -34.28088145 95.32520297 -32.81422424 96.79086304 C-28.98442715 100.61687229 -25.15163486 104.43986688 -21.31817627 108.26220703 C-17.39452217 112.17556604 -13.47375613 116.09181631 -9.55273438 120.0078125 C-1.88170436 127.66817117 5.79249814 135.32534301 13.46875 142.98046875 C18.28487088 138.95337122 22.85840151 134.75561908 27.31860352 130.33935547 C27.96347717 129.70426559 28.60835083 129.06917572 29.27276611 128.4148407 C31.38419 126.33308325 33.49155948 124.24730245 35.59765625 122.16015625 C36.68556615 121.08210409 36.68556615 121.08210409 37.79545403 119.9822731 C41.63135038 116.17883933 45.46325195 112.37142397 49.29272461 108.56152344 C52.44545294 105.42660943 55.60647211 102.30043455 58.77514648 99.18164062 C62.62220714 95.39503982 66.45408542 91.59367212 70.27586174 87.78155899 C71.72546191 86.34046572 73.18015295 84.90447301 74.64019966 83.47396469 C87.96347176 70.77290155 87.96347176 70.77290155 94.1953125 53.84375 C93.88229226 42.90008086 91.8922409 35.80710253 84.41015625 27.7109375 C81.13868228 24.79491543 76.97983661 21.98046875 72.46875 21.98046875 C71.47875 21.32046875 70.48875 20.66046875 69.46875 19.98046875 C59.11455288 18.87621227 49.88655685 20.27641389 41.6484375 26.84375 C35.80383883 32.57313257 30.76117761 39.37257333 26.37890625 46.26953125 C23.68304358 50.09556129 20.84226259 51.52810153 16.46875 52.98046875 C11.19587733 53.61684993 7.837446 53.01180883 3.46875 49.98046875 C-0.13308368 45.98762181 -3.28223193 41.64747505 -6.50390625 37.34765625 C-12.9158331 29.01087661 -19.84923448 21.98334666 -30.53125 19.98046875 C-43.09901218 18.55048299 -52.20719795 22.55145404 -60.53125 31.98046875 Z " fill="#000000" transform="translate(632.53125,276.01953125)"/>
<path d="M0 0 C0.33 0.66 0.66 1.32 1 2 C0.34 1.67 -0.32 1.34 -1 1 C-0.67 0.67 -0.34 0.34 0 0 Z " fill="#100F0D" transform="translate(306,818)"/>
<path d="M0 0 C0.66 0.66 1.32 1.32 2 2 C1.34 2 0.68 2 0 2 C0 1.34 0 0.68 0 0 Z " fill="#110F10" transform="translate(243,798)"/>
<path d="" fill="#0D0E0C" transform="translate(0,0)"/>
<path d="M0 0 C3 1 3 1 3 1 Z " fill="#141412" transform="translate(406,706)"/>
<path d="M0 0 C3 1 3 1 3 1 Z " fill="#0D0E0C" transform="translate(702,508)"/>
<path d="" fill="#171515" transform="translate(0,0)"/>
<path d="M0 0 C0.66 0.66 1.32 1.32 2 2 C1.34 2 0.68 2 0 2 C0 1.34 0 0.68 0 0 Z " fill="#171516" transform="translate(634,452)"/>
<path d="" fill="#0E0E0F" transform="translate(0,0)"/>
<path d="M0 0 C0.66 0 1.32 0 2 0 C1.67 0.66 1.34 1.32 1 2 C0.67 1.34 0.34 0.68 0 0 Z " fill="#0F0D0E" transform="translate(440,316)"/>
<path d="M0 0 C2 1 2 1 2 1 Z " fill="#121110" transform="translate(403,846)"/>
<path d="" fill="#0F100F" transform="translate(0,0)"/>
<path d="" fill="#0F0D0D" transform="translate(0,0)"/>
<path d="" fill="#131312" transform="translate(0,0)"/>
<path d="" fill="#0D0D0C" transform="translate(0,0)"/>
<path d="" fill="#111110" transform="translate(0,0)"/>
<path d="" fill="#0E0F0E" transform="translate(0,0)"/>
<path d="M0 0 C2 1 2 1 2 1 Z " fill="#161616" transform="translate(559,591)"/>
<path d="" fill="#0E0E0D" transform="translate(0,0)"/>
<path d="" fill="#0E0D0E" transform="translate(0,0)"/>
<path d="M0 0 C2 1 2 1 2 1 Z " fill="#0E0F0E" transform="translate(732,508)"/>
<path d="" fill="#191A1B" transform="translate(0,0)"/>
<path d="" fill="#141314" transform="translate(0,0)"/>
<path d="" fill="#151415" transform="translate(0,0)"/>
<path d="" fill="#111110" transform="translate(0,0)"/>
<path d="" fill="#111010" transform="translate(0,0)"/>
<path d="" fill="#141214" transform="translate(0,0)"/>
<path d="M0 0 C2 1 2 1 2 1 Z " fill="#131111" transform="translate(703,407)"/>
<path d="" fill="#0E0E0D" transform="translate(0,0)"/>
<path d="M0 0 C2 1 2 1 2 1 Z " fill="#131314" transform="translate(544,361)"/>
<path d="" fill="#0D0C0C" transform="translate(0,0)"/>
<path d="" fill="#151314" transform="translate(0,0)"/>
<path d="M0 0 C2 1 2 1 2 1 Z " fill="#181919" transform="translate(264,283)"/>
<path d="" fill="#161513" transform="translate(0,0)"/>
<path d="" fill="#141213" transform="translate(0,0)"/>
<path d="M0 0 C2 1 2 1 2 1 Z " fill="#0E0E0D" transform="translate(680,215)"/>
<path d="M0 0 C2 1 2 1 2 1 Z " fill="#0E0F0E" transform="translate(572,215)"/>
<path d="M0 0 C2 1 2 1 2 1 Z " fill="#151516" transform="translate(481,189)"/>
<path d="" fill="#0E100E" transform="translate(0,0)"/>
<path d="" fill="#0F0D10" transform="translate(0,0)"/>
<path d="" fill="#10100F" transform="translate(0,0)"/>
<path d="" fill="#0E1111" transform="translate(0,0)"/>
<path d="" fill="#11100E" transform="translate(0,0)"/>
<path d="" fill="#100F0F" transform="translate(0,0)"/>
<path d="" fill="#0E090D" transform="translate(0,0)"/>
<path d="" fill="#110D10" transform="translate(0,0)"/>
<path d="" fill="#0E0F0E" transform="translate(0,0)"/>
<path d="" fill="#0D0C0F" transform="translate(0,0)"/>
<path d="" fill="#0F0D0D" transform="translate(0,0)"/>
<path d="" fill="#0E0E0E" transform="translate(0,0)"/>
<path d="" fill="#100E0D" transform="translate(0,0)"/>
<path d="" fill="#0D0D0D" transform="translate(0,0)"/>
<path d="" fill="#0E0F0E" transform="translate(0,0)"/>
<path d="" fill="#110F0F" transform="translate(0,0)"/>
<path d="" fill="#0D0D0B" transform="translate(0,0)"/>
<path d="" fill="#0E0D0E" transform="translate(0,0)"/>
<path d="" fill="#0F0E0D" transform="translate(0,0)"/>
<path d="" fill="#0F0E0E" transform="translate(0,0)"/>
<path d="" fill="#0D0C0D" transform="translate(0,0)"/>
<path d="" fill="#10100E" transform="translate(0,0)"/>
<path d="" fill="#0C0D0E" transform="translate(0,0)"/>
<path d="" fill="#10100F" transform="translate(0,0)"/>
<path d="" fill="#171512" transform="translate(0,0)"/>
<path d="" fill="#141415" transform="translate(0,0)"/>
<path d="" fill="#131312" transform="translate(0,0)"/>
<path d="" fill="#0E0D0C" transform="translate(0,0)"/>
<path d="" fill="#0D0E0E" transform="translate(0,0)"/>
<path d="" fill="#111214" transform="translate(0,0)"/>
<path d="" fill="#0F0F10" transform="translate(0,0)"/>
<path d="" fill="#111211" transform="translate(0,0)"/>
<path d="" fill="#0E0E0C" transform="translate(0,0)"/>
<path d="" fill="#0C0E0D" transform="translate(0,0)"/>
<path d="" fill="#121313" transform="translate(0,0)"/>
<path d="" fill="#0D0E0E" transform="translate(0,0)"/>
<path d="" fill="#0E0D0D" transform="translate(0,0)"/>
<path d="" fill="#0E0E0C" transform="translate(0,0)"/>
<path d="" fill="#130F10" transform="translate(0,0)"/>
<path d="" fill="#0E0F0C" transform="translate(0,0)"/>
<path d="" fill="#0F0F10" transform="translate(0,0)"/>
<path d="" fill="#120F10" transform="translate(0,0)"/>
<path d="" fill="#131214" transform="translate(0,0)"/>
<path d="" fill="#0F0D10" transform="translate(0,0)"/>
<path d="" fill="#11110F" transform="translate(0,0)"/>
<path d="" fill="#0E100D" transform="translate(0,0)"/>
<path d="" fill="#0E0E0E" transform="translate(0,0)"/>
<path d="" fill="#0E1010" transform="translate(0,0)"/>
<path d="" fill="#131310" transform="translate(0,0)"/>
<path d="" fill="#120F0F" transform="translate(0,0)"/>
<path d="" fill="#0E0E0D" transform="translate(0,0)"/>
<path d="" fill="#0C0F0E" transform="translate(0,0)"/>
<path d="" fill="#0E100E" transform="translate(0,0)"/>
<path d="" fill="#0F0D0E" transform="translate(0,0)"/>
<path d="" fill="#0E0E10" transform="translate(0,0)"/>
<path d="" fill="#100D0F" transform="translate(0,0)"/>
<path d="" fill="#121113" transform="translate(0,0)"/>
<path d="" fill="#0F110F" transform="translate(0,0)"/>
<path d="" fill="#121110" transform="translate(0,0)"/>
<path d="" fill="#121212" transform="translate(0,0)"/>
<path d="" fill="#0E100F" transform="translate(0,0)"/>
<path d="" fill="#0F0F0F" transform="translate(0,0)"/>
<path d="" fill="#141210" transform="translate(0,0)"/>
<path d="" fill="#121012" transform="translate(0,0)"/>
<path d="" fill="#0F0D0E" transform="translate(0,0)"/>
<path d="" fill="#151412" transform="translate(0,0)"/>
<path d="" fill="#0E0F0E" transform="translate(0,0)"/>
<path d="" fill="#0F0D0D" transform="translate(0,0)"/>
<path d="" fill="#141415" transform="translate(0,0)"/>
<path d="" fill="#161715" transform="translate(0,0)"/>
<path d="" fill="#171514" transform="translate(0,0)"/>
<path d="" fill="#101111" transform="translate(0,0)"/>
<path d="" fill="#121314" transform="translate(0,0)"/>
<path d="" fill="#131211" transform="translate(0,0)"/>
<path d="" fill="#141410" transform="translate(0,0)"/>
<path d="" fill="#141314" transform="translate(0,0)"/>
<path d="" fill="#101012" transform="translate(0,0)"/>
<path d="" fill="#121214" transform="translate(0,0)"/>
<path d="" fill="#0D0C0F" transform="translate(0,0)"/>
<path d="" fill="#131111" transform="translate(0,0)"/>
<path d="" fill="#131114" transform="translate(0,0)"/>
<path d="" fill="#111214" transform="translate(0,0)"/>
<path d="" fill="#141110" transform="translate(0,0)"/>
<path d="" fill="#131413" transform="translate(0,0)"/>
<path d="" fill="#101112" transform="translate(0,0)"/>
<path d="" fill="#131315" transform="translate(0,0)"/>
<path d="" fill="#131513" transform="translate(0,0)"/>
<path d="" fill="#131214" transform="translate(0,0)"/>
<path d="" fill="#151416" transform="translate(0,0)"/>
<path d="" fill="#151415" transform="translate(0,0)"/>
<path d="" fill="#161817" transform="translate(0,0)"/>
<path d="" fill="#141515" transform="translate(0,0)"/>
<path d="" fill="#141413" transform="translate(0,0)"/>
<path d="" fill="#131617" transform="translate(0,0)"/>
<path d="" fill="#121211" transform="translate(0,0)"/>
<path d="" fill="#131611" transform="translate(0,0)"/>
<path d="" fill="#121110" transform="translate(0,0)"/>
<path d="" fill="#121011" transform="translate(0,0)"/>
<path d="" fill="#121414" transform="translate(0,0)"/>
<path d="" fill="#111112" transform="translate(0,0)"/>
<path d="" fill="#131412" transform="translate(0,0)"/>
<path d="" fill="#151713" transform="translate(0,0)"/>
<path d="" fill="#161516" transform="translate(0,0)"/>
<path d="" fill="#191A1A" transform="translate(0,0)"/>
<path d="" fill="#1A191A" transform="translate(0,0)"/>
<path d="" fill="#1A1815" transform="translate(0,0)"/>
<path d="" fill="#1A1918" transform="translate(0,0)"/>
<path d="" fill="#181C1B" transform="translate(0,0)"/>
<path d="" fill="#1A1719" transform="translate(0,0)"/>
<path d="" fill="#191E1C" transform="translate(0,0)"/>
<path d="" fill="#1A1A18" transform="translate(0,0)"/>
<path d="" fill="#191B1C" transform="translate(0,0)"/>
<path d="" fill="#19171A" transform="translate(0,0)"/>
<path d="" fill="#171718" transform="translate(0,0)"/>
<path d="" fill="#1A191A" transform="translate(0,0)"/>
<path d="" fill="#110F11" transform="translate(0,0)"/>
<path d="" fill="#191718" transform="translate(0,0)"/>
<path d="" fill="#10120D" transform="translate(0,0)"/>
<path d="" fill="#1D1C1D" transform="translate(0,0)"/>
<path d="" fill="#0F1010" transform="translate(0,0)"/>
<path d="" fill="#161717" transform="translate(0,0)"/>
<path d="" fill="#181516" transform="translate(0,0)"/>
<path d="" fill="#0F100E" transform="translate(0,0)"/>
<path d="" fill="#10110E" transform="translate(0,0)"/>
<path d="" fill="#100E11" transform="translate(0,0)"/>
<path d="" fill="#0E0E0D" transform="translate(0,0)"/>
<path d="" fill="#0C0B0C" transform="translate(0,0)"/>
<path d="" fill="#1C1C1A" transform="translate(0,0)"/>
<path d="" fill="#100F0E" transform="translate(0,0)"/>
<path d="" fill="#0F1111" transform="translate(0,0)"/>
<path d="" fill="#0E0C0C" transform="translate(0,0)"/>
<path d="" fill="#10110F" transform="translate(0,0)"/>
<path d="" fill="#1D1C1D" transform="translate(0,0)"/>
<path d="" fill="#0C0E0D" transform="translate(0,0)"/>
<path d="" fill="#0B0E0D" transform="translate(0,0)"/>
<path d="" fill="#101010" transform="translate(0,0)"/>
<path d="" fill="#110E11" transform="translate(0,0)"/>
<path d="" fill="#0E0E0F" transform="translate(0,0)"/>
<path d="" fill="#0C110E" transform="translate(0,0)"/>
<path d="" fill="#10110F" transform="translate(0,0)"/>
<path d="" fill="#141314" transform="translate(0,0)"/>
<path d="" fill="#111311" transform="translate(0,0)"/>
<path d="" fill="#101012" transform="translate(0,0)"/>
<path d="" fill="#161514" transform="translate(0,0)"/>
<path d="" fill="#141211" transform="translate(0,0)"/>
<path d="" fill="#111312" transform="translate(0,0)"/>
<path d="" fill="#151111" transform="translate(0,0)"/>
<path d="" fill="#121310" transform="translate(0,0)"/>
<path d="" fill="#161415" transform="translate(0,0)"/>
<path d="" fill="#131211" transform="translate(0,0)"/>
<path d="" fill="#0F0F0F" transform="translate(0,0)"/>
<path d="" fill="#15120E" transform="translate(0,0)"/>
<path d="" fill="#141413" transform="translate(0,0)"/>
<path d="" fill="#141213" transform="translate(0,0)"/>
<path d="" fill="#151517" transform="translate(0,0)"/>
<path d="" fill="#121312" transform="translate(0,0)"/>
<path d="" fill="#141416" transform="translate(0,0)"/>
<path d="" fill="#161815" transform="translate(0,0)"/>
<path d="" fill="#1A1B1C" transform="translate(0,0)"/>
<path d="" fill="#1A1C1A" transform="translate(0,0)"/>
<path d="" fill="#191A1B" transform="translate(0,0)"/>
<path d="" fill="#1B1A19" transform="translate(0,0)"/>
<path d="" fill="#151718" transform="translate(0,0)"/>
<path d="" fill="#171519" transform="translate(0,0)"/>
<path d="" fill="#181918" transform="translate(0,0)"/>
<path d="" fill="#171716" transform="translate(0,0)"/>
<path d="" fill="#171616" transform="translate(0,0)"/>
<path d="" fill="#151716" transform="translate(0,0)"/>
<path d="" fill="#171416" transform="translate(0,0)"/>
<path d="" fill="#151515" transform="translate(0,0)"/>
<path d="" fill="#161819" transform="translate(0,0)"/>
<path d="" fill="#131413" transform="translate(0,0)"/>
<path d="" fill="#171314" transform="translate(0,0)"/>
<path d="" fill="#131512" transform="translate(0,0)"/>
<path d="" fill="#141416" transform="translate(0,0)"/>
<path d="" fill="#151615" transform="translate(0,0)"/>
<path d="" fill="#141415" transform="translate(0,0)"/>
<path d="" fill="#121215" transform="translate(0,0)"/>
<path d="" fill="#131212" transform="translate(0,0)"/>
<path d="" fill="#141114" transform="translate(0,0)"/>
<path d="" fill="#171214" transform="translate(0,0)"/>
<path d="" fill="#101311" transform="translate(0,0)"/>
<path d="" fill="#110F10" transform="translate(0,0)"/>
<path d="" fill="#101112" transform="translate(0,0)"/>
<path d="" fill="#121113" transform="translate(0,0)"/>
<path d="" fill="#111312" transform="translate(0,0)"/>
<path d="" fill="#0E1011" transform="translate(0,0)"/>
<path d="" fill="#101210" transform="translate(0,0)"/>
<path d="" fill="#131011" transform="translate(0,0)"/>
<path d="" fill="#0F1210" transform="translate(0,0)"/>
<path d="" fill="#111214" transform="translate(0,0)"/>
<path d="" fill="#130F0F" transform="translate(0,0)"/>
<path d="" fill="#0E0E0E" transform="translate(0,0)"/>
<path d="" fill="#110F11" transform="translate(0,0)"/>
<path d="" fill="#100F0C" transform="translate(0,0)"/>
<path d="" fill="#120F11" transform="translate(0,0)"/>
<path d="" fill="#100F11" transform="translate(0,0)"/>
<path d="" fill="#121212" transform="translate(0,0)"/>
<path d="" fill="#10100E" transform="translate(0,0)"/>
<path d="" fill="#0D0F0E" transform="translate(0,0)"/>
<path d="" fill="#111112" transform="translate(0,0)"/>
<path d="" fill="#131111" transform="translate(0,0)"/>
<path d="" fill="#12110F" transform="translate(0,0)"/>
<path d="" fill="#110F11" transform="translate(0,0)"/>
<path d="" fill="#110D10" transform="translate(0,0)"/>
<path d="" fill="#161515" transform="translate(0,0)"/>
<path d="" fill="#0D100D" transform="translate(0,0)"/>
<path d="" fill="#151313" transform="translate(0,0)"/>
<path d="" fill="#121312" transform="translate(0,0)"/>
<path d="" fill="#141112" transform="translate(0,0)"/>
<path d="" fill="#110F10" transform="translate(0,0)"/>
<path d="" fill="#151413" transform="translate(0,0)"/>
<path d="" fill="#171313" transform="translate(0,0)"/>
<path d="" fill="#0D0E0D" transform="translate(0,0)"/>
<path d="" fill="#110E11" transform="translate(0,0)"/>
<path d="" fill="#131313" transform="translate(0,0)"/>
<path d="" fill="#131213" transform="translate(0,0)"/>
<path d="" fill="#0F0F0C" transform="translate(0,0)"/>
<path d="" fill="#141012" transform="translate(0,0)"/>
<path d="" fill="#151516" transform="translate(0,0)"/>
<path d="" fill="#0E0F0E" transform="translate(0,0)"/>
<path d="" fill="#100D10" transform="translate(0,0)"/>
<path d="" fill="#121514" transform="translate(0,0)"/>
<path d="" fill="#101012" transform="translate(0,0)"/>
<path d="" fill="#0D0D0D" transform="translate(0,0)"/>
<path d="" fill="#131315" transform="translate(0,0)"/>
<path d="" fill="#181819" transform="translate(0,0)"/>
<path d="" fill="#110E10" transform="translate(0,0)"/>
<path d="" fill="#171313" transform="translate(0,0)"/>
<path d="" fill="#0D0F0D" transform="translate(0,0)"/>
<path d="" fill="#141013" transform="translate(0,0)"/>
<path d="" fill="#151113" transform="translate(0,0)"/>
<path d="" fill="#141413" transform="translate(0,0)"/>
<path d="" fill="#0F0F0D" transform="translate(0,0)"/>
<path d="" fill="#141413" transform="translate(0,0)"/>
<path d="" fill="#0B0F0E" transform="translate(0,0)"/>
<path d="" fill="#151111" transform="translate(0,0)"/>
<path d="" fill="#0E0D0F" transform="translate(0,0)"/>
<path d="" fill="#110D11" transform="translate(0,0)"/>
<path d="" fill="#111312" transform="translate(0,0)"/>
<path d="" fill="#191818" transform="translate(0,0)"/>
<path d="" fill="#161818" transform="translate(0,0)"/>
<path d="" fill="#131111" transform="translate(0,0)"/>
<path d="" fill="#131311" transform="translate(0,0)"/>
<path d="" fill="#101112" transform="translate(0,0)"/>
<path d="" fill="#101114" transform="translate(0,0)"/>
<path d="" fill="#111211" transform="translate(0,0)"/>
<path d="" fill="#111112" transform="translate(0,0)"/>
<path d="" fill="#111312" transform="translate(0,0)"/>
<path d="" fill="#101212" transform="translate(0,0)"/>
<path d="" fill="#101210" transform="translate(0,0)"/>
<path d="" fill="#121113" transform="translate(0,0)"/>
<path d="" fill="#131411" transform="translate(0,0)"/>
<path d="" fill="#131312" transform="translate(0,0)"/>
<path d="" fill="#0E120E" transform="translate(0,0)"/>
<path d="" fill="#121211" transform="translate(0,0)"/>
<path d="" fill="#141313" transform="translate(0,0)"/>
<path d="" fill="#111111" transform="translate(0,0)"/>
<path d="" fill="#111112" transform="translate(0,0)"/>
<path d="" fill="#121212" transform="translate(0,0)"/>
<path d="" fill="#151213" transform="translate(0,0)"/>
<path d="" fill="#121012" transform="translate(0,0)"/>
<path d="" fill="#141213" transform="translate(0,0)"/>
<path d="" fill="#141411" transform="translate(0,0)"/>
<path d="" fill="#181112" transform="translate(0,0)"/>
<path d="" fill="#141011" transform="translate(0,0)"/>
<path d="" fill="#171712" transform="translate(0,0)"/>
<path d="" fill="#121311" transform="translate(0,0)"/>
<path d="" fill="#101112" transform="translate(0,0)"/>
<path d="" fill="#161316" transform="translate(0,0)"/>
<path d="" fill="#161315" transform="translate(0,0)"/>
<path d="" fill="#161311" transform="translate(0,0)"/>
<path d="" fill="#171614" transform="translate(0,0)"/>
<path d="" fill="#151515" transform="translate(0,0)"/>
<path d="" fill="#121313" transform="translate(0,0)"/>
<path d="" fill="#181917" transform="translate(0,0)"/>
<path d="" fill="#181617" transform="translate(0,0)"/>
<path d="" fill="#1C1919" transform="translate(0,0)"/>
<path d="" fill="#151111" transform="translate(0,0)"/>
<path d="" fill="#101111" transform="translate(0,0)"/>
<path d="" fill="#0E1010" transform="translate(0,0)"/>
<path d="" fill="#1B1916" transform="translate(0,0)"/>
<path d="" fill="#1B1819" transform="translate(0,0)"/>
<path d="" fill="#1A1819" transform="translate(0,0)"/>
<path d="" fill="#100F0F" transform="translate(0,0)"/>
<path d="" fill="#161412" transform="translate(0,0)"/>
<path d="" fill="#111010" transform="translate(0,0)"/>
<path d="" fill="#131111" transform="translate(0,0)"/>
<path d="" fill="#161210" transform="translate(0,0)"/>
<path d="" fill="#101010" transform="translate(0,0)"/>
<path d="" fill="#141211" transform="translate(0,0)"/>
<path d="" fill="#111011" transform="translate(0,0)"/>
<path d="" fill="#151314" transform="translate(0,0)"/>
<path d="" fill="#131514" transform="translate(0,0)"/>
<path d="" fill="#101011" transform="translate(0,0)"/>
<path d="" fill="#161315" transform="translate(0,0)"/>
<path d="" fill="#101110" transform="translate(0,0)"/>
<path d="" fill="#131212" transform="translate(0,0)"/>
<path d="" fill="#111312" transform="translate(0,0)"/>
<path d="" fill="#121313" transform="translate(0,0)"/>
<path d="" fill="#141214" transform="translate(0,0)"/>
<path d="" fill="#151715" transform="translate(0,0)"/>
<path d="" fill="#161313" transform="translate(0,0)"/>
<path d="" fill="#141213" transform="translate(0,0)"/>
<path d="" fill="#171718" transform="translate(0,0)"/>
<path d="" fill="#161313" transform="translate(0,0)"/>
<path d="" fill="#141214" transform="translate(0,0)"/>
<path d="" fill="#161614" transform="translate(0,0)"/>
<path d="" fill="#151315" transform="translate(0,0)"/>
<path d="" fill="#161413" transform="translate(0,0)"/>
<path d="" fill="#131412" transform="translate(0,0)"/>
<path d="" fill="#151513" transform="translate(0,0)"/>
<path d="" fill="#0F1110" transform="translate(0,0)"/>
<path d="" fill="#101113" transform="translate(0,0)"/>
<path d="" fill="#100D12" transform="translate(0,0)"/>
<path d="" fill="#0E0F0F" transform="translate(0,0)"/>
<path d="" fill="#0D0D0E" transform="translate(0,0)"/>
<path d="" fill="#0E100F" transform="translate(0,0)"/>
<path d="" fill="#120F10" transform="translate(0,0)"/>
<path d="" fill="#0F0F0C" transform="translate(0,0)"/>
<path d="" fill="#0F1011" transform="translate(0,0)"/>
<path d="" fill="#0E100F" transform="translate(0,0)"/>
<path d="" fill="#0E0F0F" transform="translate(0,0)"/>
<path d="" fill="#0F0E0E" transform="translate(0,0)"/>
<path d="" fill="#110F12" transform="translate(0,0)"/>
<path d="" fill="#151515" transform="translate(0,0)"/>
<path d="" fill="#101312" transform="translate(0,0)"/>
<path d="" fill="#171516" transform="translate(0,0)"/>
<path d="" fill="#1A1A1B" transform="translate(0,0)"/>
<path d="" fill="#141413" transform="translate(0,0)"/>
<path d="" fill="#131412" transform="translate(0,0)"/>
<path d="" fill="#161514" transform="translate(0,0)"/>
<path d="" fill="#141414" transform="translate(0,0)"/>
<path d="" fill="#161313" transform="translate(0,0)"/>
<path d="" fill="#161413" transform="translate(0,0)"/>
<path d="" fill="#141313" transform="translate(0,0)"/>
<path d="" fill="#101213" transform="translate(0,0)"/>
<path d="" fill="#141211" transform="translate(0,0)"/>
<path d="" fill="#161516" transform="translate(0,0)"/>
<path d="" fill="#1B1C1A" transform="translate(0,0)"/>
<path d="" fill="#1C1D1A" transform="translate(0,0)"/>
<path d="" fill="#1B1A1C" transform="translate(0,0)"/>
<path d="" fill="#1A1B1B" transform="translate(0,0)"/>
</svg>
