<?xml version="1.0" standalone="no"?>
<!DOCTYPE svg PUBLIC "-//W3C//DTD SVG 20010904//EN"
 "http://www.w3.org/TR/2001/REC-SVG-20010904/DTD/svg10.dtd">
<svg version="1.0" xmlns="http://www.w3.org/2000/svg"
 width="1808.000000pt" height="1280.000000pt" viewBox="0 0 1808.000000 1280.000000"
 preserveAspectRatio="xMidYMid meet">

<g transform="translate(0.000000,1280.000000) scale(0.100000,-0.100000)"
fill="#000000" stroke="none">
<path d="M8657 12116 c-113 -25 -171 -53 -289 -143 -111 -84 -188 -201 -219
-331 -10 -42 -24 -96 -31 -119 -10 -35 -10 -54 1 -100 7 -32 17 -78 21 -103
22 -126 44 -172 130 -285 169 -222 444 -329 680 -265 259 71 398 181 494 392
41 90 76 228 76 302 0 107 -52 265 -124 373 -58 89 -119 144 -221 202 -164 94
-329 118 -518 77z"/>
<path d="M10310 11216 c-113 -33 -147 -63 -261 -231 -112 -166 -312 -347 -507
-459 -231 -134 -563 -194 -879 -161 -251 26 -388 64 -544 150 -128 71 -395
296 -477 403 -28 37 -75 98 -104 136 -85 110 -129 143 -216 156 -160 25 -263
-31 -358 -195 -25 -44 -28 -59 -27 -125 1 -61 6 -84 28 -123 32 -57 166 -178
348 -316 158 -119 298 -285 384 -456 67 -133 76 -161 59 -194 -15 -29 -73 -63
-171 -101 -111 -44 -217 -118 -228 -161 -7 -27 39 -65 228 -185 33 -21 94 -56
135 -77 41 -21 91 -46 110 -56 39 -21 290 -84 421 -106 103 -18 467 -69 604
-85 133 -16 309 -46 410 -70 72 -18 293 -100 320 -120 6 -4 51 -29 100 -55 50
-26 108 -62 130 -80 22 -18 54 -39 72 -48 46 -24 47 -5 6 83 -18 41 -38 91
-42 110 -5 19 -16 62 -25 95 -31 113 -46 220 -46 341 0 302 87 601 245 834 39
58 80 116 90 129 98 118 143 164 227 231 53 43 128 99 165 123 108 72 158 133
196 244 26 77 -19 184 -123 291 -61 63 -91 78 -181 86 -24 3 -64 -1 -89 -8z"/>
<path d="M11175 10751 c-65 -17 -145 -61 -183 -99 -56 -56 -79 -136 -98 -335
-19 -209 -25 -233 -106 -437 -69 -170 -202 -393 -254 -423 -20 -11 -49 0 -87
32 -18 15 -70 51 -117 81 -47 30 -98 67 -115 82 -62 57 -112 60 -127 7 -62
-214 -69 -343 -27 -549 35 -170 81 -342 109 -404 10 -22 28 -68 40 -101 35
-98 70 -185 105 -265 18 -41 56 -136 85 -210 28 -74 55 -144 60 -155 33 -73
96 -290 116 -400 28 -150 41 -399 26 -490 -5 -33 -8 -64 -5 -69 6 -9 92 77
139 140 82 108 230 224 432 339 120 67 189 94 334 129 180 43 396 51 638 21
75 -9 243 -67 368 -126 102 -49 258 -99 306 -99 35 0 73 16 133 56 130 86 203
251 159 355 -8 19 -35 59 -60 90 -41 52 -52 60 -138 92 -51 20 -124 41 -163
47 -132 22 -340 71 -430 102 -101 34 -265 117 -359 180 -163 111 -408 413
-507 623 -43 92 -59 146 -94 322 -62 304 -12 619 160 1018 51 119 54 129 44
178 -30 161 -239 307 -384 268z"/>
<path d="M6364 10741 c-98 -25 -175 -95 -223 -201 -31 -68 -26 -111 25 -235
121 -294 135 -337 160 -524 17 -133 15 -309 -5 -451 -35 -234 -149 -499 -298
-684 -115 -144 -155 -188 -232 -249 -110 -87 -158 -116 -331 -195 -188 -86
-257 -104 -563 -146 -159 -23 -243 -79 -302 -204 -37 -77 -28 -194 22 -269 33
-51 135 -126 201 -147 81 -27 139 -16 269 51 235 121 460 178 754 190 169 6
220 -2 241 -40 8 -15 9 -81 4 -228 -4 -114 -4 -220 0 -235 6 -25 9 -26 53 -21
108 13 328 111 441 196 132 100 391 384 561 616 24 33 65 85 92 114 27 30 73
87 103 125 100 133 195 251 227 285 27 28 132 116 306 255 20 16 86 53 147 82
127 61 148 79 119 100 -10 8 -33 14 -49 14 -29 1 -157 25 -256 49 -113 28
-304 124 -414 207 -170 130 -390 363 -429 454 -6 14 -19 37 -29 52 -38 56
-107 242 -141 379 -26 105 -39 184 -46 289 -9 124 -14 152 -37 196 -53 105
-151 170 -270 178 -38 3 -83 2 -100 -3z"/>
<path d="M5085 10049 c-84 -12 -146 -34 -247 -86 -158 -81 -279 -240 -327
-430 -28 -110 -25 -282 7 -370 107 -293 303 -453 595 -486 82 -9 118 -8 210 5
179 26 215 44 333 162 128 129 154 175 204 362 81 302 -75 645 -354 779 -50
24 -113 48 -141 53 -73 15 -211 21 -280 11z"/>
<path d="M12355 10046 c-153 -31 -250 -83 -361 -198 -65 -66 -89 -101 -123
-171 -56 -119 -81 -214 -81 -311 0 -73 4 -96 33 -201 29 -106 143 -282 224
-347 60 -47 133 -85 223 -113 140 -44 177 -47 305 -25 216 38 373 128 461 263
70 107 92 155 125 265 34 113 36 180 10 309 -21 100 -88 241 -148 313 -59 69
-243 175 -356 206 -78 21 -230 26 -312 10z"/>
<path d="M8040 7491 c-117 -38 -200 -132 -200 -227 0 -110 141 -244 259 -244
52 0 132 30 168 63 32 29 57 111 57 194 1 65 -2 74 -30 110 -53 65 -116 104
-176 108 -29 3 -64 1 -78 -4z"/>
<path d="M8755 7485 c-46 -16 -118 -90 -141 -144 -21 -50 -14 -143 15 -204 31
-65 96 -109 169 -115 48 -4 63 0 138 38 81 41 85 45 115 106 28 56 30 68 24
116 -10 70 -36 119 -84 157 -73 58 -156 74 -236 46z"/>
<path d="M9518 7486 c-52 -19 -82 -40 -111 -78 -71 -93 -84 -157 -46 -225 32
-58 98 -121 157 -150 47 -23 57 -25 91 -14 112 33 183 99 206 189 15 59 15 67
-1 120 -13 42 -31 69 -66 104 -68 66 -145 84 -230 54z"/>
<path d="M6994 7434 c-196 -282 -615 -529 -959 -564 -151 -16 -396 -4 -530 27
-139 32 -296 83 -383 126 -231 115 -314 111 -446 -18 -79 -78 -98 -116 -104
-198 -4 -63 -1 -83 24 -145 32 -83 80 -138 139 -159 22 -8 121 -27 220 -43
301 -47 436 -87 615 -182 206 -109 355 -246 491 -449 52 -79 112 -176 132
-216 51 -99 102 -246 116 -334 7 -41 16 -98 22 -128 5 -30 9 -109 9 -175 -1
-219 -80 -554 -177 -741 -33 -64 -36 -77 -35 -152 1 -90 17 -134 74 -198 119
-136 291 -154 444 -46 77 54 103 106 119 249 8 64 15 138 15 163 0 46 36 221
64 309 16 53 80 208 108 265 29 56 128 207 147 223 38 30 70 7 260 -186 102
-104 229 -223 281 -266 52 -43 113 -95 135 -115 70 -65 277 -193 420 -260 164
-78 225 -104 322 -142 59 -22 129 -49 154 -60 25 -10 63 -22 85 -28 396 -97
465 -111 614 -122 164 -13 317 -3 333 23 12 17 -7 190 -25 238 -6 14 -23 77
-39 140 -16 63 -36 133 -45 154 -24 62 -35 135 -24 156 12 23 55 42 261 120
172 64 281 116 394 188 444 280 550 375 818 734 140 188 220 309 253 385 14
32 35 78 46 102 48 105 146 392 177 519 6 23 15 59 21 80 26 102 52 333 57
495 l5 177 -30 0 c-37 0 -124 -22 -201 -51 -51 -19 -219 -105 -231 -118 -3 -3
-39 -33 -80 -66 -173 -139 -342 -325 -481 -530 -67 -99 -202 -268 -283 -355
-34 -36 -106 -116 -160 -178 -205 -233 -587 -464 -886 -536 -180 -43 -427 -59
-555 -36 -27 5 -86 14 -130 20 -127 17 -207 31 -245 42 -86 25 -262 92 -283
107 -12 9 -42 27 -67 40 -93 50 -271 193 -402 323 -123 122 -196 227 -306 438
-87 167 -97 193 -136 345 -36 144 -44 215 -51 444 -3 112 -8 207 -11 212 -12
20 -33 6 -70 -47z"/>
<path d="M5070 5860 c-61 -12 -100 -27 -206 -83 -119 -62 -224 -166 -290 -287
-88 -159 -116 -319 -81 -450 46 -170 92 -256 194 -361 136 -141 246 -196 413
-207 130 -9 198 -1 320 38 127 40 166 66 262 170 196 213 251 508 143 766 -18
44 -82 137 -135 197 -66 75 -196 156 -316 197 -60 21 -239 33 -304 20z"/>
<path d="M1414 2380 c-89 -13 -208 -58 -252 -96 -50 -42 -122 -137 -152 -199
-33 -69 -27 -218 11 -285 5 -8 15 -28 23 -45 46 -100 228 -213 419 -259 130
-32 175 -53 216 -103 63 -76 30 -132 -86 -147 -57 -7 -215 9 -245 25 -10 5
-43 35 -73 66 -48 49 -57 55 -84 50 -16 -4 -56 -26 -88 -50 -54 -41 -93 -64
-170 -102 -43 -20 -42 -36 5 -71 20 -15 39 -30 42 -33 3 -4 32 -29 65 -57 241
-204 500 -246 754 -121 62 30 181 128 181 149 0 6 13 25 29 43 55 63 64 222
19 343 -38 102 -203 230 -363 282 -86 28 -252 104 -278 128 -48 43 -43 97 12
112 97 27 261 -8 261 -55 0 -50 130 -37 205 21 25 19 65 43 90 55 62 29 66 37
43 86 -23 50 -157 167 -235 206 -50 26 -229 68 -275 66 -12 -1 -46 -5 -74 -9z"/>
<path d="M9355 2374 c-120 -26 -212 -71 -270 -135 -71 -79 -122 -228 -113
-332 5 -61 51 -161 97 -212 78 -87 242 -168 443 -220 106 -28 145 -50 158 -89
10 -31 9 -42 -7 -74 -26 -53 -61 -67 -168 -66 -130 2 -165 14 -220 78 -52 62
-85 73 -130 46 -16 -10 -61 -35 -100 -55 -137 -74 -162 -107 -112 -152 12 -11
48 -48 81 -81 63 -67 66 -69 201 -135 136 -66 154 -71 269 -64 108 7 195 26
249 54 170 89 205 117 252 201 103 184 43 416 -138 535 -46 30 -163 83 -379
171 -100 41 -165 122 -125 154 6 5 36 15 64 21 42 9 66 8 120 -5 58 -13 74
-21 109 -60 60 -64 62 -63 242 41 94 54 105 73 76 137 -22 49 -129 147 -203
187 -31 16 -88 36 -128 45 -65 15 -218 20 -268 10z"/>
<path d="M3168 2339 c-20 -4 -101 -39 -180 -77 -119 -58 -154 -80 -209 -133
-88 -86 -124 -142 -176 -272 -42 -107 -43 -113 -43 -224 0 -187 51 -328 168
-465 103 -122 191 -181 367 -247 141 -52 276 -51 445 5 116 39 211 98 332 206
51 46 142 215 168 313 40 149 27 324 -34 455 -34 74 -97 161 -167 231 -69 69
-159 121 -294 169 -116 42 -290 60 -377 39z m272 -380 c96 -26 136 -53 194
-129 60 -79 78 -134 80 -240 1 -81 -1 -88 -32 -138 -45 -69 -134 -149 -200
-180 -120 -55 -374 -14 -453 74 -14 16 -48 61 -75 99 l-49 70 2 80 c1 86 19
141 73 225 85 132 276 190 460 139z"/>
<path d="M4718 2341 c-31 -3 -60 -9 -63 -13 -9 -8 -8 -618 1 -872 9 -250 17
-272 149 -399 95 -92 297 -176 427 -177 169 -1 382 96 488 221 103 123 112
188 108 799 l-3 425 -50 11 c-57 14 -274 18 -292 6 -9 -6 -13 -129 -15 -507
-3 -562 0 -538 -79 -569 -44 -18 -187 -22 -235 -7 -16 5 -47 14 -70 21 -28 8
-47 22 -60 44 -18 29 -19 62 -24 516 l-5 485 -50 11 c-54 13 -137 15 -227 5z"/>
<path d="M6535 2342 l-40 -7 -2 -707 c-2 -603 0 -709 12 -722 8 -8 40 -16 72
-19 96 -9 807 -7 821 2 9 6 15 48 18 148 7 184 15 175 -156 174 -145 0 -388
12 -401 20 -11 7 -13 84 -10 428 1 231 0 474 -4 541 -8 119 -8 122 -34 132
-32 12 -221 19 -276 10z"/>
<path d="M10645 2341 l-30 -6 -3 -717 -2 -716 36 -12 c19 -7 54 -9 77 -6 23 3
86 7 140 8 53 2 98 5 99 8 0 3 2 93 4 200 1 107 3 200 3 206 1 7 37 17 89 24
187 24 246 39 339 85 92 45 161 107 194 174 7 14 19 33 25 41 7 8 22 43 33 77
26 77 28 219 6 298 -19 65 -129 197 -208 249 -100 67 -130 75 -308 86 -179 11
-446 11 -494 1z m590 -353 c60 -32 105 -104 105 -167 0 -36 -50 -98 -95 -116
-48 -20 -202 -46 -230 -39 -14 3 -30 14 -35 24 -15 28 -13 293 3 309 18 19
212 10 252 -11z"/>
<path d="M12520 2343 c-19 -8 -39 -34 -40 -51 0 -8 -11 -41 -24 -75 -13 -34
-40 -107 -59 -162 -20 -55 -52 -147 -73 -205 -20 -58 -84 -231 -142 -385 -57
-154 -118 -318 -134 -365 -16 -47 -35 -94 -42 -105 -20 -31 -25 -73 -10 -92
19 -27 224 -26 312 1 73 22 76 28 97 145 7 40 18 78 23 83 25 25 446 40 509
18 29 -11 53 -45 53 -76 0 -9 10 -47 21 -85 30 -99 40 -104 204 -104 151 0
185 7 185 36 0 20 -62 216 -80 254 -23 47 -157 406 -205 550 -13 39 -52 144
-87 235 -35 91 -77 206 -92 255 -16 50 -33 94 -37 100 -22 23 -100 35 -229 34
-74 0 -142 -3 -150 -6z m204 -576 c18 -18 46 -73 46 -90 0 -7 11 -36 25 -63
48 -94 30 -114 -100 -114 -84 0 -125 14 -125 42 0 11 20 58 45 106 25 47 45
91 45 98 0 13 27 33 43 34 5 0 14 -6 21 -13z"/>
<path d="M14490 2339 c-60 -10 -173 -48 -256 -84 -120 -53 -255 -184 -316
-306 -66 -133 -83 -200 -83 -324 1 -107 19 -230 36 -241 5 -3 9 -12 9 -21 0
-8 21 -51 47 -94 67 -113 197 -238 299 -288 164 -81 331 -115 449 -91 191 37
349 125 500 276 68 68 73 79 53 106 -30 38 -242 138 -292 138 -22 0 -76 -43
-76 -60 0 -16 -77 -65 -128 -82 -64 -21 -229 -25 -283 -6 -51 17 -133 72 -173
115 -19 21 -50 67 -68 103 -27 53 -33 75 -32 125 2 108 93 263 187 318 97 57
254 73 354 35 64 -23 121 -56 142 -82 7 -9 19 -16 25 -16 6 0 22 -9 36 -20 14
-11 33 -20 42 -20 21 0 135 54 159 76 9 8 41 28 70 43 29 15 54 32 57 39 7 21
-188 206 -258 245 -176 97 -359 140 -500 116z"/>
<path d="M15885 2343 c-27 -2 -54 -8 -60 -13 -7 -6 -8 -239 -5 -716 l5 -708
45 -14 c55 -16 852 -14 869 3 12 12 19 291 7 302 -4 4 -131 10 -281 13 -150 3
-277 9 -282 13 -9 9 -11 222 -2 231 10 11 200 25 339 26 74 1 143 5 153 9 17
6 19 23 23 148 3 106 1 144 -9 150 -6 4 -119 10 -250 13 -279 6 -273 4 -263
101 6 67 13 86 32 93 8 3 127 9 265 12 248 7 251 7 259 30 5 12 10 82 12 155
l3 132 -30 10 c-30 10 -735 18 -830 10z"/>
</g>
</svg>
