<?xml version="1.0" standalone="no"?>
<!DOCTYPE svg PUBLIC "-//W3C//DTD SVG 20010904//EN"
 "http://www.w3.org/TR/2001/REC-SVG-20010904/DTD/svg10.dtd">
<svg version="1.0" xmlns="http://www.w3.org/2000/svg"
 width="2245.000000pt" height="1587.000000pt" viewBox="0 0 2245.000000 1587.000000"
 preserveAspectRatio="xMidYMid meet">

<g transform="translate(0.000000,1587.000000) scale(0.100000,-0.100000)"
fill="#000000" stroke="none">
<path d="M0 13058 l0 -1103 68 -35 c227 -117 480 -342 620 -553 331 -501 392
-1089 167 -1615 -155 -360 -442 -663 -802 -846 l-53 -26 0 -285 0 -285 75 0
c151 0 261 -75 337 -231 95 -194 112 -391 46 -523 -58 -114 -225 -208 -411
-231 l-47 -6 0 -320 c0 -185 4 -319 9 -319 5 0 82 18 171 40 465 117 855 292
1260 564 207 139 368 273 560 465 260 261 448 505 625 816 252 441 418 978
466 1507 19 208 7 627 -24 828 -71 463 -184 822 -382 1215 -389 772 -1003
1379 -1761 1742 -218 103 -548 224 -573 209 -5 -3 -11 -2 -13 3 -5 12 -292 91
-334 91 -2 0 -4 -496 -4 -1102z m287 800 c-3 -8 -6 -5 -6 6 -1 11 2 17 5 13 3
-3 4 -12 1 -19z m691 -614 c113 -45 197 -115 228 -191 18 -41 7 -65 -39 -93
-51 -32 -78 -26 -120 24 -43 53 -134 101 -171 92 -39 -10 -56 -34 -56 -79 0
-35 10 -57 56 -126 81 -120 104 -175 104 -244 0 -75 -29 -137 -96 -204 -92
-93 -195 -105 -329 -39 -152 76 -281 236 -234 293 16 19 86 52 111 53 10 0 35
-26 58 -60 50 -74 107 -117 166 -126 38 -5 49 -3 69 16 50 47 41 90 -45 214
-89 129 -111 227 -71 318 70 161 206 217 369 152z m632 -530 c77 -36 174 -128
219 -208 17 -30 39 -84 48 -121 32 -130 -17 -264 -142 -391 -134 -135 -256
-197 -390 -197 -109 -1 -191 37 -286 134 -186 189 -190 407 -12 599 187 202
386 267 563 184z m597 -774 c25 -29 52 -100 52 -138 1 -40 17 -32 -338 -163
-275 -101 -302 -117 -321 -190 -20 -74 13 -167 77 -216 64 -49 106 -41 417 76
148 55 277 101 286 101 48 0 105 -158 68 -188 -7 -5 -143 -58 -303 -117 -250
-93 -301 -108 -366 -112 -67 -5 -84 -2 -130 19 -120 55 -213 202 -241 382 -20
129 22 238 118 308 35 25 615 254 652 257 7 1 20 -8 29 -19z m298 -1054 c26
-19 36 -165 13 -184 -10 -8 -144 -20 -384 -35 -211 -13 -368 -27 -368 -33 1
-5 5 -74 9 -154 8 -166 9 -164 -67 -173 -52 -7 -92 3 -101 25 -2 8 -11 121
-18 251 -10 184 -10 240 -1 249 10 10 530 49 873 67 14 0 34 -5 44 -13z m-858
-1113 c14 -16 32 -43 40 -62 l15 -34 -61 -61 c-59 -60 -100 -131 -101 -173 0
-34 20 -70 47 -82 55 -25 71 -17 214 108 40 35 92 72 116 83 80 35 183 21 271
-37 85 -56 123 -155 103 -268 -21 -120 -121 -277 -188 -293 -22 -6 -32 0 -65
34 -46 50 -48 73 -7 120 37 42 79 127 79 160 0 54 -43 87 -99 76 -18 -4 -71
-42 -128 -91 -54 -47 -118 -95 -143 -106 -91 -41 -214 -16 -304 63 -108 95
-112 257 -11 425 46 75 69 100 124 136 56 36 65 36 98 2z m8 -811 c201 -163
331 -275 333 -287 3 -24 -198 -277 -261 -329 -95 -78 -194 -95 -284 -51 -172
86 -238 246 -164 400 15 33 51 89 80 124 28 35 51 65 51 67 0 2 -56 49 -125
105 -92 75 -125 107 -125 124 0 26 46 93 85 123 25 20 29 20 54 7 14 -8 175
-135 356 -283z m-686 -184 c38 -118 241 -867 241 -889 0 -21 -11 -36 -49 -63
-27 -20 -65 -43 -84 -51 l-36 -15 -383 285 c-301 224 -383 290 -383 307 0 16
17 34 55 61 82 57 87 57 174 -8 l75 -57 126 88 c69 48 128 90 130 94 2 4 -7
44 -21 89 -14 45 -22 91 -19 101 8 24 112 90 141 90 16 0 25 -9 33 -32z"/>
<path d="M1435 12541 c-97 -25 -255 -154 -295 -242 -23 -51 -26 -126 -6 -172
17 -40 80 -100 124 -117 80 -31 191 12 303 117 139 132 159 250 60 356 -47 51
-122 74 -186 58z"/>
<path d="M1533 8747 c-91 -100 -105 -161 -50 -215 46 -45 87 -57 125 -38 29
15 122 113 122 128 0 7 -138 125 -165 140 -7 4 -21 -2 -32 -15z"/>
<path d="M806 8286 l-77 -53 136 -107 c99 -78 132 -99 121 -78 -7 15 -31 87
-51 160 -21 72 -41 132 -45 132 -3 0 -41 -24 -84 -54z"/>
<path d="M22175 11094 c-331 -23 -489 -45 -710 -98 -409 -99 -777 -260 -1149
-504 -530 -347 -1010 -901 -1281 -1477 -413 -875 -452 -1861 -108 -2760 119
-309 297 -635 482 -880 659 -874 1662 -1415 2694 -1454 120 -5 247 -6 282 -3
l65 5 0 999 c0 917 -1 1000 -16 994 -32 -12 -280 -6 -379 9 -353 54 -657 214
-916 483 -213 219 -355 487 -420 792 -20 89 -23 135 -23 300 0 216 17 338 73
501 38 114 129 293 204 404 119 175 326 365 522 480 77 45 257 128 305 140 8
3 49 13 90 24 136 36 251 51 397 52 78 0 147 -2 153 -6 7 -4 10 310 10 994 l0
1001 -38 0 c-22 0 -72 2 -113 4 -41 2 -96 2 -124 0z m-668 -592 c15 -9 43 -86
43 -117 0 -12 -6 -27 -12 -32 -7 -6 -76 -27 -153 -48 -77 -21 -142 -39 -144
-41 -7 -6 42 -174 51 -174 5 0 68 16 139 36 151 43 152 43 171 -50 16 -73 17
-72 -142 -116 -67 -18 -123 -36 -125 -40 -7 -11 49 -190 59 -190 6 0 74 18
151 40 77 22 148 37 157 34 21 -6 52 -104 43 -134 -3 -11 -20 -23 -38 -28
-497 -141 -467 -137 -487 -59 -7 23 -42 152 -80 287 -38 135 -83 298 -101 364
l-33 118 21 18 c12 10 91 36 175 59 84 24 180 51 213 61 71 21 76 22 92 12z
m-716 -288 c16 -20 18 -119 3 -134 -7 -6 -31 -16 -54 -21 -111 -25 -209 -101
-229 -177 -22 -81 27 -214 117 -314 57 -62 107 -88 172 -88 78 0 167 56 231
145 21 30 40 45 54 45 32 0 88 -41 99 -72 21 -61 -106 -194 -254 -266 -65 -31
-87 -37 -163 -40 -82 -4 -91 -3 -151 27 -112 55 -234 208 -287 361 -31 93 -32
209 0 270 36 69 66 105 129 153 131 101 296 156 333 111z m-536 -820 c367
-147 415 -169 415 -188 0 -30 -86 -126 -114 -126 -12 0 -53 13 -91 29 -38 16
-73 27 -77 25 -17 -11 -188 -213 -188 -223 0 -6 18 -39 40 -73 22 -35 40 -73
40 -86 0 -28 -85 -122 -110 -122 -15 0 -167 243 -293 470 -17 30 -64 111 -104
179 -40 67 -73 131 -73 141 0 22 106 140 126 140 8 0 201 -75 429 -166z m-625
-426 c197 -59 259 -222 166 -436 l-36 -83 98 -44 c212 -97 210 -94 168 -188
-38 -86 -41 -86 -207 -11 -79 36 -216 97 -305 135 -89 39 -199 89 -245 112
-74 37 -84 45 -82 68 1 14 33 94 72 179 55 121 81 165 119 203 54 56 74 68
122 77 38 8 76 4 130 -12z m-408 -763 c45 -30 55 -58 34 -90 -18 -27 -46 -127
-46 -163 0 -32 43 -72 78 -72 38 0 67 28 134 130 64 97 86 119 148 151 89 46
229 21 304 -55 92 -92 100 -253 22 -421 -25 -52 -68 -104 -89 -106 -38 -4 -85
24 -106 64 -12 22 -10 31 28 92 63 104 65 206 5 234 -58 26 -90 5 -162 -106
-95 -150 -177 -202 -291 -189 -141 17 -223 100 -237 243 -13 125 61 313 124
313 9 0 34 -11 54 -25z m705 -1117 c18 -23 145 -417 141 -440 -3 -21 -41 -36
-398 -156 -232 -78 -404 -130 -416 -127 -26 6 -64 88 -64 139 0 41 -33 27 375
162 159 52 292 97 294 100 2 2 -15 60 -38 128 -24 68 -41 135 -39 147 5 38
122 76 145 47z m219 -663 c68 -33 159 -132 210 -228 36 -68 39 -77 39 -162 0
-80 -3 -95 -27 -136 -15 -25 -42 -59 -60 -75 -68 -59 -497 -354 -515 -354 -22
0 -51 28 -82 80 -28 47 -27 74 7 95 15 10 124 87 244 172 188 134 218 159 232
194 21 51 20 84 -3 134 -33 74 -117 124 -186 111 -21 -4 -121 -69 -261 -167
-267 -188 -258 -183 -284 -169 -21 11 -74 83 -84 116 -8 26 1 34 194 171 341
242 369 256 469 248 29 -2 77 -16 107 -30z m549 -610 c121 -32 255 -139 302
-241 71 -155 15 -354 -148 -529 -146 -156 -323 -178 -505 -63 -114 71 -188
177 -200 285 -14 121 54 285 172 412 122 131 238 172 379 136z m773 -369 c34
-13 78 -34 96 -46 45 -27 106 -95 106 -118 0 -26 -25 -57 -65 -82 l-34 -21
-61 49 c-124 100 -250 97 -250 -5 0 -35 8 -46 94 -128 52 -49 106 -108 120
-131 74 -114 21 -295 -105 -358 -85 -42 -210 -31 -328 28 -47 24 -111 86 -111
107 0 20 41 69 70 84 27 14 31 13 78 -19 70 -47 140 -63 181 -42 36 19 49 56
31 94 -6 15 -56 68 -110 119 -67 64 -103 106 -115 135 -49 124 17 292 139 350
57 26 177 19 264 -16z"/>
<path d="M20015 9209 c41 -67 78 -126 83 -131 5 -5 34 21 65 59 31 37 53 70
49 75 -4 4 -61 30 -127 58 -66 28 -125 54 -132 57 -7 3 21 -50 62 -118z"/>
<path d="M19492 8764 c-23 -16 -82 -122 -82 -147 0 -13 188 -103 196 -94 16
16 54 126 54 156 0 74 -106 128 -168 85z"/>
<path d="M20564 5625 c-55 -28 -102 -75 -153 -151 -101 -150 -97 -267 12 -340
116 -79 229 -39 336 121 101 152 98 272 -11 349 -51 37 -135 46 -184 21z"/>
<path d="M0 7810 l0 -309 33 5 c183 31 246 91 247 234 0 158 -88 333 -186 370
-14 6 -41 10 -60 10 l-34 0 0 -310z"/>
</g>
</svg>
